SplineFontDB: 3.0
FontName: Jones-it-BoldItalic
FullName: Jones* Bold Italic
FamilyName: Jones*
Weight: Bold
Copyright: 
UComments: "2016-1-29: Created with FontForge (http://fontforge.org)"
Version: 002.000
ItalicAngle: -9
UnderlinePosition: -150
UnderlineWidth: 100
Ascent: 784
Descent: 216
InvalidEm: 0
LayerCount: 2
Layer: 0 0 "Back" 1
Layer: 1 0 "Fore" 0
XUID: [1021 31 -699969567 4970488]
FSType: 0
OS2Version: 2
OS2_WeightWidthSlopeOnly: 0
OS2_UseTypoMetrics: 0
CreationTime: 1454127431
ModificationTime: 1456599613
PfmFamily: 17
TTFWeight: 700
TTFWidth: 5
LineGap: 0
VLineGap: 0
OS2TypoAscent: 784
OS2TypoAOffset: 0
OS2TypoDescent: -216
OS2TypoDOffset: 0
OS2TypoLinegap: 200
OS2WinAscent: 850
OS2WinAOffset: 0
OS2WinDescent: 300
OS2WinDOffset: 0
HheadAscent: 850
HheadAOffset: 0
HheadDescent: -300
HheadDOffset: 0
OS2SubXSize: 650
OS2SubYSize: 600
OS2SubXOff: 0
OS2SubYOff: 75
OS2SupXSize: 650
OS2SupYSize: 600
OS2SupXOff: 0
OS2SupYOff: 350
OS2StrikeYSize: 50
OS2StrikeYPos: 314
OS2CapHeight: 700
OS2XHeight: 520
OS2Vendor: 'PfEd'
Lookup: 5 0 0 "lig" { "lig-1"  } ['calt' ('DFLT' <'dflt' > 'grek' <'dflt' > 'latn' <'dflt' > ) ]
Lookup: 1 0 0 "fi" { "fi-1"  } ['ss01' ('DFLT' <'dflt' > 'grek' <'dflt' > 'latn' <'dflt' > ) ]
Lookup: 258 0 0 "kern" { "kerning" [150,0,2] } ['kern' ('DFLT' <'dflt' > 'grek' <'dflt' > 'latn' <'dflt' > ) ]
MarkAttachClasses: 1
DEI: 91125
KernClass2: 13 10 "kerning"
 3 A L
 5 D O Q
 3 F P
 3 K X
 3 V W
 13 b e h m n o p
 15 a c g q r s u z
 14 d f i j l t fi
 3 k x
 3 v w
 3 R B
 3 T Y
 1 A
 7 C G O Q
 3 T Y
 3 V W
 15 a m n p r s u z
 11 c d e g o q
 18 b f h i j k l t fi
 5 v w y
 1 x

StartChar: E
Encoding: 69 69 0
Width: 670
VWidth: 0
Flags: HMW
AnchorPoint: "ced" 495 0 basechar 0
AnchorPoint: "dot" 365 760 basechar 0
LayerCount: 2
Fore
SplineSet
148 418 m 5
 628 418 l 1
 609 298 l 1
 129 298 l 5
 148 418 l 5
194 700 m 5
 724 700 l 1
 704 580 l 1
 174 580 l 5
 194 700 l 5
100 120 m 5
 630 120 l 1
 610 0 l 1
 80 0 l 5
 100 120 l 5
194 700 m 5
 324 700 l 5
 210 0 l 5
 80 0 l 5
 194 700 l 5
EndSplineSet
EndChar

StartChar: I
Encoding: 73 73 1
Width: 300
VWidth: 0
Flags: HMW
AnchorPoint: "ced" 145 0 basechar 0
AnchorPoint: "dot" 140 760 basechar 0
LayerCount: 2
Fore
SplineSet
199 700 m 1
 329 700 l 1
 215 0 l 1
 85 0 l 1
 199 700 l 1
EndSplineSet
EndChar

StartChar: F
Encoding: 70 70 2
Width: 665
VWidth: 0
Flags: HMW
AnchorPoint: "ced" 125 0 basechar 0
AnchorPoint: "dot" 365 760 basechar 0
LayerCount: 2
Fore
SplineSet
145 398 m 5
 625 398 l 1
 605 278 l 1
 125 278 l 5
 145 398 l 5
194 700 m 5
 724 700 l 1
 704 580 l 1
 174 580 l 5
 194 700 l 5
194 700 m 5
 324 700 l 5
 210 0 l 5
 80 0 l 5
 194 700 l 5
EndSplineSet
EndChar

StartChar: H
Encoding: 72 72 3
Width: 765
VWidth: 0
Flags: HMW
AnchorPoint: "ced" 610 0 basechar 0
AnchorPoint: "dot" 370 760 basechar 0
LayerCount: 2
Fore
SplineSet
664 700 m 5
 794 700 l 5
 680 0 l 5
 550 0 l 5
 664 700 l 5
153 418 m 1
 653 418 l 5
 634 298 l 5
 134 298 l 1
 153 418 l 1
199 700 m 1
 329 700 l 1
 215 0 l 1
 85 0 l 1
 199 700 l 1
EndSplineSet
EndChar

StartChar: L
Encoding: 76 76 4
Width: 655
VWidth: 0
Flags: HMW
AnchorPoint: "ced" 365 0 basechar 0
AnchorPoint: "dot" 385 760 basechar 0
LayerCount: 2
Fore
SplineSet
105 120 m 5
 630 120 l 1
 610 0 l 1
 85 0 l 5
 105 120 l 5
199 700 m 5
 329 700 l 5
 215 0 l 5
 85 0 l 5
 199 700 l 5
EndSplineSet
EndChar

StartChar: T
Encoding: 84 84 5
Width: 690
VWidth: 0
Flags: HMW
AnchorPoint: "ced" 347 0 basechar 0
AnchorPoint: "dot" 345 760 basechar 0
LayerCount: 2
Fore
SplineSet
149 700 m 5
 769 700 l 1
 749 580 l 1
 129 580 l 5
 149 700 l 5
394 700 m 1
 524 700 l 1
 410 0 l 1
 280 0 l 1
 394 700 l 1
EndSplineSet
EndChar

StartChar: O
Encoding: 79 79 7
Width: 850
VWidth: 0
Flags: HMW
AnchorPoint: "ced" 425 0 basechar 0
AnchorPoint: "dot" 425 760 basechar 0
LayerCount: 2
Fore
SplineSet
240 350 m 4
 221 214 300 110 441 110 c 4
 582 110 691 214 710 350 c 4
 729 486 649 590 508 590 c 4
 367 590 259 486 240 350 c 4
110 350 m 4
 138 549 320 710 525 710 c 4
 730 710 868 549 840 350 c 4
 812 151 629 -10 424 -10 c 4
 219 -10 82 151 110 350 c 4
EndSplineSet
EndChar

StartChar: C
Encoding: 67 67 8
Width: 732
VWidth: 0
Flags: HMW
AnchorPoint: "ced" 425 0 basechar 0
AnchorPoint: "dot" 425 760 basechar 0
LayerCount: 2
Fore
SplineSet
230 350 m 0
 211 214 290 110 441 110 c 0
 519 110 579 142 635 198 c 1
 708 113 l 1
 632 38 530 -10 424 -10 c 0
 209 -10 72 151 100 350 c 0
 128 549 310 710 525 710 c 0
 631 710 721 662 775 587 c 1
 679 503 l 5
 639 559 586 590 508 590 c 0
 357 590 249 486 230 350 c 0
EndSplineSet
EndChar

StartChar: A
Encoding: 65 65 9
Width: 800
VWidth: 0
Flags: HMW
AnchorPoint: "ced" 687 0 basechar 0
AnchorPoint: "ring" 400 700 basechar 0
AnchorPoint: "dot" 400 760 basechar 0
LayerCount: 2
Fore
SplineSet
454 700 m 1
 574 700 l 1
 562 690 l 1
 452 690 l 1
 454 700 l 1
228 270 m 1
 640 270 l 1
 621 155 l 1
 209 155 l 1
 228 270 l 1
640 0 m 5
 462 690 l 1
 574 700 l 1
 780 0 l 1
 640 0 l 5
454 700 m 1
 562 690 l 1
 160 0 l 1
 20 0 l 1
 454 700 l 1
EndSplineSet
EndChar

StartChar: V
Encoding: 86 86 10
Width: 780
VWidth: 0
Flags: HMW
AnchorPoint: "ced" 390 0 basechar 0
AnchorPoint: "dot" 389 760 basechar 0
LayerCount: 2
Fore
SplineSet
450 0 m 1
 330 0 l 1
 335 30 l 1
 455 30 l 1
 450 0 l 1
279 700 m 1
 455 30 l 1
 330 0 l 1
 134 700 l 1
 279 700 l 1
450 0 m 1
 335 30 l 1
 729 700 l 5
 874 700 l 1
 450 0 l 1
EndSplineSet
EndChar

StartChar: G
Encoding: 71 71 11
Width: 782
VWidth: 0
Flags: HMW
AnchorPoint: "ced" 425 0 basechar 0
AnchorPoint: "dot" 425 760 basechar 0
LayerCount: 2
Fore
SplineSet
777 390 m 5
 760 270 l 5
 463 270 l 5
 480 390 l 5
 777 390 l 5
738 113 m 1
 608 113 l 1
 647 390 l 5
 777 390 l 5
 738 113 l 1
240 350 m 0
 221 214 290 110 441 110 c 0
 519 110 609 142 671 203 c 1
 738 113 l 1
 662 38 530 -10 424 -10 c 0
 209 -10 82 151 110 350 c 0
 138 549 310 710 525 710 c 0
 651 710 741 662 795 587 c 1
 704 507 l 1
 664 563 586 590 508 590 c 0
 357 590 259 486 240 350 c 0
EndSplineSet
EndChar

StartChar: D
Encoding: 68 68 12
Width: 810
VWidth: 0
Flags: HMW
AnchorPoint: "ced" 335 0 basechar 0
AnchorPoint: "dot" 355 760 basechar 0
LayerCount: 2
Fore
SplineSet
204 700 m 1
 494 700 l 5
 474 580 l 5
 184 580 l 1
 204 700 l 1
110 120 m 1
 400 120 l 5
 380 0 l 5
 90 0 l 1
 110 120 l 1
204 700 m 1
 334 700 l 1
 220 0 l 1
 90 0 l 1
 204 700 l 1
400 120 m 5
 531 120 645 214 667 350 c 4
 689 486 605 580 474 580 c 5
 494 700 l 5
 689 700 829 549 797 350 c 4
 765 151 575 0 380 0 c 5
 400 120 l 5
EndSplineSet
EndChar

StartChar: U
Encoding: 85 85 13
Width: 760
VWidth: 0
Flags: HMW
AnchorPoint: "ced" 380 0 basechar 0
AnchorPoint: "dot" 380 760 basechar 0
LayerCount: 2
Fore
SplineSet
612 290 m 1
 679 700 l 1
 804 700 l 1
 736 280 l 1
 612 290 l 1
116 280 m 1
 184 700 l 1
 309 700 l 1
 242 290 l 1
 116 280 l 1
612 290 m 1
 736 280 l 1
 708 111 557 -10 378 -10 c 0
 199 -10 88 111 116 280 c 1
 242 290 l 1
 224 181 292 115 399 115 c 4
 506 115 594 181 612 290 c 1
EndSplineSet
EndChar

StartChar: o
Encoding: 111 111 14
Width: 650
VWidth: 0
Flags: HMW
AnchorPoint: "ced" 325 0 basechar 0
AnchorPoint: "dot" 325 673 basechar 0
LayerCount: 2
Fore
SplineSet
207 260 m 0
 194 171 243 105 340 105 c 0
 437 105 504 171 517 260 c 0
 530 349 481 415 384 415 c 0
 287 415 220 349 207 260 c 0
82 260 m 0
 103 409 241 530 400 530 c 0
 559 530 663 409 642 260 c 0
 621 111 483 -10 324 -10 c 0
 165 -10 61 111 82 260 c 0
EndSplineSet
EndChar

StartChar: B
Encoding: 66 66 15
Width: 695
VWidth: 0
Flags: HMW
AnchorPoint: "ced" 332 0 basechar 0
AnchorPoint: "dot" 313 760 basechar 0
LayerCount: 2
Fore
SplineSet
413 418 m 5
 496 418 543 432 554 497 c 4
 565 562 522 580 439 580 c 5
 479 700 l 5
 608 700 706 631 684 497 c 4
 662 364 548 330 419 330 c 5
 413 418 l 5
194 700 m 1
 324 700 l 1
 210 0 l 1
 80 0 l 1
 194 700 l 1
120 120 m 1
 405 120 l 5
 405 0 l 5
 100 0 l 1
 120 120 l 1
214 700 m 1
 479 700 l 5
 439 580 l 5
 194 580 l 1
 214 700 l 1
168 418 m 1
 493 418 l 5
 434 298 l 5
 149 298 l 1
 168 418 l 1
405 120 m 5
 488 120 542 135 553 205 c 4
 564 275 517 298 434 298 c 5
 468 385 l 5
 597 385 706 344 683 205 c 4
 660 66 544 0 405 0 c 5
 405 120 l 5
EndSplineSet
EndChar

StartChar: K
Encoding: 75 75 16
Width: 745
VWidth: 0
Flags: HMW
AnchorPoint: "ced" 655 0 basechar 0
AnchorPoint: "dot" 335 760 basechar 0
LayerCount: 2
Fore
SplineSet
333 413 m 1
 477 413 l 1
 740 0 l 1
 596 0 l 1
 333 413 l 1
659 700 m 1
 804 700 l 1
 244 207 l 5
 122 230 l 1
 659 700 l 1
194 700 m 1
 324 700 l 1
 210 0 l 1
 80 0 l 1
 194 700 l 1
EndSplineSet
EndChar

StartChar: R
Encoding: 82 82 17
Width: 718
VWidth: 0
Flags: HMW
AnchorPoint: "ced" 595 0 basechar 0
AnchorPoint: "dot" 345 760 basechar 0
LayerCount: 2
Fore
SplineSet
423 358 m 1
 511 358 577 392 589 467 c 0
 601 542 547 580 459 580 c 1
 499 700 l 1
 648 700 741 602 719 467 c 0
 697 333 573 238 424 238 c 1
 423 358 l 1
199 700 m 5
 329 700 l 5
 215 0 l 5
 85 0 l 5
 199 700 l 5
234 700 m 5
 499 700 l 1
 459 580 l 1
 214 580 l 5
 234 700 l 5
178 358 m 5
 423 358 l 1
 424 238 l 1
 159 238 l 5
 178 358 l 5
355 320 m 1
 500 320 l 1
 688 0 l 1
 543 0 l 1
 355 320 l 1
EndSplineSet
EndChar

StartChar: P
Encoding: 80 80 18
Width: 643
VWidth: 0
Flags: HMW
AnchorPoint: "ced" 145 0 basechar 0
AnchorPoint: "dot" 315 760 basechar 0
LayerCount: 2
Fore
SplineSet
393 358 m 5
 481 358 547 392 559 467 c 4
 571 542 517 580 429 580 c 5
 469 700 l 5
 618 700 711 602 689 467 c 0
 667 333 543 238 394 238 c 5
 393 358 l 5
199 700 m 1
 329 700 l 1
 215 0 l 1
 85 0 l 1
 199 700 l 1
214 700 m 1
 469 700 l 1
 429 580 l 5
 194 580 l 1
 214 700 l 1
158 358 m 1
 393 358 l 5
 394 238 l 1
 139 238 l 1
 158 358 l 1
EndSplineSet
EndChar

StartChar: Q
Encoding: 81 81 19
Width: 849
VWidth: 0
Flags: HMW
AnchorPoint: "ced" 425 0 basechar 0
AnchorPoint: "dot" 425 760 basechar 0
LayerCount: 2
Fore
SplineSet
240 350 m 0
 221 214 300 110 441 110 c 0
 582 110 691 214 710 350 c 0
 729 486 649 590 508 590 c 0
 367 590 259 486 240 350 c 0
110 350 m 0
 138 549 320 710 525 710 c 0
 730 710 868 549 840 350 c 0
 812 151 629 -10 424 -10 c 0
 219 -10 82 151 110 350 c 0
729 -44 m 1
 499 224 l 1
 588 302 l 1
 818 35 l 1
 729 -44 l 1
EndSplineSet
EndChar

StartChar: J
Encoding: 74 74 20
Width: 599
VWidth: 0
Flags: HMW
AnchorPoint: "ced" 255 0 basechar 0
AnchorPoint: "dot" 245 760 basechar 0
LayerCount: 2
Fore
SplineSet
436 260 m 1
 508 700 l 1
 633 700 l 1
 561 260 l 1
 436 260 l 1
436 260 m 1
 561 260 l 1
 530 71 412 -10 253 -10 c 0
 145 -10 62 36 36 157 c 1
 142 222 l 1
 163 139 213 105 272 105 c 0
 349 105 418 151 436 260 c 1
EndSplineSet
EndChar

StartChar: S
Encoding: 83 83 21
Width: 625
VWidth: 0
Flags: HMW
AnchorPoint: "ced" 315 0 basechar 0
AnchorPoint: "dot" 335 760 basechar 0
LayerCount: 2
Fore
SplineSet
487 194 m 1
 614 205 l 1
 596 76 476 -10 327 -10 c 0
 198 -10 117 36 56 113 c 1
 147 200 l 1
 187 146 247 102 350 102 c 0
 433 102 480 144 487 194 c 1
282 512 m 5
 151 504 l 1
 170 640 306 710 425 710 c 0
 544 710 611 674 656 622 c 1
 573 535 l 5
 539 573 486 587 408 587 c 0
 340 587 288 557 282 512 c 5
390 425 m 0
 518 396 635 357 614 205 c 1
 487 194 l 1
 496 255 453 286 363 305 c 0
 244 329 132 368 151 504 c 1
 282 512 l 1
 276 468 296 446 390 425 c 0
EndSplineSet
EndChar

StartChar: M
Encoding: 77 77 22
Width: 932
VWidth: 0
Flags: HMW
AnchorPoint: "ced" 790 0 basechar 0
AnchorPoint: "dot" 470 760 basechar 0
LayerCount: 2
Fore
SplineSet
521 130 m 1
 453 130 l 1
 481 240 l 5
 529 240 l 5
 521 130 l 1
826 640 m 1
 846 700 l 1
 966 700 l 1
 963 680 l 1
 826 640 l 1
943 650 m 1
 521 130 l 1
 481 240 l 5
 846 700 l 1
 943 650 l 1
963 680 m 1
 852 0 l 1
 722 0 l 1
 826 640 l 1
 963 680 l 1
314 640 m 1
 191 680 l 1
 194 700 l 1
 314 700 l 1
 314 640 l 1
201 650 m 1
 314 700 l 1
 529 240 l 5
 453 130 l 1
 201 650 l 1
191 680 m 1
 314 640 l 1
 210 0 l 1
 80 0 l 1
 191 680 l 1
EndSplineSet
EndChar

StartChar: Y
Encoding: 89 89 23
Width: 680
VWidth: 0
Flags: HMW
AnchorPoint: "ced" 345 0 basechar 0
AnchorPoint: "dot" 337 760 basechar 0
LayerCount: 2
Fore
SplineSet
323 295 m 1
 453 295 l 1
 405 0 l 1
 275 0 l 1
 323 295 l 1
124 700 m 1
 264 700 l 1
 453 295 l 1
 350 217 l 1
 124 700 l 1
644 700 m 5
 784 700 l 1
 400 217 l 1
 323 295 l 1
 644 700 l 5
EndSplineSet
EndChar

StartChar: W
Encoding: 87 87 24
Width: 1065
VWidth: 0
Flags: HMW
AnchorPoint: "ced" 750 0 basechar 0
AnchorPoint: "dot" 530 760 basechar 0
LayerCount: 2
Fore
SplineSet
574 700 m 1
 719 700 l 1
 680 670 l 5
 603 670 l 5
 574 700 l 1
830 0 m 1
 710 0 l 1
 712 10 l 1
 832 10 l 1
 830 0 l 1
719 700 m 1
 832 10 l 1
 710 0 l 1
 603 670 l 5
 719 700 l 1
830 0 m 1
 712 10 l 1
 1034 700 l 1
 1164 700 l 1
 830 0 l 1
355 0 m 1
 235 0 l 1
 237 10 l 1
 357 10 l 1
 355 0 l 1
259 700 m 1
 357 10 l 1
 235 0 l 1
 129 700 l 1
 259 700 l 1
355 0 m 1
 237 10 l 1
 574 700 l 1
 680 670 l 5
 355 0 l 1
EndSplineSet
EndChar

StartChar: N
Encoding: 78 78 25
Width: 790
VWidth: 0
Flags: HMW
AnchorPoint: "ced" 650 0 basechar 0
AnchorPoint: "dot" 400 760 basechar 0
LayerCount: 2
Fore
SplineSet
710 0 m 1
 590 0 l 1
 594 24 l 1
 712 14 l 1
 710 0 l 1
314 700 m 1
 311 680 l 1
 191 680 l 1
 194 700 l 1
 314 700 l 1
187 655 m 5
 314 700 l 1
 717 45 l 1
 590 0 l 1
 187 655 l 5
694 700 m 1
 824 700 l 1
 710 0 l 1
 583 20 l 1
 694 700 l 1
194 700 m 1
 321 680 l 1
 210 0 l 1
 80 0 l 1
 194 700 l 1
EndSplineSet
EndChar

StartChar: X
Encoding: 88 88 26
Width: 750
VWidth: 0
Flags: HMW
AnchorPoint: "ced" 635 0 basechar 0
AnchorPoint: "dot" 374 760 basechar 0
LayerCount: 2
Fore
SplineSet
159 700 m 1
 304 700 l 1
 725 0 l 1
 580 0 l 1
 159 700 l 1
674 700 m 1
 819 700 l 1
 170 0 l 1
 25 0 l 1
 674 700 l 1
EndSplineSet
EndChar

StartChar: Z
Encoding: 90 90 27
Width: 680
VWidth: 0
Flags: HMW
AnchorPoint: "ced" 495 0 basechar 0
AnchorPoint: "dot" 335 760 basechar 0
LayerCount: 2
Fore
SplineSet
691 590 m 1
 681 590 l 1
 699 700 l 1
 709 700 l 1
 691 590 l 1
83 110 m 1
 93 110 l 1
 75 0 l 1
 65 0 l 1
 83 110 l 1
199 700 m 1
 699 700 l 1
 679 580 l 1
 179 580 l 1
 199 700 l 1
95 120 m 1
 635 120 l 1
 615 0 l 1
 75 0 l 1
 95 120 l 1
546 590 m 1
 691 590 l 1
 228 110 l 5
 83 110 l 1
 546 590 l 1
EndSplineSet
EndChar

StartChar: l
Encoding: 108 108 28
Width: 265
VWidth: 0
Flags: HMW
AnchorPoint: "ced" 133 0 basechar 0
AnchorPoint: "dot" 133 793 basechar 0
LayerCount: 2
Fore
SplineSet
189 730 m 1
 314 730 l 1
 195 0 l 1
 70 0 l 1
 189 730 l 1
EndSplineSet
EndChar

StartChar: b
Encoding: 98 98 29
Width: 655
VWidth: 0
Flags: HMW
AnchorPoint: "ced" 351 0 basechar 0
AnchorPoint: "dot" 355 673 basechar 0
LayerCount: 2
Fore
SplineSet
232 260 m 4
 218 174 264 105 357 105 c 4
 450 105 513 174 527 260 c 4
 541 346 501 415 408 415 c 4
 315 415 246 346 232 260 c 4
197 260 m 4
 221 409 292 530 456 530 c 4
 600 530 678 419 652 260 c 4
 626 101 512 -10 368 -10 c 4
 204 -10 173 111 197 260 c 4
184 730 m 5
 309 730 l 5
 190 0 l 5
 65 0 l 5
 184 730 l 5
EndSplineSet
EndChar

StartChar: c
Encoding: 99 99 30
Width: 573
VWidth: 0
Flags: HMW
AnchorPoint: "ced" 325 0 basechar 0
AnchorPoint: "dot" 325 673 basechar 0
LayerCount: 2
Fore
SplineSet
207 260 m 0
 194 171 243 105 340 105 c 0
 399 105 455 130 489 170 c 1
 556 92 l 1
 500 28 421 -10 324 -10 c 0
 165 -10 61 111 82 260 c 0
 103 409 241 530 400 530 c 0
 497 530 565 491 603 428 c 1
 515 350 l 1
 493 390 443 415 384 415 c 0
 287 415 220 349 207 260 c 0
EndSplineSet
EndChar

StartChar: d
Encoding: 100 100 31
Width: 655
VWidth: 0
Flags: HMW
AnchorPoint: "ced" 300 0 basechar 0
AnchorPoint: "dot" 295 673 basechar 0
LayerCount: 2
Fore
SplineSet
507 260 m 4
 521 346 476 415 383 415 c 4
 290 415 225 346 211 260 c 4
 197 174 239 105 332 105 c 4
 425 105 493 174 507 260 c 4
542 260 m 4
 518 111 447 -10 283 -10 c 4
 139 -10 61 101 87 260 c 4
 113 419 227 530 371 530 c 4
 535 530 566 409 542 260 c 4
709 730 m 5
 590 0 l 5
 465 0 l 5
 584 730 l 5
 709 730 l 5
EndSplineSet
EndChar

StartChar: k
Encoding: 107 107 32
Width: 615
VWidth: 0
Flags: W
HStem: 0 21G<65 193.26 458.254 610> 500 20G<506.377 675> 710 20G<180.74 309>
AnchorPoint: "ced" 535 0 basechar 0
AnchorPoint: "dot" 345 673 basechar 0
LayerCount: 2
Fore
SplineSet
272 291 m 1
 401 311 l 1
 610 0 l 1
 472 0 l 1
 272 291 l 1
529 520 m 1
 675 520 l 1
 208 110 l 1
 115 154 l 1
 529 520 l 1
184 730 m 1
 309 730 l 1
 190 0 l 1
 65 0 l 1
 184 730 l 1
EndSplineSet
EndChar

StartChar: e
Encoding: 101 101 33
Width: 615
VWidth: 0
Flags: HMW
AnchorPoint: "ced" 320 0 basechar 0
AnchorPoint: "dot" 310 673 basechar 0
LayerCount: 2
Fore
SplineSet
612 260 m 1
 608 230 l 1
 483 230 l 1
 487 260 l 1
 612 260 l 1
483 230 m 1
 157 230 l 1
 169 317 l 1
 495 317 l 1
 483 230 l 1
487 260 m 1
 501 359 476 415 379 415 c 4
 282 415 221 359 207 260 c 1
 82 260 l 1
 104 419 246 530 395 530 c 4
 544 530 634 419 612 260 c 1
 487 260 l 1
82 260 m 1
 207 260 l 1
 193 161 238 105 327 105 c 0
 391 105 448 118 492 167 c 1
 561 92 l 1
 505 28 416 -10 319 -10 c 4
 160 -10 60 101 82 260 c 1
EndSplineSet
EndChar

StartChar: p
Encoding: 112 112 34
Width: 655
VWidth: 0
Flags: HMW
AnchorPoint: "ced" 355 0 basechar 0
AnchorPoint: "dot" 360 673 basechar 0
LayerCount: 2
Fore
SplineSet
232 260 m 0
 218 174 264 105 357 105 c 0
 450 105 514 174 528 260 c 0
 542 346 501 415 408 415 c 0
 315 415 246 346 232 260 c 0
197 260 m 0
 221 409 292 530 456 530 c 0
 600 530 678 419 652 260 c 0
 626 101 512 -10 368 -10 c 0
 204 -10 173 111 197 260 c 0
31 -210 m 1
 150 520 l 1
 275 520 l 1
 156 -210 l 1
 31 -210 l 1
EndSplineSet
EndChar

StartChar: q
Encoding: 113 113 35
Width: 655
VWidth: 0
Flags: HMW
AnchorPoint: "ced" 300 0 basechar 0
AnchorPoint: "dot" 295 673 basechar 0
LayerCount: 2
Fore
SplineSet
507 260 m 0
 521 346 476 415 383 415 c 0
 290 415 226 346 212 260 c 0
 198 174 239 105 332 105 c 0
 425 105 493 174 507 260 c 0
542 260 m 0
 518 111 447 -10 283 -10 c 0
 139 -10 61 101 87 260 c 0
 113 419 227 530 371 530 c 0
 535 530 566 409 542 260 c 0
556 -210 m 1
 431 -210 l 1
 550 520 l 1
 675 520 l 1
 556 -210 l 1
EndSplineSet
EndChar

StartChar: h
Encoding: 104 104 36
Width: 635
VWidth: 0
Flags: HMW
AnchorPoint: "ced" 505 0 basechar 0
AnchorPoint: "dot" 350 673 basechar 0
LayerCount: 2
Fore
SplineSet
622 320 m 5
 570 0 l 1
 445 0 l 1
 494 300 l 1
 622 320 l 5
189 730 m 1
 314 730 l 1
 195 0 l 1
 70 0 l 1
 189 730 l 1
494 300 m 1
 505 369 488 415 398 415 c 0
 319 415 256 370 241 280 c 1
 206 280 l 1
 229 419 317 530 456 530 c 0
 600 530 643 449 622 320 c 5
 494 300 l 1
EndSplineSet
EndChar

StartChar: n
Encoding: 110 110 37
Width: 635
VWidth: 0
Flags: HMW
AnchorPoint: "ced" 535 0 basechar 0
AnchorPoint: "dot" 330 673 basechar 0
LayerCount: 2
Fore
SplineSet
622 320 m 1
 570 0 l 1
 445 0 l 1
 494 300 l 1
 622 320 l 1
155 520 m 1
 280 520 l 1
 195 0 l 1
 70 0 l 1
 155 520 l 1
494 300 m 1
 505 370 478 415 398 415 c 0
 320 415 256 370 241 280 c 1
 206 280 l 1
 229 419 317 530 466 530 c 0
 600 530 643 449 622 320 c 5
 494 300 l 1
EndSplineSet
EndChar

StartChar: m
Encoding: 109 109 38
Width: 900
VWidth: 0
Flags: HMW
AnchorPoint: "ced" 795 0 basechar 0
AnchorPoint: "dot" 450 673 basechar 0
LayerCount: 2
Fore
SplineSet
907 320 m 5
 855 0 l 1
 730 0 l 1
 779 300 l 1
 907 320 l 5
779 300 m 1
 790 370 773 420 698 420 c 0
 635 420 579 380 563 280 c 1
 528 280 l 1
 551 419 612 530 756 530 c 0
 900 530 928 449 907 320 c 5
 779 300 l 1
569 320 m 5
 517 0 l 1
 393 0 l 1
 442 300 l 1
 569 320 l 5
140 520 m 1
 265 520 l 1
 180 0 l 1
 55 0 l 1
 140 520 l 1
442 300 m 1
 453 370 438 420 363 420 c 0
 300 420 241 370 226 280 c 1
 191 280 l 1
 214 419 277 530 421 530 c 0
 575 530 590 449 569 320 c 5
 442 300 l 1
EndSplineSet
EndChar

StartChar: r
Encoding: 114 114 39
Width: 410
VWidth: 0
Flags: HMW
AnchorPoint: "ced" 130 0 basechar 0
AnchorPoint: "dot" 210 673 basechar 0
LayerCount: 2
Fore
SplineSet
150 520 m 1
 275 520 l 1
 190 0 l 1
 65 0 l 1
 150 520 l 1
456 405 m 1
 436 405 l 2
 322 405 250 370 234 270 c 1
 199 270 l 1
 222 409 286 520 475 520 c 1
 456 405 l 1
EndSplineSet
EndChar

StartChar: u
Encoding: 117 117 40
Width: 635
VWidth: 0
Flags: HMW
AnchorPoint: "ced" 285 0 basechar 0
AnchorPoint: "dot" 305 673 basechar 0
LayerCount: 2
Fore
SplineSet
113 200 m 5
 165 520 l 1
 290 520 l 1
 241 220 l 1
 113 200 l 5
550 0 m 1
 425 0 l 1
 510 520 l 1
 635 520 l 1
 550 0 l 1
241 220 m 1
 230 150 242 105 322 105 c 0
 400 105 449 150 464 240 c 1
 499 240 l 1
 476 101 422 -10 273 -10 c 0
 154 -10 92 71 113 200 c 5
 241 220 l 1
EndSplineSet
EndChar

StartChar: g
Encoding: 103 103 41
Width: 655
VWidth: 0
Flags: HMW
AnchorPoint: "dot" 300 673 basechar 0
LayerCount: 2
Fore
SplineSet
507 260 m 0
 521 346 476 415 383 415 c 0
 290 415 226 346 212 260 c 0
 198 174 239 105 332 105 c 0
 425 105 493 174 507 260 c 0
542 260 m 0
 518 111 447 -10 283 -10 c 0
 139 -10 61 101 87 260 c 0
 113 419 227 530 371 530 c 0
 535 530 566 409 542 260 c 0
316 -105 m 1
 297 -220 l 1
 140 -220 66 -172 29 -108 c 5
 126 -42 l 5
 160 -86 223 -105 316 -105 c 1
593 20 m 1
 468 20 l 1
 550 520 l 1
 675 520 l 1
 593 20 l 1
468 20 m 1
 593 20 l 1
 570 -119 446 -220 297 -220 c 1
 316 -105 l 1
 383 -105 454 -69 468 20 c 1
EndSplineSet
EndChar

StartChar: i
Encoding: 105 105 42
Width: 255
VWidth: 0
Flags: HMW
AnchorPoint: "ced" 125 0 basechar 0
LayerCount: 2
Fore
SplineSet
158 672 m 4
 165 715 206 750 249 750 c 4
 292 750 321 715 314 672 c 4
 307 629 267 594 224 594 c 4
 181 594 151 629 158 672 c 4
150 520 m 1
 275 520 l 1
 190 0 l 1
 65 0 l 1
 150 520 l 1
EndSplineSet
EndChar

StartChar: t
Encoding: 116 116 43
Width: 420
VWidth: 0
Flags: HMW
AnchorPoint: "ced" 267 0 basechar 0
AnchorPoint: "dot" 305 673 basechar 0
LayerCount: 2
Fore
SplineSet
115 520 m 1
 465 520 l 1
 446 405 l 1
 96 405 l 1
 115 520 l 1
251 160 m 1
 123 140 l 1
 210 673 l 1
 335 673 l 1
 251 160 l 1
291 105 m 1
 325 105 343 116 356 130 c 5
 409 42 l 1
 377 13 328 -10 266 -10 c 1
 291 105 l 1
251 160 m 1
 246 130 253 105 291 105 c 1
 266 -10 l 1
 167 -10 110 61 123 140 c 1
 251 160 l 1
EndSplineSet
EndChar

StartChar: a
Encoding: 97 97 44
Width: 580
VWidth: 0
Flags: HMW
AnchorPoint: "ced" 435 0 basechar 0
AnchorPoint: "ring" 275 673 basechar 0
AnchorPoint: "dot" 275 673 basechar 0
LayerCount: 2
Fore
SplineSet
359 302 m 1
 489 302 l 1
 476 218 l 1
 376 218 l 1
 359 302 l 1
444 330 m 1
 455 395 422 415 356 415 c 1
 370 530 l 1
 513 530 589 454 569 330 c 1
 444 330 l 1
356 415 m 1
 302 415 251 402 207 372 c 1
 143 450 l 1
 208 499 268 530 370 530 c 1
 356 415 l 1
444 330 m 1
 569 330 l 1
 515 0 l 1
 390 0 l 1
 444 330 l 1
183 155 m 1
 177 117 212 95 275 95 c 0
 333 95 410 120 423 200 c 5
 454 180 l 1
 436 71 367 -10 228 -10 c 0
 129 -10 39 41 57 150 c 1
 183 155 l 1
359 302 m 1
 376 218 l 1
 267 218 192 210 183 155 c 1
 57 150 l 1
 79 285 222 302 359 302 c 1
EndSplineSet
EndChar

StartChar: j
Encoding: 106 106 45
Width: 255
VWidth: 0
Flags: HMW
LayerCount: 2
Fore
SplineSet
158 672 m 0
 165 715 206 750 249 750 c 0
 292 750 321 715 314 672 c 0
 307 629 267 594 224 594 c 0
 181 594 151 629 158 672 c 0
150 520 m 1
 275 520 l 1
 180 -60 l 1
 58 -40 l 1
 150 520 l 1
-3 -95 m 5
 -16 -210 l 1
 -73 -210 -121 -192 -142 -158 c 1
 -67 -67 l 1
 -53 -86 -36 -95 -3 -95 c 5
58 -40 m 1
 180 -60 l 1
 167 -139 73 -210 -16 -210 c 1
 -3 -95 l 5
 24 -95 51 -80 58 -40 c 1
EndSplineSet
EndChar

StartChar: s
Encoding: 115 115 46
Width: 520
VWidth: 0
Flags: HMW
AnchorPoint: "ced" 260 0 basechar 0
AnchorPoint: "dot" 260 673 basechar 0
LayerCount: 2
Fore
SplineSet
381 150 m 1
 498 162 l 1
 484 66 408 -10 269 -10 c 0
 180 -10 107 18 43 94 c 1
 128 178 l 1
 178 124 225 105 280 105 c 0
 336 105 377 121 381 150 c 1
234 378 m 1
 109 372 l 1
 122 466 218 530 325 530 c 0
 424 530 486 496 521 448 c 1
 438 370 l 1
 411 402 367 420 319 420 c 0
 261 420 237 397 234 378 c 1
321 327 m 0
 436 311 514 272 498 162 c 1
 381 150 l 1
 386 186 373 202 276 216 c 0
 175 231 94 267 109 372 c 1
 234 378 l 1
 231 358 245 338 321 327 c 0
EndSplineSet
EndChar

StartChar: v
Encoding: 118 118 47
Width: 590
VWidth: 0
Flags: HW
AnchorPoint: "ced" 287 0 basechar 0
AnchorPoint: "dot" 273 673 basechar 0
LayerCount: 2
Fore
SplineSet
355 0 m 1
 235 0 l 1
 236 5 l 1
 356 5 l 1
 355 0 l 1
236 5 m 1
 530 520 l 5
 660 520 l 1
 355 0 l 1
 236 5 l 1
100 520 m 1
 230 520 l 1
 356 5 l 1
 235 0 l 1
 100 520 l 1
EndSplineSet
EndChar

StartChar: f
Encoding: 102 102 48
Width: 375
VWidth: 0
Flags: HMW
AnchorPoint: "ced" 160 0 basechar 0
LayerCount: 2
Fore
SplineSet
115 520 m 5
 448 520 l 5
 429 405 l 5
 96 405 l 5
 115 520 l 5
318 570 m 5
 225 0 l 5
 100 0 l 5
 196 590 l 5
 318 570 l 5
385 625 m 5
 388 740 l 5
 450 740 491 718 512 688 c 5
 439 607 l 5
 428 615 414 625 385 625 c 5
318 570 m 5
 196 590 l 5
 209 669 299 740 388 740 c 5
 385 625 l 5
 350 625 323 599 318 570 c 5
EndSplineSet
Substitution2: "fi-1" fi
EndChar

StartChar: y
Encoding: 121 121 49
Width: 579
VWidth: 0
Flags: HW
AnchorPoint: "dot" 295 673 basechar 0
LayerCount: 2
Fore
SplineSet
105 520 m 1
 235 520 l 1
 375 5 l 1
 249 0 l 1
 105 520 l 1
148 -95 m 1
 135 -210 l 1
 78 -210 32 -184 11 -150 c 1
 77 -62 l 1
 91 -81 109 -95 148 -95 c 1
228 -34 m 2
 524 520 l 1
 649 520 l 1
 339 -60 l 2
 297 -140 224 -210 135 -210 c 1
 148 -95 l 1
 185 -95 207 -74 228 -34 c 2
EndSplineSet
EndChar

StartChar: w
Encoding: 119 119 50
Width: 795
VWidth: 0
Flags: HW
AnchorPoint: "ced" 570 0 basechar 0
AnchorPoint: "dot" 398 673 basechar 0
LayerCount: 2
Fore
SplineSet
420 520 m 1
 545 520 l 1
 536 467 l 1
 411 467 l 1
 420 520 l 1
640 0 m 1
 505 0 l 1
 506 5 l 1
 624 25 l 1
 640 0 l 1
536 5 m 1
 725 520 l 1
 860 520 l 1
 640 0 l 1
 536 5 l 1
439 457 m 1
 545 520 l 1
 614 25 l 1
 505 0 l 1
 439 457 l 1
290 0 m 5
 155 0 l 5
 159 25 l 5
 291 5 l 5
 290 0 l 5
189 25 m 5
 420 520 l 1
 504 457 l 1
 290 0 l 5
 189 25 l 5
105 520 m 1
 240 520 l 1
 261 5 l 5
 155 0 l 5
 105 520 l 1
EndSplineSet
EndChar

StartChar: x
Encoding: 120 120 51
Width: 615
VWidth: 0
Flags: HW
AnchorPoint: "ced" 510 0 basechar 0
AnchorPoint: "dot" 280 673 basechar 0
LayerCount: 2
Fore
SplineSet
15 0 m 1
 515 520 l 1
 665 520 l 5
 165 0 l 5
 15 0 l 1
120 520 m 1
 270 520 l 5
 600 0 l 5
 450 0 l 1
 120 520 l 1
EndSplineSet
EndChar

StartChar: z
Encoding: 122 122 52
Width: 559
VWidth: 0
Flags: HMW
AnchorPoint: "ced" 440 0 basechar 0
AnchorPoint: "dot" 280 673 basechar 0
LayerCount: 2
Fore
SplineSet
55 95 m 1
 75 95 l 1
 60 0 l 1
 40 0 l 1
 55 95 l 1
78 115 m 1
 528 115 l 1
 510 0 l 1
 60 0 l 1
 78 115 l 1
564 520 m 1
 584 520 l 1
 569 425 l 1
 549 425 l 1
 564 520 l 1
144 520 m 1
 564 520 l 1
 546 405 l 1
 126 405 l 1
 144 520 l 1
409 425 m 1
 569 425 l 1
 215 95 l 1
 55 95 l 1
 409 425 l 1
EndSplineSet
EndChar

StartChar: zero
Encoding: 48 48 53
Width: 600
VWidth: 0
Flags: HMW
LayerCount: 2
Fore
SplineSet
212 350 m 4
 190 213 206 110 318 110 c 0
 430 110 480 213 502 350 c 0
 524 487 508 590 396 590 c 0
 284 590 234 487 212 350 c 4
82 350 m 4
 114 549 241 710 416 710 c 0
 591 710 664 549 632 350 c 0
 600 151 473 -10 298 -10 c 0
 123 -10 50 151 82 350 c 4
EndSplineSet
EndChar

StartChar: one
Encoding: 49 49 54
Width: 600
VWidth: 0
Flags: HMW
LayerCount: 2
Fore
SplineSet
544 700 m 1
 540 676 l 1
 420 676 l 1
 424 700 l 1
 544 700 l 1
424 700 m 1
 490 606 l 5
 234 446 l 5
 188 540 l 1
 424 700 l 1
412 690 m 1
 544 700 l 1
 430 0 l 1
 300 0 l 1
 412 690 l 1
EndSplineSet
EndChar

StartChar: six
Encoding: 54 54 55
Width: 600
VWidth: 0
Flags: HMW
LayerCount: 2
Fore
SplineSet
206 220 m 1
 151 220 l 1
 172 349 303 445 432 445 c 5
 355 340 l 1
 267 340 217 290 206 220 c 1
206 220 m 0
 195 150 228 100 316 100 c 0
 404 100 455 150 466 220 c 0
 477 290 443 340 355 340 c 1
 432 445 l 1
 531 445 607 349 586 220 c 0
 565 91 447 -10 298 -10 c 0
 149 -10 65 91 86 220 c 0
 95 277 127 327 169 377 c 2
 443 700 l 1
 583 700 l 1
 265 352 l 1
 241 345 l 1
 198 316 214 271 206 220 c 0
EndSplineSet
EndChar

StartChar: period
Encoding: 46 46 56
Width: 230
VWidth: 0
Flags: HMW
LayerCount: 2
Fore
SplineSet
42 75 m 4
 50 122 94 160 141 160 c 4
 188 160 220 122 212 75 c 4
 204 28 160 -10 113 -10 c 4
 66 -10 34 28 42 75 c 4
EndSplineSet
EndChar

StartChar: semicolon
Encoding: 59 59 57
Width: 254
VWidth: 0
Flags: HMW
LayerCount: 2
Fore
SplineSet
52 75 m 0
 60 122 104 160 151 160 c 0
 208 160 235 122 227 75 c 0
 224 56 209 29 189 4 c 2
 79 -130 l 1
 9 -130 l 1
 83 1 l 1
 60 16 47 43 52 75 c 0
110 489 m 4
 118 536 161 574 208 574 c 4
 255 574 288 536 280 489 c 4
 272 442 228 404 181 404 c 4
 134 404 102 442 110 489 c 4
EndSplineSet
EndChar

StartChar: comma
Encoding: 44 44 58
Width: 254
VWidth: 0
Flags: HMW
LayerCount: 2
Fore
SplineSet
52 75 m 0
 60 122 104 160 151 160 c 0
 208 160 235 122 227 75 c 0
 224 56 209 29 189 4 c 2
 79 -130 l 1
 9 -130 l 1
 83 1 l 1
 60 16 47 43 52 75 c 0
EndSplineSet
EndChar

StartChar: colon
Encoding: 58 58 59
Width: 230
VWidth: 0
Flags: HMW
LayerCount: 2
Fore
SplineSet
42 75 m 4
 50 122 94 160 141 160 c 4
 188 160 220 122 212 75 c 4
 204 28 160 -10 113 -10 c 4
 66 -10 34 28 42 75 c 4
110 489 m 4
 118 536 161 574 208 574 c 4
 255 574 288 536 280 489 c 4
 272 442 228 404 181 404 c 4
 134 404 102 442 110 489 c 4
EndSplineSet
EndChar

StartChar: two
Encoding: 50 50 60
Width: 600
VWidth: 0
Flags: HMW
LayerCount: 2
Fore
SplineSet
67 105 m 1
 87 105 l 1
 70 0 l 1
 50 0 l 1
 67 105 l 1
486 498 m 1
 494 547 466 595 392 595 c 0
 323 595 273 543 224 460 c 1
 135 523 l 1
 194 629 293 710 411 710 c 0
 550 710 630 615 611 496 c 1
 486 498 l 1
70 0 m 1
 89 115 l 1
 569 115 l 1
 550 0 l 1
 70 0 l 1
439 261 m 6
 235 105 l 5
 67 105 l 1
 337 310 l 2
 450 396 474 427 486 498 c 1
 611 496 l 1
 595 396 560 351 439 261 c 6
EndSplineSet
EndChar

StartChar: nine
Encoding: 57 57 61
Width: 600
VWidth: 0
Flags: HMW
LayerCount: 2
Fore
SplineSet
508 480 m 1
 563 480 l 1
 542 351 411 255 282 255 c 5
 359 360 l 1
 447 360 497 410 508 480 c 1
508 480 m 0
 519 550 486 600 398 600 c 0
 310 600 259 550 248 480 c 0
 237 410 271 360 359 360 c 1
 282 255 l 1
 183 255 107 351 128 480 c 0
 149 609 267 710 416 710 c 0
 565 710 649 609 628 480 c 0
 619 423 587 373 545 323 c 2
 271 0 l 1
 131 0 l 1
 449 348 l 1
 473 355 l 1
 516 384 500 429 508 480 c 0
EndSplineSet
EndChar

StartChar: three
Encoding: 51 51 62
Width: 600
VWidth: 0
Flags: HMW
LayerCount: 2
Fore
SplineSet
316 404 m 1
 503 404 606 347 582 197 c 0
 559 57 425 -10 298 -10 c 0
 208 -10 118 14 66 99 c 1
 158 177 l 1
 190 122 249 104 307 104 c 4
 380 104 446 128 457 197 c 0
 468 266 423 310 300 310 c 1
 316 404 l 1
173 602 m 1
 231 660 302 710 416 710 c 0
 550 710 622 629 606 530 c 0
 587 411 478 330 304 330 c 1
 319 425 l 1
 439 425 472 472 480 520 c 0
 488 568 457 595 387 595 c 0
 332 595 289 572 241 524 c 1
 173 602 l 1
EndSplineSet
EndChar

StartChar: eight
Encoding: 56 56 63
Width: 600
VWidth: 0
Flags: HMW
LayerCount: 2
Fore
SplineSet
288 510 m 0
 280 462 309 425 369 425 c 0
 429 425 470 462 478 510 c 0
 486 558 457 595 397 595 c 0
 337 595 296 558 288 510 c 0
166 530 m 0
 182 629 292 710 416 710 c 0
 540 710 622 629 606 530 c 0
 587 411 479 340 355 340 c 0
 231 340 147 411 166 530 c 0
80 187 m 0
 103 327 227 394 364 394 c 0
 501 394 603 327 580 187 c 0
 560 67 435 -10 298 -10 c 0
 161 -10 60 67 80 187 c 0
209 207 m 0
 198 138 244 104 317 104 c 0
 390 104 448 138 459 207 c 0
 470 276 423 310 350 310 c 0
 277 310 220 276 209 207 c 0
EndSplineSet
EndChar

StartChar: four
Encoding: 52 52 64
Width: 600
VWidth: 0
Flags: HMW
LayerCount: 2
Fore
SplineSet
79 240 m 1
 99 240 l 5
 80 125 l 1
 60 125 l 1
 79 240 l 1
99 240 m 1
 589 240 l 1
 570 125 l 1
 80 125 l 1
 99 240 l 1
594 700 m 1
 590 676 l 1
 455 676 l 1
 459 700 l 1
 594 700 l 1
459 700 m 1
 547 659 l 1
 181 220 l 1
 79 240 l 1
 459 700 l 1
466 680 m 1
 594 700 l 1
 480 0 l 1
 355 0 l 1
 466 680 l 1
EndSplineSet
EndChar

StartChar: five
Encoding: 53 53 65
Width: 600
VWidth: 0
Flags: HMW
LayerCount: 2
Fore
SplineSet
121 311 m 1
 136 346 l 1
 206 346 l 1
 251 311 l 1
 121 311 l 1
415 461 m 1
 522 461 611 375 587 225 c 4
 561 65 425 -10 298 -10 c 0
 208 -10 118 14 66 99 c 1
 165 182 l 1
 197 127 254 106 317 106 c 0
 380 106 448 143 461 222 c 0
 472 291 450 348 357 348 c 1
 415 461 l 1
121 311 m 1
 244 700 l 1
 359 700 l 1
 251 341 l 1
 121 311 l 1
244 700 m 1
 624 700 l 1
 605 585 l 1
 225 585 l 1
 244 700 l 1
357 348 m 1
 300 348 267 322 251 311 c 1
 191 311 l 1
 235 400 276 461 415 461 c 1
 357 348 l 1
EndSplineSet
EndChar

StartChar: seven
Encoding: 55 55 66
Width: 600
VWidth: 0
Flags: HMW
LayerCount: 2
Fore
SplineSet
649 600 m 1
 281 0 l 5
 154 0 l 5
 522 600 l 1
 649 600 l 1
644 700 m 1
 665 700 l 1
 649 600 l 1
 628 600 l 1
 644 700 l 1
164 700 m 1
 644 700 l 1
 625 585 l 1
 145 585 l 1
 164 700 l 1
EndSplineSet
EndChar

StartChar: exclam
Encoding: 33 33 67
Width: 230
VWidth: 0
Flags: HMW
LayerCount: 2
Fore
SplineSet
42 75 m 4
 50 122 94 160 141 160 c 4
 188 160 220 122 212 75 c 4
 204 28 160 -10 113 -10 c 4
 66 -10 34 28 42 75 c 4
126 490 m 1
 264 490 l 1
 198 250 l 1
 114 250 l 1
 126 490 l 1
165 730 m 1
 303 730 l 1
 264 490 l 1
 126 490 l 1
 165 730 l 1
EndSplineSet
EndChar

StartChar: quotedbl
Encoding: 34 34 68
Width: 340
VWidth: 0
Flags: HMW
LayerCount: 2
Fore
SplineSet
87 655 m 0
 95 702 139 740 186 740 c 0
 233 740 265 702 257 655 c 0
 256 646 253 634 248 624 c 6
 175 480 l 1
 111 480 l 1
 86 624 l 6
 84 634 86 646 87 655 c 0
297 655 m 0
 305 702 349 740 396 740 c 0
 443 740 475 702 467 655 c 0
 466 646 463 634 458 624 c 6
 385 480 l 1
 321 480 l 1
 296 624 l 6
 294 634 296 646 297 655 c 0
EndSplineSet
EndChar

StartChar: quotesingle
Encoding: 39 39 69
Width: 170
VWidth: 0
Flags: HMW
LayerCount: 2
Fore
SplineSet
107 655 m 0
 115 702 159 740 206 740 c 0
 253 740 285 702 277 655 c 0
 276 646 273 634 268 624 c 6
 195 480 l 1
 131 480 l 1
 106 624 l 6
 104 634 106 646 107 655 c 0
EndSplineSet
EndChar

StartChar: numbersign
Encoding: 35 35 70
Width: 810
VWidth: 0
Flags: HMW
LayerCount: 2
Fore
SplineSet
774 270 m 5
 755 155 l 5
 65 155 l 5
 84 270 l 5
 774 270 l 5
859 545 m 1
 840 430 l 1
 150 430 l 1
 169 545 l 1
 859 545 l 1
659 700 m 1
 779 700 l 1
 545 0 l 1
 425 0 l 1
 659 700 l 1
379 700 m 1
 499 700 l 1
 265 0 l 1
 145 0 l 1
 379 700 l 1
EndSplineSet
EndChar

StartChar: percent
Encoding: 37 37 71
Width: 940
VWidth: 0
Flags: HMW
LayerCount: 2
Fore
SplineSet
669 180 m 0
 661 131 689 95 735 95 c 0
 781 95 821 131 829 180 c 0
 837 229 809 265 763 265 c 0
 717 265 677 229 669 180 c 0
225 520 m 0
 217 471 245 435 291 435 c 0
 337 435 377 471 385 520 c 0
 393 569 365 605 319 605 c 0
 273 605 233 569 225 520 c 0
115 520 m 0
 132 625 231 710 336 710 c 0
 441 710 512 625 495 520 c 0
 478 415 379 330 274 330 c 0
 169 330 98 415 115 520 c 0
559 180 m 0
 576 285 675 370 780 370 c 0
 885 370 956 285 939 180 c 0
 922 75 823 -10 718 -10 c 0
 613 -10 542 75 559 180 c 0
764 700 m 1
 884 700 l 1
 290 0 l 1
 170 0 l 1
 764 700 l 1
EndSplineSet
EndChar

StartChar: dollar
Encoding: 36 36 72
Width: 600
VWidth: 0
Flags: HMW
LayerCount: 2
Fore
SplineSet
482 194 m 1
 608 205 l 1
 587 76 465 -10 316 -10 c 0
 187 -10 107 36 48 113 c 1
 142 200 l 1
 181 146 240 102 343 102 c 0
 426 102 474 144 482 194 c 1
283 512 m 5
 152 504 l 1
 174 640 312 710 431 710 c 0
 550 710 615 674 659 622 c 1
 574 535 l 5
 541 573 489 587 411 587 c 0
 343 587 290 557 283 512 c 5
389 425 m 0
 517 396 633 357 608 205 c 1
 482 194 l 1
 492 255 450 286 360 305 c 0
 242 329 130 368 152 504 c 1
 283 512 l 1
 276 468 295 446 389 425 c 0
408 780 m 1
 478 780 l 1
 338 -80 l 1
 268 -80 l 1
 408 780 l 1
EndSplineSet
EndChar

StartChar: asterisk
Encoding: 42 42 73
Width: 324
VWidth: 0
Flags: HMW
LayerCount: 2
Fore
SplineSet
127 475 m 1
 102 535 l 1
 386 685 l 1
 411 625 l 1
 127 475 l 1
117 625 m 1
 162 685 l 1
 396 535 l 1
 351 475 l 1
 117 625 l 1
246 730 m 1
 316 730 l 1
 267 430 l 1
 197 430 l 1
 246 730 l 1
EndSplineSet
EndChar

StartChar: slash
Encoding: 47 47 74
Width: 430
VWidth: 0
Flags: HMW
LayerCount: 2
Fore
SplineSet
467 780 m 1
 577 780 l 1
 77 -80 l 5
 -33 -80 l 1
 467 780 l 1
EndSplineSet
EndChar

StartChar: ampersand
Encoding: 38 38 75
Width: 715
VWidth: 0
Flags: HMW
LayerCount: 2
Fore
SplineSet
371 403 m 0
 451 424 484 490 491 530 c 1
 611 530 l 1
 596 435 486 357 390 335 c 0
 288 312 235 274 223 200 c 5
 101 190 l 1
 124 330 261 374 371 403 c 0
353 540 m 1
 233 540 l 1
 251 649 342 710 451 710 c 0
 560 710 630 649 611 530 c 1
 491 530 l 1
 499 579 476 605 434 605 c 4
 397 605 360 584 353 540 c 1
327 291 m 2
 256 396 220 460 233 540 c 1
 353 540 l 1
 346 499 368 437 435 339 c 2
 665 0 l 1
 525 0 l 1
 327 291 l 2
608 329 m 1
 696 284 l 1
 638 115 487 -10 318 -10 c 0
 169 -10 82 71 101 190 c 1
 223 200 l 5
 213 141 260 105 347 105 c 0
 454 105 554 180 608 329 c 1
EndSplineSet
EndChar

StartChar: parenleft
Encoding: 40 40 76
Width: 275
VWidth: 0
Flags: HMW
LayerCount: 2
Fore
SplineSet
292 750 m 1
 384 700 l 1
 182 440 124 90 242 -170 c 5
 134 -220 l 1
 -16 90 42 440 292 750 c 1
EndSplineSet
EndChar

StartChar: parenright
Encoding: 41 41 77
Width: 275
VWidth: 0
Flags: HMW
LayerCount: 2
Fore
SplineSet
69 -220 m 1
 -23 -170 l 1
 179 90 237 440 119 700 c 5
 227 750 l 1
 377 440 319 90 69 -220 c 1
EndSplineSet
EndChar

StartChar: hyphen
Encoding: 45 45 78
Width: 430
VWidth: 0
Flags: HMW
LayerCount: 2
Fore
SplineSet
123 355 m 5
 423 355 l 5
 404 240 l 1
 104 240 l 1
 123 355 l 5
EndSplineSet
EndChar

StartChar: plus
Encoding: 43 43 79
Width: 510
VWidth: 0
Flags: HMW
LayerCount: 2
Fore
SplineSet
411 589 m 5
 337 134 l 5
 217 134 l 1
 291 589 l 1
 411 589 l 5
98 419 m 1
 548 419 l 1
 530 304 l 1
 80 304 l 1
 98 419 l 1
EndSplineSet
EndChar

StartChar: equal
Encoding: 61 61 80
Width: 510
VWidth: 0
Flags: HMW
LayerCount: 2
Fore
SplineSet
78 295 m 1
 528 295 l 1
 509 180 l 1
 59 180 l 1
 78 295 l 1
116 530 m 5
 566 530 l 5
 548 415 l 1
 98 415 l 1
 116 530 l 5
EndSplineSet
EndChar

StartChar: backslash
Encoding: 92 92 81
Width: 430
VWidth: 0
Flags: HMW
LayerCount: 2
Fore
SplineSet
217 780 m 1
 437 -80 l 1
 327 -80 l 5
 107 780 l 1
 217 780 l 1
EndSplineSet
EndChar

StartChar: less
Encoding: 60 60 82
Width: 510
VWidth: 0
Flags: HMW
LayerCount: 2
Fore
SplineSet
98 415 m 5
 517 225 l 5
 498 110 l 5
 79 300 l 5
 98 415 l 5
98 415 m 5
 579 605 l 5
 560 490 l 5
 79 300 l 5
 98 415 l 5
EndSplineSet
EndChar

StartChar: greater
Encoding: 62 62 83
Width: 510
VWidth: 0
Flags: HMW
LayerCount: 2
Fore
SplineSet
535 300 m 5
 116 490 l 5
 135 605 l 5
 554 415 l 5
 535 300 l 5
535 300 m 5
 54 110 l 5
 73 225 l 5
 554 415 l 5
 535 300 l 5
EndSplineSet
EndChar

StartChar: question
Encoding: 63 63 84
Width: 555
VWidth: 0
Flags: HMW
LayerCount: 2
Fore
SplineSet
199 75 m 4
 207 122 251 160 298 160 c 4
 345 160 377 122 369 75 c 4
 361 28 317 -10 270 -10 c 4
 223 -10 191 28 199 75 c 4
393 452 m 0
 453 480 468 508 474 546 c 1
 601 556 l 1
 586 461 545 412 461 374 c 0
 398 346 379 331 366 250 c 1
 246 250 l 1
 250 400 318 417 393 452 c 0
474 546 m 1
 481 588 450 625 381 625 c 0
 308 625 263 590 218 527 c 1
 137 593 l 1
 193 679 283 740 406 740 c 0
 550 740 617 655 601 556 c 1
 474 546 l 1
EndSplineSet
EndChar

StartChar: at
Encoding: 64 64 85
Width: 1050
VWidth: 0
Flags: HMW
LayerCount: 2
Fore
SplineSet
702 260 m 0
 718 359 660 415 583 415 c 0
 506 415 428 359 412 260 c 0
 396 161 455 105 532 105 c 0
 609 105 686 161 702 260 c 0
737 260 m 0
 713 111 652 -10 493 -10 c 0
 364 -10 266 101 292 260 c 0
 318 419 452 530 581 530 c 0
 740 530 761 409 737 260 c 0
865 520 m 1
 800 120 l 1
 676 100 l 1
 745 520 l 1
 865 520 l 1
97 260 m 0
 139 519 365 730 644 730 c 0
 903 730 1086 559 1044 300 c 0
 1006 64 872 -10 796 -10 c 0
 702 -10 667 43 676 100 c 1
 800 120 l 1
 790 61 797 33 833 33 c 0
 884 33 983 116 1013 300 c 0
 1053 543 882 701 639 701 c 0
 376 701 168 503 128 260 c 0
 88 17 253 -181 496 -181 c 1
 491 -210 l 1
 232 -210 55 1 97 260 c 0
EndSplineSet
EndChar

StartChar: bracketleft
Encoding: 91 91 86
Width: 315
VWidth: 0
Flags: HMW
LayerCount: 2
Fore
SplineSet
245 614 m 1
 264 730 l 1
 414 730 l 1
 395 614 l 1
 245 614 l 1
112 -200 m 1
 131 -84 l 5
 281 -84 l 5
 262 -200 l 1
 112 -200 l 1
164 730 m 1
 284 730 l 1
 132 -200 l 1
 12 -200 l 1
 164 730 l 1
EndSplineSet
EndChar

StartChar: bracketright
Encoding: 93 93 87
Width: 295
VWidth: 0
Flags: HMW
LayerCount: 2
Fore
SplineSet
136 -84 m 1
 117 -200 l 1
 -33 -200 l 1
 -14 -84 l 1
 136 -84 l 1
269 730 m 1
 250 614 l 5
 100 614 l 5
 119 730 l 1
 269 730 l 1
217 -200 m 1
 97 -200 l 1
 249 730 l 1
 369 730 l 1
 217 -200 l 1
EndSplineSet
EndChar

StartChar: asciicircum
Encoding: 94 94 88
Width: 510
VWidth: 0
Flags: HMW
LayerCount: 2
Fore
SplineSet
450 430 m 1
 309 730 l 1
 439 730 l 1
 560 430 l 1
 450 430 l 1
309 730 m 1
 439 730 l 1
 200 430 l 5
 90 430 l 1
 309 730 l 1
EndSplineSet
EndChar

StartChar: underscore
Encoding: 95 95 89
Width: 600
VWidth: 0
Flags: HMW
LayerCount: 2
Fore
SplineSet
-12 -60 m 5
 592 -60 l 5
 573 -180 l 1
 -31 -180 l 1
 -12 -60 l 5
EndSplineSet
EndChar

StartChar: braceleft
Encoding: 123 123 90
Width: 369
VWidth: 0
Flags: HMW
LayerCount: 2
Fore
SplineSet
108 325 m 1
 126 325 l 1
 106 205 l 1
 88 205 l 1
 108 325 l 1
161 150 m 5
 281 150 l 5
 255 -10 l 1
 129 -50 l 1
 161 150 l 5
231 580 m 1
 345 540 l 1
 319 380 l 1
 199 380 l 1
 231 580 l 1
199 380 m 1
 319 380 l 1
 303 281 217 230 98 230 c 5
 108 325 l 1
 176 325 192 340 199 380 c 1
161 150 m 1
 168 190 156 205 88 205 c 1
 110 300 l 1
 229 300 297 249 281 150 c 1
 161 150 l 1
345 540 m 1
 231 580 l 1
 244 659 333 730 452 730 c 1
 439 615 l 1
 361 615 352 580 345 540 c 1
255 -10 m 1
 248 -50 247 -85 325 -85 c 1
 300 -200 l 1
 181 -200 116 -129 129 -50 c 1
 255 -10 l 1
EndSplineSet
EndChar

StartChar: braceright
Encoding: 125 125 91
Width: 349
VWidth: 0
Flags: HMW
LayerCount: 2
Fore
SplineSet
352 205 m 1
 334 205 l 1
 354 325 l 1
 372 325 l 1
 352 205 l 1
299 380 m 5
 179 380 l 5
 205 540 l 1
 331 580 l 1
 299 380 l 5
229 -50 m 1
 115 -10 l 1
 141 150 l 1
 261 150 l 1
 229 -50 l 1
261 150 m 1
 141 150 l 1
 157 249 243 300 362 300 c 5
 352 205 l 1
 284 205 268 190 261 150 c 1
299 380 m 1
 292 340 304 325 372 325 c 1
 350 230 l 1
 231 230 163 281 179 380 c 1
 299 380 l 1
115 -10 m 1
 229 -50 l 1
 216 -129 127 -200 8 -200 c 1
 21 -85 l 1
 99 -85 108 -50 115 -10 c 1
205 540 m 1
 212 580 213 615 135 615 c 1
 160 730 l 1
 279 730 344 659 331 580 c 1
 205 540 l 1
EndSplineSet
EndChar

StartChar: bar
Encoding: 124 124 92
Width: 320
VWidth: 0
Flags: HMW
LayerCount: 2
Fore
SplineSet
332 780 m 5
 192 -80 l 5
 102 -80 l 1
 242 780 l 1
 332 780 l 5
EndSplineSet
EndChar

StartChar: asciitilde
Encoding: 126 126 93
Width: 470
VWidth: 0
Flags: HMW
LayerCount: 2
Fore
SplineSet
152 164 m 1
 77 194 l 1
 94 272 149 321 200 321 c 0
 264 321 299 257 343 257 c 0
 388 257 402 287 408 324 c 1
 473 294 l 1
 454 206 401 167 351 167 c 0
 289 167 258 231 215 231 c 4
 171 231 158 201 152 164 c 1
EndSplineSet
EndChar

StartChar: quoteleft
Encoding: 8216 8216 94
Width: 214
VWidth: 0
Flags: HMW
LayerCount: 2
Fore
SplineSet
260 525 m 0
 252 478 208 440 161 440 c 0
 104 440 77 478 85 525 c 0
 88 544 102 571 122 596 c 2
 233 730 l 1
 303 730 l 1
 228 599 l 1
 251 584 265 557 260 525 c 0
EndSplineSet
EndChar

StartChar: quoteright
Encoding: 8217 8217 95
Width: 214
VWidth: 0
Flags: HMW
LayerCount: 2
Fore
SplineSet
153 695 m 0
 161 742 205 780 252 780 c 0
 309 780 336 742 328 695 c 0
 325 676 310 649 290 624 c 2
 180 490 l 1
 110 490 l 1
 184 621 l 1
 161 636 148 663 153 695 c 0
EndSplineSet
EndChar

StartChar: quotedblleft
Encoding: 8220 8220 96
Width: 414
VWidth: 0
Flags: HMW
LayerCount: 2
Fore
SplineSet
260 525 m 0
 252 478 208 440 161 440 c 0
 104 440 77 478 85 525 c 0
 88 544 102 571 122 596 c 2
 233 730 l 1
 303 730 l 1
 228 599 l 1
 251 584 265 557 260 525 c 0
460 525 m 0
 452 478 408 440 361 440 c 0
 304 440 277 478 285 525 c 0
 288 544 302 571 322 596 c 2
 433 730 l 1
 503 730 l 1
 428 599 l 1
 451 584 465 557 460 525 c 0
EndSplineSet
EndChar

StartChar: quotedblright
Encoding: 8221 8221 97
Width: 414
VWidth: 0
Flags: HMW
LayerCount: 2
Fore
SplineSet
353 695 m 0
 361 742 405 780 452 780 c 0
 509 780 536 742 528 695 c 0
 525 676 510 649 490 624 c 2
 380 490 l 1
 310 490 l 1
 384 621 l 1
 361 636 348 663 353 695 c 0
153 695 m 0
 161 742 205 780 252 780 c 0
 309 780 336 742 328 695 c 0
 325 676 310 649 290 624 c 2
 180 490 l 1
 110 490 l 1
 184 621 l 1
 161 636 148 663 153 695 c 0
EndSplineSet
EndChar

StartChar: tilde
Encoding: 732 732 98
Width: 500
VWidth: 0
Flags: HMW
AnchorPoint: "dot" 250 610 basechar 0
LayerCount: 2
Fore
SplineSet
238 600 m 5
 150 620 l 1
 167 698 234 747 285 747 c 0
 349 747 377 703 421 703 c 0
 456 703 487 713 491 740 c 1
 577 720 l 1
 558 632 485 593 435 593 c 0
 373 593 349 637 306 637 c 4
 272 637 242 627 238 600 c 5
EndSplineSet
EndChar

StartChar: dotaccent
Encoding: 729 729 99
Width: 500
VWidth: 0
Flags: HMW
AnchorPoint: "dot" 250 590 basechar 0
LayerCount: 2
Fore
SplineSet
272 666 m 0
 280 713 325 752 372 752 c 0
 419 752 452 713 444 666 c 0
 436 619 391 580 344 580 c 0
 297 580 264 619 272 666 c 0
EndSplineSet
EndChar

StartChar: ring
Encoding: 730 730 100
Width: 500
VWidth: 0
Flags: HMW
AnchorPoint: "ring" 250 590 basechar 0
LayerCount: 2
Fore
SplineSet
311 680 m 0
 306 651 324 630 353 630 c 0
 382 630 406 651 411 680 c 0
 416 709 398 730 369 730 c 4
 340 730 316 709 311 680 c 0
261 680 m 0
 270 735 322 780 377 780 c 0
 432 780 470 735 461 680 c 0
 452 625 399 580 344 580 c 0
 289 580 252 625 261 680 c 0
EndSplineSet
EndChar

StartChar: breve
Encoding: 728 728 101
Width: 500
VWidth: 0
Flags: HMW
AnchorPoint: "dot" 244 559 basechar 0
LayerCount: 2
Fore
SplineSet
355 679 m 1
 315 679 292 693 300 741 c 1
 184 735 l 1
 168 636 226 559 335 559 c 1
 355 679 l 1
355 679 m 5
 335 559 l 1
 444 559 528 636 544 735 c 1
 430 741 l 5
 422 693 397 679 355 679 c 5
EndSplineSet
EndChar

StartChar: circumflex
Encoding: 710 710 102
Width: 500
VWidth: 0
Flags: HMW
AnchorPoint: "dot" 250 630 basechar 0
LayerCount: 2
Fore
SplineSet
418 630 m 1
 334 730 l 1
 424 730 l 1
 508 630 l 1
 418 630 l 1
314 730 m 5
 404 730 l 1
 288 630 l 1
 198 630 l 5
 314 730 l 5
EndSplineSet
EndChar

StartChar: caron
Encoding: 711 711 103
Width: 500
VWidth: 0
Flags: HMW
AnchorPoint: "dot" 250 630 basechar 0
LayerCount: 2
Fore
SplineSet
304 730 m 1
 388 630 l 1
 298 630 l 5
 214 730 l 5
 304 730 l 1
408 630 m 1
 318 630 l 1
 434 730 l 1
 524 730 l 1
 408 630 l 1
EndSplineSet
EndChar

StartChar: exclamdown
Encoding: 161 161 104
Width: 190
VWidth: 0
Flags: HMW
LayerCount: 2
Fore
SplineSet
252 445 m 4
 244 398 201 360 154 360 c 4
 107 360 74 398 82 445 c 4
 90 492 134 530 181 530 c 4
 228 530 260 492 252 445 c 4
169 30 m 1
 31 30 l 1
 97 270 l 1
 181 270 l 1
 169 30 l 1
130 -210 m 1
 -8 -210 l 1
 31 30 l 1
 169 30 l 1
 130 -210 l 1
EndSplineSet
EndChar

StartChar: cent
Encoding: 162 162 105
Width: 600
VWidth: 0
Flags: HMW
LayerCount: 2
Fore
SplineSet
222 260 m 0
 208 171 255 105 352 105 c 0
 411 105 468 130 503 170 c 1
 568 92 l 1
 511 28 430 -10 333 -10 c 0
 174 -10 73 111 97 260 c 0
 121 409 262 530 421 530 c 0
 518 530 585 491 622 428 c 1
 532 350 l 1
 511 390 462 415 403 415 c 0
 306 415 236 349 222 260 c 0
393 600 m 5
 453 600 l 1
 342 -80 l 1
 282 -80 l 5
 393 600 l 5
EndSplineSet
EndChar

StartChar: questiondown
Encoding: 191 191 106
Width: 555
VWidth: 0
Flags: HMW
LayerCount: 2
Fore
SplineSet
440 445 m 4
 432 398 389 360 342 360 c 4
 295 360 262 398 270 445 c 4
 278 492 322 530 369 530 c 4
 416 530 448 492 440 445 c 4
247 68 m 0
 187 40 172 12 166 -26 c 1
 39 -36 l 1
 54 59 95 108 179 146 c 0
 242 174 261 189 274 270 c 1
 394 270 l 1
 390 120 322 103 247 68 c 0
166 -26 m 1
 159 -68 190 -105 259 -105 c 0
 332 -105 377 -70 422 -7 c 1
 503 -73 l 1
 447 -159 357 -220 234 -220 c 0
 90 -220 23 -135 39 -36 c 1
 166 -26 l 1
EndSplineSet
EndChar

StartChar: uni0203
Encoding: 515 515 107
Width: 580
VWidth: 0
Flags: HMW
LayerCount: 2
Fore
SplineSet
359 302 m 1
 489 302 l 1
 476 218 l 1
 376 218 l 1
 359 302 l 1
444 330 m 1
 455 395 422 415 356 415 c 1
 370 530 l 1
 513 530 589 454 569 330 c 1
 444 330 l 1
356 415 m 1
 302 415 251 402 207 372 c 1
 143 450 l 1
 208 499 268 530 370 530 c 1
 356 415 l 1
444 330 m 1
 569 330 l 1
 515 0 l 1
 390 0 l 1
 444 330 l 1
183 155 m 1
 177 117 212 95 275 95 c 0
 333 95 410 120 423 200 c 5
 454 180 l 1
 436 71 367 -10 228 -10 c 0
 129 -10 39 41 57 150 c 1
 183 155 l 1
359 302 m 1
 376 218 l 1
 267 218 192 210 183 155 c 1
 57 150 l 1
 79 285 222 302 359 302 c 1
389 642 m 1
 349 642 321 628 313 580 c 1
 199 586 l 1
 215 685 299 762 408 762 c 1
 389 642 l 1
389 642 m 5
 408 762 l 1
 517 762 575 685 559 586 c 1
 443 580 l 5
 451 628 431 642 389 642 c 5
EndSplineSet
EndChar

StartChar: sterling
Encoding: 163 163 108
Width: 600
VWidth: 0
Flags: HMW
LayerCount: 2
Fore
SplineSet
177 45 m 1
 57 -1 l 1
 272 273 140 279 181 530 c 1
 300 520 l 1
 270 336 355 220 177 45 c 1
141 -25 m 1
 57 -1 l 1
 144 77 204 102 275 102 c 0
 339 102 374 68 418 68 c 0
 463 68 485 89 511 126 c 5
 566 70 l 1
 527 -18 459 -32 409 -32 c 0
 327 -32 276 2 233 2 c 0
 189 2 164 -6 141 -25 c 1
110 400 m 1
 408 400 l 1
 389 285 l 1
 91 285 l 1
 110 400 l 1
402 595 m 1
 415 710 l 1
 497 710 559 669 586 610 c 1
 507 527 l 1
 486 566 446 595 402 595 c 1
300 520 m 1
 181 530 l 1
 199 639 282 710 415 710 c 1
 402 595 l 1
 347 595 308 569 300 520 c 1
EndSplineSet
EndChar

StartChar: currency
Encoding: 164 164 109
Width: 600
VWidth: 0
Flags: HMW
LayerCount: 2
Fore
SplineSet
157 209 m 5
 216 138 l 1
 105 42 l 1
 45 113 l 5
 157 209 l 5
424 143 m 1
 506 214 l 1
 590 113 l 1
 509 42 l 1
 424 143 l 1
598 588 m 1
 657 517 l 1
 526 404 l 1
 466 475 l 1
 598 588 l 1
111 517 m 1
 194 588 l 1
 288 475 l 1
 206 404 l 1
 111 517 l 1
239 315 m 0
 228 248 266 199 332 199 c 0
 408 199 452 248 463 315 c 0
 474 382 436 431 370 431 c 0
 304 431 250 382 239 315 c 0
135 315 m 0
 154 434 267 531 386 531 c 0
 505 531 586 434 567 315 c 0
 548 196 435 99 316 99 c 0
 197 99 116 196 135 315 c 0
EndSplineSet
EndChar

StartChar: yen
Encoding: 165 165 110
Width: 600
VWidth: 0
Flags: HMW
LayerCount: 2
Fore
SplineSet
293 295 m 1
 407 295 l 1
 359 0 l 1
 245 0 l 1
 293 295 l 1
126 700 m 1
 249 700 l 1
 407 295 l 1
 316 217 l 1
 126 700 l 1
583 700 m 5
 706 700 l 1
 359 217 l 1
 293 295 l 1
 583 700 l 5
58 171 m 1
 598 171 l 1
 586 97 l 1
 46 97 l 1
 58 171 l 1
83 323 m 5
 623 323 l 5
 611 249 l 1
 71 249 l 1
 83 323 l 5
EndSplineSet
EndChar

StartChar: brokenbar
Encoding: 166 166 111
Width: 300
VWidth: 0
Flags: HMW
LayerCount: 2
Fore
SplineSet
260 460 m 5
 190 460 l 5
 242 780 l 1
 312 780 l 1
 260 460 l 5
231 280 m 1
 172 -80 l 1
 102 -80 l 1
 161 280 l 1
 231 280 l 1
EndSplineSet
EndChar

StartChar: section
Encoding: 167 167 112
Width: 520
VWidth: 0
Flags: HMW
LayerCount: 2
Fore
SplineSet
388 140 m 1
 508 140 l 1
 495 61 412 -10 273 -10 c 0
 164 -10 106 37 62 104 c 1
 140 185 l 1
 178 135 234 105 292 105 c 0
 355 105 384 118 388 140 c 1
330 307 m 0
 444 288 528 260 508 140 c 1
 388 140 l 1
 391 160 388 181 282 196 c 0
 181 211 63 328 227 473 c 1
 307 473 l 1
 191 373 235 323 330 307 c 0
271 558 m 1
 172 563 l 1
 188 659 282 710 391 710 c 0
 500 710 545 670 580 628 c 1
 497 547 l 5
 464 580 420 595 372 595 c 0
 314 595 275 585 271 558 c 1
383 508 m 0
 497 489 620 400 456 250 c 1
 376 250 l 1
 491 340 444 402 338 417 c 0
 237 432 157 468 172 563 c 1
 271 558 l 1
 268 538 288 524 383 508 c 0
EndSplineSet
EndChar

StartChar: dieresis
Encoding: 168 168 113
Width: 500
VWidth: 0
Flags: HMW
AnchorPoint: "dot" 250 590 basechar 0
LayerCount: 2
Fore
SplineSet
162 666 m 0
 170 713 215 752 262 752 c 0
 309 752 342 713 334 666 c 0
 326 619 281 580 234 580 c 0
 187 580 154 619 162 666 c 0
382 666 m 0
 390 713 435 752 482 752 c 0
 529 752 562 713 554 666 c 0
 546 619 501 580 454 580 c 0
 407 580 374 619 382 666 c 0
EndSplineSet
EndChar

StartChar: copyright
Encoding: 169 169 114
Width: 850
VWidth: 0
Flags: HMW
LayerCount: 2
Fore
SplineSet
368 350 m 0
 357 282 394 230 470 230 c 0
 509 230 540 246 569 274 c 1
 604 232 l 1
 565 194 514 170 461 170 c 0
 353 170 287 250 303 350 c 0
 319 450 411 530 519 530 c 0
 572 530 617 506 643 468 c 1
 594 426 l 5
 575 454 549 470 510 470 c 0
 434 470 379 418 368 350 c 0
170 350 m 0
 141 174 259 30 430 30 c 0
 601 30 765 174 794 350 c 0
 823 526 705 670 534 670 c 0
 363 670 199 526 170 350 c 0
127 350 m 0
 159 549 346 710 541 710 c 0
 736 710 869 549 837 350 c 0
 805 151 618 -10 423 -10 c 0
 228 -10 95 151 127 350 c 0
EndSplineSet
EndChar

StartChar: ordfeminine
Encoding: 170 170 115
Width: 535
VWidth: 0
Flags: HMW
LayerCount: 2
Fore
SplineSet
368 540 m 1
 466 540 l 1
 456 476 l 1
 381 476 l 1
 368 540 l 1
432 560 m 1
 440 609 416 624 366 624 c 1
 377 710 l 1
 484 710 541 653 526 560 c 1
 432 560 l 1
366 624 m 1
 326 624 287 614 254 592 c 1
 206 650 l 1
 255 687 301 710 377 710 c 1
 366 624 l 1
432 560 m 1
 526 560 l 1
 485 313 l 1
 391 313 l 1
 432 560 l 1
236 429 m 1
 231 401 259 384 306 384 c 0
 350 384 406 403 416 463 c 5
 440 448 l 1
 427 366 374 306 270 306 c 0
 196 306 129 344 142 426 c 1
 236 429 l 1
368 540 m 1
 381 476 l 1
 299 476 243 470 236 429 c 1
 142 426 l 1
 158 527 265 540 368 540 c 1
134 271 m 5
 467 271 l 5
 453 184 l 1
 120 184 l 1
 134 271 l 5
EndSplineSet
EndChar

StartChar: registered
Encoding: 174 174 116
Width: 850
VWidth: 0
Flags: HMW
LayerCount: 2
Fore
SplineSet
492 354 m 1
 536 354 569 370 575 408 c 0
 581 446 554 465 510 465 c 1
 530 525 l 1
 604 525 651 476 640 408 c 0
 629 341 566 294 492 294 c 1
 492 354 l 1
380 525 m 5
 445 525 l 5
 388 175 l 5
 323 175 l 5
 380 525 l 5
398 525 m 5
 530 525 l 1
 510 465 l 1
 388 465 l 5
 398 525 l 5
370 354 m 5
 492 354 l 1
 492 294 l 1
 360 294 l 5
 370 354 l 5
458 335 m 1
 531 335 l 1
 625 175 l 1
 552 175 l 1
 458 335 l 1
170 350 m 0
 141 174 259 30 430 30 c 0
 601 30 765 174 794 350 c 0
 823 526 705 670 534 670 c 0
 363 670 199 526 170 350 c 0
127 350 m 0
 159 549 346 710 541 710 c 0
 736 710 869 549 837 350 c 0
 805 151 618 -10 423 -10 c 0
 228 -10 95 151 127 350 c 0
EndSplineSet
EndChar

StartChar: ordmasculine
Encoding: 186 186 117
Width: 535
VWidth: 0
Flags: HMW
LayerCount: 2
Fore
SplineSet
116 271 m 5
 502 271 l 5
 488 184 l 1
 102 184 l 1
 116 271 l 5
232 510 m 0
 221 443 256 394 329 394 c 0
 402 394 453 443 464 510 c 0
 475 577 440 626 367 626 c 0
 294 626 243 577 232 510 c 0
138 510 m 0
 156 622 262 712 381 712 c 0
 500 712 576 622 558 510 c 0
 540 398 434 308 315 308 c 0
 196 308 120 398 138 510 c 0
EndSplineSet
EndChar

StartChar: plusminus
Encoding: 177 177 118
Width: 510
VWidth: 0
Flags: HMW
LayerCount: 2
Fore
SplineSet
411 589 m 5
 346 189 l 5
 226 189 l 1
 291 589 l 1
 411 589 l 5
102 440 m 1
 552 440 l 1
 535 338 l 1
 85 338 l 1
 102 440 l 1
57 165 m 5
 507 165 l 5
 488 50 l 1
 38 50 l 1
 57 165 l 5
EndSplineSet
EndChar

StartChar: degree
Encoding: 176 176 119
Width: 400
VWidth: 0
Flags: HMW
LayerCount: 2
Fore
SplineSet
241 680 m 0
 235 641 260 610 299 610 c 0
 338 610 375 641 381 680 c 0
 387 719 361 750 322 750 c 0
 283 750 247 719 241 680 c 0
211 680 m 0
 220 735 272 780 327 780 c 0
 382 780 420 735 411 680 c 0
 402 625 349 580 294 580 c 0
 239 580 202 625 211 680 c 0
EndSplineSet
EndChar

StartChar: mu
Encoding: 181 181 120
Width: 635
VWidth: 0
Flags: HMW
LayerCount: 2
Fore
SplineSet
113 200 m 5
 165 520 l 1
 290 520 l 1
 241 220 l 1
 113 200 l 5
550 0 m 1
 425 0 l 1
 510 520 l 1
 635 520 l 1
 550 0 l 1
241 220 m 1
 230 150 242 105 322 105 c 0
 400 105 449 150 464 240 c 1
 499 240 l 1
 476 101 422 -10 273 -10 c 0
 154 -10 92 71 113 200 c 5
 241 220 l 1
116 220 m 1
 236 220 l 5
 168 -198 l 5
 48 -198 l 1
 116 220 l 1
EndSplineSet
EndChar

StartChar: uni00B2
Encoding: 178 178 121
Width: 300
VWidth: 0
Flags: HMW
LayerCount: 2
Fore
SplineSet
91 408 m 1
 101 408 l 1
 93 356 l 1
 83 356 l 1
 91 408 l 1
301 604 m 1
 305 628 291 653 254 653 c 0
 220 653 194 628 170 586 c 1
 125 617 l 1
 155 670 204 710 263 710 c 0
 333 710 373 664 363 604 c 1
 301 604 l 1
93 356 m 1
 102 413 l 1
 342 413 l 1
 333 356 l 1
 93 356 l 1
277 486 m 6
 175 408 l 5
 91 408 l 1
 227 510 l 2
 284 553 295 568 301 604 c 1
 363 604 l 1
 355 554 337 531 277 486 c 6
EndSplineSet
EndChar

StartChar: uni00B3
Encoding: 179 179 122
Width: 300
VWidth: 0
Flags: HMW
LayerCount: 2
Fore
SplineSet
216 557 m 1
 310 557 361 529 349 454 c 0
 338 384 271 350 207 350 c 0
 162 350 117 362 91 404 c 1
 137 444 l 1
 153 416 182 407 211 407 c 4
 247 407 280 420 286 454 c 0
 292 488 270 510 208 510 c 1
 216 557 l 1
144 656 m 1
 173 685 209 710 266 710 c 0
 333 710 369 670 361 620 c 0
 351 560 297 520 210 520 c 1
 217 568 l 1
 277 568 294 591 298 615 c 0
 302 639 286 652 251 652 c 0
 223 652 202 641 178 617 c 1
 144 656 l 1
EndSplineSet
EndChar

StartChar: grave
Encoding: 96 96 123
Width: 320
VWidth: 0
Flags: HMW
AnchorPoint: "dot" 200 590 basechar 0
LayerCount: 2
Fore
SplineSet
266 590 m 5
 169 730 l 5
 309 730 l 1
 366 590 l 1
 266 590 l 5
EndSplineSet
EndChar

StartChar: acute
Encoding: 180 180 124
Width: 320
VWidth: 0
Flags: HMW
AnchorPoint: "dot" 120 590 basechar 0
LayerCount: 2
Fore
SplineSet
236 590 m 1
 156 590 l 5
 259 730 l 5
 379 730 l 1
 236 590 l 1
EndSplineSet
EndChar

StartChar: uni00AD
Encoding: 173 173 125
Width: 470
VWidth: 0
Flags: HMW
LayerCount: 2
Fore
SplineSet
123 355 m 5
 463 355 l 5
 444 240 l 1
 104 240 l 1
 123 355 l 5
EndSplineSet
EndChar

StartChar: logicalnot
Encoding: 172 172 126
Width: 540
VWidth: 0
Flags: HMW
LayerCount: 2
Fore
SplineSet
139 455 m 5
 479 455 l 5
 460 340 l 1
 120 340 l 1
 139 455 l 5
479 455 m 5
 549 455 l 5
 520 275 l 1
 450 275 l 1
 479 455 l 5
EndSplineSet
EndChar

StartChar: macron
Encoding: 175 175 127
Width: 300
VWidth: 0
Flags: HMW
LayerCount: 2
Fore
SplineSet
128 800 m 1
 432 800 l 5
 419 720 l 5
 115 720 l 1
 128 800 l 1
EndSplineSet
EndChar

StartChar: periodcentered
Encoding: 183 183 128
Width: 190
VWidth: 0
Flags: HMW
LayerCount: 2
Fore
SplineSet
83 325 m 4
 91 372 135 410 182 410 c 4
 229 410 261 372 253 325 c 4
 245 278 201 240 154 240 c 4
 107 240 75 278 83 325 c 4
EndSplineSet
EndChar

StartChar: uni00B9
Encoding: 185 185 129
Width: 600
VWidth: 0
Flags: HMW
LayerCount: 2
Fore
SplineSet
453 700 m 1
 451 688 l 1
 391 688 l 1
 393 700 l 1
 453 700 l 1
393 700 m 1
 426 653 l 5
 298 573 l 5
 275 620 l 1
 393 700 l 1
387 695 m 1
 453 700 l 1
 396 350 l 1
 331 350 l 1
 387 695 l 1
EndSplineSet
EndChar

StartChar: paragraph
Encoding: 182 182 130
Width: 600
VWidth: 0
Flags: HMW
LayerCount: 2
Fore
SplineSet
559 700 m 1
 552 656 l 1
 460 656 l 1
 467 700 l 1
 559 700 l 1
639 700 m 1
 525 0 l 1
 445 0 l 1
 559 700 l 1
 639 700 l 1
489 700 m 1
 375 0 l 1
 295 0 l 1
 409 700 l 1
 489 700 l 1
337 260 m 1
 238 260 132 351 153 480 c 0
 174 609 310 700 409 700 c 1
 380 520 366 440 337 260 c 1
EndSplineSet
EndChar

StartChar: cedilla
Encoding: 184 184 131
Width: 320
VWidth: 0
Flags: HMW
AnchorPoint: "ced" 146 -1 basechar 0
LayerCount: 2
Fore
SplineSet
89 30 m 1
 129 30 l 1
 173 -4 242 -44 231 -112 c 0
 222 -169 194 -204 117 -204 c 4
 70 -204 46 -180 27 -165 c 1
 61 -95 l 1
 75 -108 93 -120 113 -120 c 0
 139 -120 151 -109 154 -89 c 0
 158 -64 130 -9 89 30 c 1
EndSplineSet
EndChar

StartChar: guillemotleft
Encoding: 171 171 132
Width: 592
VWidth: 0
Flags: HMW
LayerCount: 2
Fore
SplineSet
98 415 m 5
 349 225 l 5
 330 110 l 5
 79 300 l 5
 98 415 l 5
98 415 m 5
 411 605 l 5
 392 490 l 5
 79 300 l 5
 98 415 l 5
348 415 m 5
 599 225 l 5
 580 110 l 5
 329 300 l 5
 348 415 l 5
348 415 m 5
 661 605 l 5
 642 490 l 5
 329 300 l 5
 348 415 l 5
EndSplineSet
EndChar

StartChar: guillemotright
Encoding: 187 187 133
Width: 592
VWidth: 0
Flags: HMW
LayerCount: 2
Fore
SplineSet
611 300 m 5
 360 490 l 5
 379 605 l 5
 630 415 l 5
 611 300 l 5
611 300 m 5
 298 110 l 5
 317 225 l 5
 630 415 l 5
 611 300 l 5
361 300 m 5
 110 490 l 5
 129 605 l 5
 380 415 l 5
 361 300 l 5
361 300 m 5
 48 110 l 5
 67 225 l 5
 380 415 l 5
 361 300 l 5
EndSplineSet
EndChar

StartChar: Agrave
Encoding: 192 192 134
Width: 800
VWidth: 0
Flags: HMW
LayerCount: 2
Fore
SplineSet
454 700 m 1
 574 700 l 1
 562 690 l 1
 452 690 l 1
 454 700 l 1
228 270 m 1
 640 270 l 1
 621 155 l 1
 209 155 l 1
 228 270 l 1
640 0 m 5
 462 690 l 1
 574 700 l 1
 780 0 l 1
 640 0 l 5
454 700 m 1
 562 690 l 1
 160 0 l 1
 20 0 l 1
 454 700 l 1
453 770 m 5
 356 910 l 5
 496 910 l 1
 553 770 l 1
 453 770 l 5
EndSplineSet
EndChar

StartChar: Aacute
Encoding: 193 193 135
Width: 800
VWidth: 0
Flags: HMW
LayerCount: 2
Fore
SplineSet
454 700 m 1
 574 700 l 1
 562 690 l 1
 452 690 l 1
 454 700 l 1
228 270 m 1
 640 270 l 1
 621 155 l 1
 209 155 l 1
 228 270 l 1
640 0 m 5
 462 690 l 1
 574 700 l 1
 780 0 l 1
 640 0 l 5
454 700 m 1
 562 690 l 1
 160 0 l 1
 20 0 l 1
 454 700 l 1
543 770 m 1
 463 770 l 5
 566 910 l 5
 686 910 l 1
 543 770 l 1
EndSplineSet
EndChar

StartChar: Acircumflex
Encoding: 194 194 136
Width: 800
VWidth: 0
Flags: HMW
LayerCount: 2
Fore
SplineSet
454 700 m 1
 574 700 l 1
 562 690 l 1
 452 690 l 1
 454 700 l 1
228 270 m 1
 640 270 l 1
 621 155 l 1
 209 155 l 1
 228 270 l 1
640 0 m 5
 462 690 l 1
 574 700 l 1
 780 0 l 1
 640 0 l 5
454 700 m 1
 562 690 l 1
 160 0 l 1
 20 0 l 1
 454 700 l 1
588 770 m 1
 504 870 l 1
 594 870 l 1
 678 770 l 1
 588 770 l 1
484 870 m 5
 574 870 l 1
 458 770 l 1
 368 770 l 5
 484 870 l 5
EndSplineSet
EndChar

StartChar: Atilde
Encoding: 195 195 137
Width: 800
VWidth: 0
Flags: HMW
LayerCount: 2
Fore
SplineSet
454 700 m 1
 574 700 l 1
 562 690 l 1
 452 690 l 1
 454 700 l 1
228 270 m 1
 640 270 l 1
 621 155 l 1
 209 155 l 1
 228 270 l 1
640 0 m 5
 462 690 l 1
 574 700 l 1
 780 0 l 1
 640 0 l 5
454 700 m 1
 562 690 l 1
 160 0 l 1
 20 0 l 1
 454 700 l 1
393 770 m 5
 305 790 l 1
 322 868 389 917 440 917 c 0
 504 917 532 873 576 873 c 0
 611 873 642 883 646 910 c 1
 732 890 l 1
 713 802 641 763 591 763 c 0
 529 763 504 807 461 807 c 4
 427 807 397 797 393 770 c 5
EndSplineSet
EndChar

StartChar: Adieresis
Encoding: 196 196 138
Width: 800
VWidth: 0
Flags: HMW
LayerCount: 2
Fore
SplineSet
454 700 m 1
 574 700 l 1
 562 690 l 1
 452 690 l 1
 454 700 l 1
228 270 m 1
 640 270 l 1
 621 155 l 1
 209 155 l 1
 228 270 l 1
640 0 m 5
 462 690 l 1
 574 700 l 1
 780 0 l 1
 640 0 l 5
454 700 m 1
 562 690 l 1
 160 0 l 1
 20 0 l 1
 454 700 l 1
341 856 m 0
 349 903 394 942 441 942 c 0
 488 942 521 903 513 856 c 0
 505 809 460 770 413 770 c 0
 366 770 333 809 341 856 c 0
561 856 m 0
 569 903 614 942 661 942 c 0
 708 942 741 903 733 856 c 0
 725 809 680 770 633 770 c 0
 586 770 553 809 561 856 c 0
EndSplineSet
EndChar

StartChar: Aring
Encoding: 197 197 139
Width: 800
VWidth: 0
Flags: HMW
LayerCount: 2
Fore
SplineSet
454 700 m 1
 574 700 l 1
 562 690 l 1
 452 690 l 1
 454 700 l 1
228 270 m 1
 640 270 l 1
 621 155 l 1
 209 155 l 1
 228 270 l 1
640 0 m 5
 462 690 l 1
 574 700 l 1
 780 0 l 1
 640 0 l 5
454 700 m 1
 562 690 l 1
 160 0 l 1
 20 0 l 1
 454 700 l 1
471 760 m 0
 466 731 484 710 513 710 c 0
 542 710 566 731 571 760 c 0
 576 789 558 810 529 810 c 4
 500 810 476 789 471 760 c 0
421 760 m 0
 430 815 483 860 538 860 c 0
 593 860 630 815 621 760 c 0
 612 705 560 660 505 660 c 0
 450 660 412 705 421 760 c 0
EndSplineSet
EndChar

StartChar: Ccedilla
Encoding: 199 199 140
Width: 732
VWidth: 0
Flags: HM
LayerCount: 2
Fore
SplineSet
237 350 m 0
 215 214 292 110 443 110 c 0
 521 110 582 142 639 198 c 1
 710 113 l 1
 633 38 529 -10 423 -10 c 0
 208 -10 75 151 107 350 c 0
 139 549 326 710 541 710 c 0
 647 710 735 662 788 587 c 1
 690 503 l 5
 651 559 599 590 521 590 c 0
 370 590 259 486 237 350 c 0
405 -3 m 1
 445 -3 l 1
 489 -37 557 -77 546 -145 c 0
 537 -202 509 -237 432 -237 c 4
 385 -237 362 -213 343 -198 c 1
 376 -128 l 1
 390 -141 409 -153 429 -153 c 0
 455 -153 466 -142 469 -122 c 0
 473 -97 446 -42 405 -3 c 1
EndSplineSet
EndChar

StartChar: Egrave
Encoding: 200 200 141
Width: 670
VWidth: 0
Flags: HM
LayerCount: 2
Fore
SplineSet
148 418 m 5
 628 418 l 1
 609 298 l 1
 129 298 l 5
 148 418 l 5
194 700 m 5
 724 700 l 1
 704 580 l 1
 174 580 l 5
 194 700 l 5
100 120 m 5
 630 120 l 1
 610 0 l 1
 80 0 l 5
 100 120 l 5
194 700 m 5
 324 700 l 5
 210 0 l 5
 80 0 l 5
 194 700 l 5
430 770 m 5
 333 910 l 5
 473 910 l 1
 530 770 l 1
 430 770 l 5
EndSplineSet
EndChar

StartChar: Eacute
Encoding: 201 201 142
Width: 670
VWidth: 0
Flags: HM
LayerCount: 2
Fore
SplineSet
148 418 m 5
 628 418 l 1
 609 298 l 1
 129 298 l 5
 148 418 l 5
194 700 m 5
 724 700 l 1
 704 580 l 1
 174 580 l 5
 194 700 l 5
100 120 m 5
 630 120 l 1
 610 0 l 1
 80 0 l 5
 100 120 l 5
194 700 m 5
 324 700 l 5
 210 0 l 5
 80 0 l 5
 194 700 l 5
520 770 m 1
 440 770 l 5
 543 910 l 5
 663 910 l 1
 520 770 l 1
EndSplineSet
EndChar

StartChar: Ecircumflex
Encoding: 202 202 143
Width: 670
VWidth: 0
Flags: HM
LayerCount: 2
Fore
SplineSet
148 418 m 5
 628 418 l 1
 609 298 l 1
 129 298 l 5
 148 418 l 5
194 700 m 5
 724 700 l 1
 704 580 l 1
 174 580 l 5
 194 700 l 5
100 120 m 5
 630 120 l 1
 610 0 l 1
 80 0 l 5
 100 120 l 5
194 700 m 5
 324 700 l 5
 210 0 l 5
 80 0 l 5
 194 700 l 5
545 770 m 1
 462 870 l 1
 552 870 l 1
 635 770 l 1
 545 770 l 1
442 870 m 5
 532 870 l 1
 415 770 l 1
 325 770 l 5
 442 870 l 5
EndSplineSet
EndChar

StartChar: Edieresis
Encoding: 203 203 144
Width: 670
VWidth: 0
Flags: HM
LayerCount: 2
Fore
SplineSet
148 418 m 5
 628 418 l 1
 609 298 l 1
 129 298 l 5
 148 418 l 5
194 700 m 5
 724 700 l 1
 704 580 l 1
 174 580 l 5
 194 700 l 5
100 120 m 5
 630 120 l 1
 610 0 l 1
 80 0 l 5
 100 120 l 5
194 700 m 5
 324 700 l 5
 210 0 l 5
 80 0 l 5
 194 700 l 5
298 856 m 0
 306 903 351 942 398 942 c 0
 445 942 478 903 470 856 c 0
 462 809 417 770 370 770 c 0
 323 770 290 809 298 856 c 0
518 856 m 0
 526 903 571 942 618 942 c 0
 665 942 698 903 690 856 c 0
 682 809 637 770 590 770 c 0
 543 770 510 809 518 856 c 0
EndSplineSet
EndChar

StartChar: Igrave
Encoding: 204 204 145
Width: 300
VWidth: 0
Flags: HMW
LayerCount: 2
Fore
SplineSet
199 700 m 1
 329 700 l 1
 215 0 l 1
 85 0 l 1
 199 700 l 1
203 770 m 5
 106 910 l 5
 246 910 l 1
 303 770 l 1
 203 770 l 5
EndSplineSet
EndChar

StartChar: Iacute
Encoding: 205 205 146
Width: 300
VWidth: 0
Flags: HMW
LayerCount: 2
Fore
SplineSet
199 700 m 1
 329 700 l 1
 215 0 l 1
 85 0 l 1
 199 700 l 1
293 770 m 1
 213 770 l 5
 316 910 l 5
 436 910 l 1
 293 770 l 1
EndSplineSet
EndChar

StartChar: Icircumflex
Encoding: 206 206 147
Width: 300
VWidth: 0
Flags: HMW
LayerCount: 2
Fore
SplineSet
199 700 m 1
 329 700 l 1
 215 0 l 1
 85 0 l 1
 199 700 l 1
318 770 m 1
 234 870 l 1
 324 870 l 1
 408 770 l 1
 318 770 l 1
214 870 m 5
 304 870 l 1
 188 770 l 1
 98 770 l 5
 214 870 l 5
EndSplineSet
EndChar

StartChar: Idieresis
Encoding: 207 207 148
Width: 300
VWidth: 0
Flags: HMW
LayerCount: 2
Fore
SplineSet
199 700 m 1
 329 700 l 1
 215 0 l 1
 85 0 l 1
 199 700 l 1
71 856 m 0
 79 903 124 942 171 942 c 0
 218 942 251 903 243 856 c 0
 235 809 190 770 143 770 c 0
 96 770 63 809 71 856 c 0
291 856 m 0
 299 903 344 942 391 942 c 0
 438 942 471 903 463 856 c 0
 455 809 410 770 363 770 c 0
 316 770 283 809 291 856 c 0
EndSplineSet
EndChar

StartChar: Ntilde
Encoding: 209 209 149
Width: 790
VWidth: 0
Flags: HMW
LayerCount: 2
Fore
SplineSet
710 0 m 1
 590 0 l 1
 594 24 l 1
 712 14 l 1
 710 0 l 1
314 700 m 1
 311 680 l 1
 191 680 l 1
 194 700 l 1
 314 700 l 1
187 655 m 5
 314 700 l 1
 717 45 l 1
 590 0 l 1
 187 655 l 5
694 700 m 1
 824 700 l 1
 710 0 l 1
 583 20 l 1
 694 700 l 1
194 700 m 1
 321 680 l 1
 210 0 l 1
 80 0 l 1
 194 700 l 1
385 770 m 5
 298 790 l 1
 315 868 382 917 433 917 c 0
 497 917 525 873 569 873 c 0
 604 873 634 883 638 910 c 1
 725 890 l 1
 706 802 633 763 583 763 c 0
 521 763 497 807 454 807 c 4
 420 807 389 797 385 770 c 5
EndSplineSet
EndChar

StartChar: Ograve
Encoding: 210 210 150
Width: 850
VWidth: 0
Flags: HM
LayerCount: 2
Fore
SplineSet
247 350 m 4
 225 214 302 110 443 110 c 4
 584 110 695 214 717 350 c 4
 739 486 662 590 521 590 c 4
 380 590 269 486 247 350 c 4
117 350 m 4
 149 549 336 710 541 710 c 4
 746 710 879 549 847 350 c 4
 815 151 628 -10 423 -10 c 4
 218 -10 85 151 117 350 c 4
500 770 m 5
 403 910 l 5
 543 910 l 1
 600 770 l 1
 500 770 l 5
EndSplineSet
EndChar

StartChar: Oacute
Encoding: 211 211 151
Width: 850
VWidth: 0
Flags: HM
LayerCount: 2
Fore
SplineSet
247 350 m 4
 225 214 302 110 443 110 c 4
 584 110 695 214 717 350 c 4
 739 486 662 590 521 590 c 4
 380 590 269 486 247 350 c 4
117 350 m 4
 149 549 336 710 541 710 c 4
 746 710 879 549 847 350 c 4
 815 151 628 -10 423 -10 c 4
 218 -10 85 151 117 350 c 4
590 770 m 1
 510 770 l 5
 613 910 l 5
 733 910 l 1
 590 770 l 1
EndSplineSet
EndChar

StartChar: Ocircumflex
Encoding: 212 212 152
Width: 850
VWidth: 0
Flags: HM
LayerCount: 2
Fore
SplineSet
247 350 m 4
 225 214 302 110 443 110 c 4
 584 110 695 214 717 350 c 4
 739 486 662 590 521 590 c 4
 380 590 269 486 247 350 c 4
117 350 m 4
 149 549 336 710 541 710 c 4
 746 710 879 549 847 350 c 4
 815 151 628 -10 423 -10 c 4
 218 -10 85 151 117 350 c 4
615 770 m 1
 532 870 l 1
 622 870 l 1
 705 770 l 1
 615 770 l 1
512 870 m 5
 602 870 l 1
 485 770 l 1
 395 770 l 5
 512 870 l 5
EndSplineSet
EndChar

StartChar: Otilde
Encoding: 213 213 153
Width: 850
VWidth: 0
Flags: HM
LayerCount: 2
Fore
SplineSet
247 350 m 4
 225 214 302 110 443 110 c 4
 584 110 695 214 717 350 c 4
 739 486 662 590 521 590 c 4
 380 590 269 486 247 350 c 4
117 350 m 4
 149 549 336 710 541 710 c 4
 746 710 879 549 847 350 c 4
 815 151 628 -10 423 -10 c 4
 218 -10 85 151 117 350 c 4
440 770 m 5
 353 790 l 1
 370 868 437 917 488 917 c 0
 552 917 580 873 624 873 c 0
 659 873 689 883 693 910 c 1
 780 890 l 1
 761 802 688 763 638 763 c 0
 576 763 552 807 509 807 c 4
 475 807 444 797 440 770 c 5
EndSplineSet
EndChar

StartChar: Odieresis
Encoding: 214 214 154
Width: 850
VWidth: 0
Flags: HM
LayerCount: 2
Fore
SplineSet
247 350 m 4
 225 214 302 110 443 110 c 4
 584 110 695 214 717 350 c 4
 739 486 662 590 521 590 c 4
 380 590 269 486 247 350 c 4
117 350 m 4
 149 549 336 710 541 710 c 4
 746 710 879 549 847 350 c 4
 815 151 628 -10 423 -10 c 4
 218 -10 85 151 117 350 c 4
368 856 m 0
 376 903 421 942 468 942 c 0
 515 942 548 903 540 856 c 0
 532 809 487 770 440 770 c 0
 393 770 360 809 368 856 c 0
588 856 m 0
 596 903 641 942 688 942 c 0
 735 942 768 903 760 856 c 0
 752 809 707 770 660 770 c 0
 613 770 580 809 588 856 c 0
EndSplineSet
EndChar

StartChar: Ugrave
Encoding: 217 217 155
Width: 760
VWidth: 0
Flags: HMW
LayerCount: 2
Fore
SplineSet
612 290 m 1
 679 700 l 1
 804 700 l 1
 736 280 l 1
 612 290 l 1
116 280 m 1
 184 700 l 1
 309 700 l 1
 242 290 l 1
 116 280 l 1
612 290 m 1
 736 280 l 1
 708 111 557 -10 378 -10 c 0
 199 -10 88 111 116 280 c 1
 242 290 l 1
 224 181 292 115 399 115 c 4
 506 115 594 181 612 290 c 1
435 770 m 5
 338 910 l 5
 478 910 l 1
 535 770 l 1
 435 770 l 5
EndSplineSet
EndChar

StartChar: Uacute
Encoding: 218 218 156
Width: 760
VWidth: 0
Flags: HMW
LayerCount: 2
Fore
SplineSet
612 290 m 1
 679 700 l 1
 804 700 l 1
 736 280 l 1
 612 290 l 1
116 280 m 1
 184 700 l 1
 309 700 l 1
 242 290 l 1
 116 280 l 1
612 290 m 1
 736 280 l 1
 708 111 557 -10 378 -10 c 0
 199 -10 88 111 116 280 c 1
 242 290 l 1
 224 181 292 115 399 115 c 4
 506 115 594 181 612 290 c 1
525 770 m 1
 445 770 l 5
 548 910 l 5
 668 910 l 1
 525 770 l 1
EndSplineSet
EndChar

StartChar: Ucircumflex
Encoding: 219 219 157
Width: 760
VWidth: 0
Flags: HMW
LayerCount: 2
Fore
SplineSet
612 290 m 1
 679 700 l 1
 804 700 l 1
 736 280 l 1
 612 290 l 1
116 280 m 1
 184 700 l 1
 309 700 l 1
 242 290 l 1
 116 280 l 1
612 290 m 1
 736 280 l 1
 708 111 557 -10 378 -10 c 0
 199 -10 88 111 116 280 c 1
 242 290 l 1
 224 181 292 115 399 115 c 4
 506 115 594 181 612 290 c 1
550 770 m 1
 467 870 l 1
 557 870 l 1
 640 770 l 1
 550 770 l 1
447 870 m 5
 537 870 l 1
 420 770 l 1
 330 770 l 5
 447 870 l 5
EndSplineSet
EndChar

StartChar: Udieresis
Encoding: 220 220 158
Width: 760
VWidth: 0
Flags: HMW
LayerCount: 2
Fore
SplineSet
612 290 m 1
 679 700 l 1
 804 700 l 1
 736 280 l 1
 612 290 l 1
116 280 m 1
 184 700 l 1
 309 700 l 1
 242 290 l 1
 116 280 l 1
612 290 m 1
 736 280 l 1
 708 111 557 -10 378 -10 c 0
 199 -10 88 111 116 280 c 1
 242 290 l 1
 224 181 292 115 399 115 c 4
 506 115 594 181 612 290 c 1
303 856 m 0
 311 903 356 942 403 942 c 0
 450 942 483 903 475 856 c 0
 467 809 422 770 375 770 c 0
 328 770 295 809 303 856 c 0
523 856 m 0
 531 903 576 942 623 942 c 0
 670 942 703 903 695 856 c 0
 687 809 642 770 595 770 c 0
 548 770 515 809 523 856 c 0
EndSplineSet
EndChar

StartChar: Yacute
Encoding: 221 221 159
Width: 680
VWidth: 0
Flags: HMW
LayerCount: 2
Fore
SplineSet
323 295 m 1
 453 295 l 1
 405 0 l 1
 275 0 l 1
 323 295 l 1
124 700 m 1
 264 700 l 1
 453 295 l 1
 350 217 l 1
 124 700 l 1
644 700 m 5
 784 700 l 1
 400 217 l 1
 323 295 l 1
 644 700 l 5
483 770 m 1
 403 770 l 5
 506 910 l 5
 626 910 l 1
 483 770 l 1
EndSplineSet
EndChar

StartChar: agrave
Encoding: 224 224 160
Width: 580
VWidth: 0
Flags: HMW
LayerCount: 2
Fore
SplineSet
359 302 m 1
 489 302 l 1
 476 218 l 1
 376 218 l 1
 359 302 l 1
444 330 m 1
 455 395 422 415 356 415 c 1
 370 530 l 1
 513 530 589 454 569 330 c 1
 444 330 l 1
356 415 m 1
 302 415 251 402 207 372 c 1
 143 450 l 1
 208 499 268 530 370 530 c 1
 356 415 l 1
444 330 m 1
 569 330 l 1
 515 0 l 1
 390 0 l 1
 444 330 l 1
183 155 m 1
 177 117 212 95 275 95 c 0
 333 95 410 120 423 200 c 5
 454 180 l 1
 436 71 367 -10 228 -10 c 0
 129 -10 39 41 57 150 c 1
 183 155 l 1
359 302 m 1
 376 218 l 1
 267 218 192 210 183 155 c 1
 57 150 l 1
 79 285 222 302 359 302 c 1
330 590 m 5
 233 730 l 5
 373 730 l 1
 430 590 l 1
 330 590 l 5
EndSplineSet
EndChar

StartChar: aacute
Encoding: 225 225 161
Width: 580
VWidth: 0
Flags: HMW
LayerCount: 2
Fore
SplineSet
359 302 m 1
 489 302 l 1
 476 218 l 1
 376 218 l 1
 359 302 l 1
444 330 m 1
 455 395 422 415 356 415 c 1
 370 530 l 1
 513 530 589 454 569 330 c 1
 444 330 l 1
356 415 m 1
 302 415 251 402 207 372 c 1
 143 450 l 1
 208 499 268 530 370 530 c 1
 356 415 l 1
444 330 m 1
 569 330 l 1
 515 0 l 1
 390 0 l 1
 444 330 l 1
183 155 m 1
 177 117 212 95 275 95 c 0
 333 95 410 120 423 200 c 5
 454 180 l 1
 436 71 367 -10 228 -10 c 0
 129 -10 39 41 57 150 c 1
 183 155 l 1
359 302 m 1
 376 218 l 1
 267 218 192 210 183 155 c 1
 57 150 l 1
 79 285 222 302 359 302 c 1
420 590 m 1
 340 590 l 5
 443 730 l 5
 563 730 l 1
 420 590 l 1
EndSplineSet
EndChar

StartChar: acircumflex
Encoding: 226 226 162
Width: 580
VWidth: 0
Flags: HMW
LayerCount: 2
Fore
SplineSet
359 302 m 1
 489 302 l 1
 476 218 l 1
 376 218 l 1
 359 302 l 1
444 330 m 1
 455 395 422 415 356 415 c 1
 370 530 l 1
 513 530 589 454 569 330 c 1
 444 330 l 1
356 415 m 1
 302 415 251 402 207 372 c 1
 143 450 l 1
 208 499 268 530 370 530 c 1
 356 415 l 1
444 330 m 1
 569 330 l 1
 515 0 l 1
 390 0 l 1
 444 330 l 1
183 155 m 1
 177 117 212 95 275 95 c 0
 333 95 410 120 423 200 c 5
 454 180 l 1
 436 71 367 -10 228 -10 c 0
 129 -10 39 41 57 150 c 1
 183 155 l 1
359 302 m 1
 376 218 l 1
 267 218 192 210 183 155 c 1
 57 150 l 1
 79 285 222 302 359 302 c 1
445 590 m 1
 361 690 l 1
 451 690 l 1
 535 590 l 1
 445 590 l 1
341 690 m 5
 431 690 l 1
 315 590 l 1
 225 590 l 5
 341 690 l 5
EndSplineSet
EndChar

StartChar: atilde
Encoding: 227 227 163
Width: 580
VWidth: 0
Flags: HMW
LayerCount: 2
Fore
SplineSet
359 302 m 1
 489 302 l 1
 476 218 l 1
 376 218 l 1
 359 302 l 1
444 330 m 1
 455 395 422 415 356 415 c 1
 370 530 l 1
 513 530 589 454 569 330 c 1
 444 330 l 1
356 415 m 1
 302 415 251 402 207 372 c 1
 143 450 l 1
 208 499 268 530 370 530 c 1
 356 415 l 1
444 330 m 1
 569 330 l 1
 515 0 l 1
 390 0 l 1
 444 330 l 1
183 155 m 1
 177 117 212 95 275 95 c 0
 333 95 410 120 423 200 c 5
 454 180 l 1
 436 71 367 -10 228 -10 c 0
 129 -10 39 41 57 150 c 1
 183 155 l 1
359 302 m 1
 376 218 l 1
 267 218 192 210 183 155 c 1
 57 150 l 1
 79 285 222 302 359 302 c 1
270 590 m 5
 182 610 l 1
 199 688 266 737 317 737 c 0
 381 737 409 693 453 693 c 0
 488 693 519 703 523 730 c 1
 610 710 l 1
 591 622 518 583 468 583 c 0
 406 583 381 627 338 627 c 4
 304 627 274 617 270 590 c 5
EndSplineSet
EndChar

StartChar: adieresis
Encoding: 228 228 164
Width: 580
VWidth: 0
Flags: HMW
LayerCount: 2
Fore
SplineSet
359 302 m 1
 489 302 l 1
 476 218 l 1
 376 218 l 1
 359 302 l 1
444 330 m 1
 455 395 422 415 356 415 c 1
 370 530 l 1
 513 530 589 454 569 330 c 1
 444 330 l 1
356 415 m 1
 302 415 251 402 207 372 c 1
 143 450 l 1
 208 499 268 530 370 530 c 1
 356 415 l 1
444 330 m 1
 569 330 l 1
 515 0 l 1
 390 0 l 1
 444 330 l 1
183 155 m 1
 177 117 212 95 275 95 c 0
 333 95 410 120 423 200 c 5
 454 180 l 1
 436 71 367 -10 228 -10 c 0
 129 -10 39 41 57 150 c 1
 183 155 l 1
359 302 m 1
 376 218 l 1
 267 218 192 210 183 155 c 1
 57 150 l 1
 79 285 222 302 359 302 c 1
198 676 m 0
 206 723 251 762 298 762 c 0
 345 762 378 723 370 676 c 0
 362 629 317 590 270 590 c 0
 223 590 190 629 198 676 c 0
418 676 m 0
 426 723 471 762 518 762 c 0
 565 762 598 723 590 676 c 0
 582 629 537 590 490 590 c 0
 443 590 410 629 418 676 c 0
EndSplineSet
EndChar

StartChar: aring
Encoding: 229 229 165
Width: 580
VWidth: 0
Flags: HMW
LayerCount: 2
Fore
SplineSet
359 302 m 1
 489 302 l 1
 476 218 l 1
 376 218 l 1
 359 302 l 1
444 330 m 1
 455 395 422 415 356 415 c 1
 370 530 l 1
 513 530 589 454 569 330 c 1
 444 330 l 1
356 415 m 1
 302 415 251 402 207 372 c 1
 143 450 l 1
 208 499 268 530 370 530 c 1
 356 415 l 1
444 330 m 1
 569 330 l 1
 515 0 l 1
 390 0 l 1
 444 330 l 1
183 155 m 1
 177 117 212 95 275 95 c 0
 333 95 410 120 423 200 c 5
 454 180 l 1
 436 71 367 -10 228 -10 c 0
 129 -10 39 41 57 150 c 1
 183 155 l 1
359 302 m 1
 376 218 l 1
 267 218 192 210 183 155 c 1
 57 150 l 1
 79 285 222 302 359 302 c 1
346 690 m 0
 341 661 359 640 388 640 c 0
 417 640 441 661 446 690 c 0
 451 719 434 740 405 740 c 4
 376 740 351 719 346 690 c 0
296 690 m 0
 305 745 358 790 413 790 c 0
 468 790 505 745 496 690 c 0
 487 635 435 590 380 590 c 0
 325 590 287 635 296 690 c 0
EndSplineSet
EndChar

StartChar: ccedilla
Encoding: 231 231 166
Width: 573
VWidth: 0
Flags: HM
LayerCount: 2
Fore
SplineSet
212 260 m 0
 198 171 245 105 342 105 c 0
 401 105 458 130 493 170 c 1
 558 92 l 1
 501 28 420 -10 323 -10 c 0
 164 -10 63 111 87 260 c 0
 111 409 252 530 411 530 c 0
 508 530 575 491 612 428 c 1
 522 350 l 1
 501 390 452 415 393 415 c 0
 296 415 226 349 212 260 c 0
305 -3 m 1
 345 -3 l 1
 389 -37 457 -77 446 -145 c 0
 437 -202 409 -237 332 -237 c 4
 285 -237 262 -213 243 -198 c 1
 276 -128 l 1
 290 -141 309 -153 329 -153 c 0
 355 -153 366 -142 369 -122 c 0
 373 -97 346 -42 305 -3 c 1
EndSplineSet
EndChar

StartChar: egrave
Encoding: 232 232 167
Width: 615
VWidth: 0
Flags: HMW
LayerCount: 2
Fore
SplineSet
617 260 m 1
 612 230 l 1
 487 230 l 1
 492 260 l 1
 617 260 l 1
487 230 m 1
 161 230 l 1
 176 317 l 1
 502 317 l 1
 487 230 l 1
492 260 m 1
 508 359 485 415 388 415 c 4
 291 415 228 359 212 260 c 1
 87 260 l 1
 113 419 257 530 406 530 c 4
 555 530 643 419 617 260 c 1
 492 260 l 1
87 260 m 1
 212 260 l 1
 196 161 240 105 329 105 c 0
 393 105 450 118 495 167 c 1
 563 92 l 1
 506 28 415 -10 318 -10 c 4
 159 -10 61 101 87 260 c 1
351 590 m 5
 254 730 l 5
 394 730 l 1
 451 590 l 1
 351 590 l 5
EndSplineSet
EndChar

StartChar: eacute
Encoding: 233 233 168
Width: 615
VWidth: 0
Flags: HMW
LayerCount: 2
Fore
SplineSet
617 260 m 1
 612 230 l 1
 487 230 l 1
 492 260 l 1
 617 260 l 1
487 230 m 1
 161 230 l 1
 176 317 l 1
 502 317 l 1
 487 230 l 1
492 260 m 1
 508 359 485 415 388 415 c 4
 291 415 228 359 212 260 c 1
 87 260 l 1
 113 419 257 530 406 530 c 4
 555 530 643 419 617 260 c 1
 492 260 l 1
87 260 m 1
 212 260 l 1
 196 161 240 105 329 105 c 0
 393 105 450 118 495 167 c 1
 563 92 l 1
 506 28 415 -10 318 -10 c 4
 159 -10 61 101 87 260 c 1
441 590 m 1
 361 590 l 5
 464 730 l 5
 584 730 l 1
 441 590 l 1
EndSplineSet
EndChar

StartChar: ecircumflex
Encoding: 234 234 169
Width: 615
VWidth: 0
Flags: HMW
LayerCount: 2
Fore
SplineSet
617 260 m 1
 612 230 l 1
 487 230 l 1
 492 260 l 1
 617 260 l 1
487 230 m 1
 161 230 l 1
 176 317 l 1
 502 317 l 1
 487 230 l 1
492 260 m 1
 508 359 485 415 388 415 c 4
 291 415 228 359 212 260 c 1
 87 260 l 1
 113 419 257 530 406 530 c 4
 555 530 643 419 617 260 c 1
 492 260 l 1
87 260 m 1
 212 260 l 1
 196 161 240 105 329 105 c 0
 393 105 450 118 495 167 c 1
 563 92 l 1
 506 28 415 -10 318 -10 c 4
 159 -10 61 101 87 260 c 1
466 590 m 1
 382 690 l 1
 472 690 l 1
 556 590 l 1
 466 590 l 1
362 690 m 5
 452 690 l 1
 336 590 l 1
 246 590 l 5
 362 690 l 5
EndSplineSet
EndChar

StartChar: edieresis
Encoding: 235 235 170
Width: 615
VWidth: 0
Flags: HMW
LayerCount: 2
Fore
SplineSet
617 260 m 1
 612 230 l 1
 487 230 l 1
 492 260 l 1
 617 260 l 1
487 230 m 1
 161 230 l 1
 176 317 l 1
 502 317 l 1
 487 230 l 1
492 260 m 1
 508 359 485 415 388 415 c 4
 291 415 228 359 212 260 c 1
 87 260 l 1
 113 419 257 530 406 530 c 4
 555 530 643 419 617 260 c 1
 492 260 l 1
87 260 m 1
 212 260 l 1
 196 161 240 105 329 105 c 0
 393 105 450 118 495 167 c 1
 563 92 l 1
 506 28 415 -10 318 -10 c 4
 159 -10 61 101 87 260 c 1
219 676 m 0
 227 723 272 762 319 762 c 0
 366 762 399 723 391 676 c 0
 383 629 338 590 291 590 c 0
 244 590 211 629 219 676 c 0
439 676 m 0
 447 723 492 762 539 762 c 0
 586 762 619 723 611 676 c 0
 603 629 558 590 511 590 c 0
 464 590 431 629 439 676 c 0
EndSplineSet
EndChar

StartChar: igrave
Encoding: 236 236 171
Width: 270
VWidth: 0
Flags: HMW
LayerCount: 2
Fore
SplineSet
160 520 m 5
 280 520 l 1
 195 0 l 1
 75 0 l 5
 160 520 l 5
171 590 m 5
 74 730 l 5
 214 730 l 1
 271 590 l 1
 171 590 l 5
EndSplineSet
EndChar

StartChar: iacute
Encoding: 237 237 172
Width: 270
VWidth: 0
Flags: HMW
LayerCount: 2
Fore
SplineSet
160 520 m 5
 280 520 l 1
 195 0 l 1
 75 0 l 5
 160 520 l 5
261 590 m 1
 181 590 l 5
 284 730 l 5
 404 730 l 1
 261 590 l 1
EndSplineSet
EndChar

StartChar: icircumflex
Encoding: 238 238 173
Width: 270
VWidth: 0
Flags: HMW
LayerCount: 2
Fore
SplineSet
160 520 m 5
 280 520 l 1
 195 0 l 1
 75 0 l 5
 160 520 l 5
286 590 m 1
 202 690 l 1
 292 690 l 1
 376 590 l 1
 286 590 l 1
182 690 m 5
 272 690 l 1
 156 590 l 1
 66 590 l 5
 182 690 l 5
EndSplineSet
EndChar

StartChar: idieresis
Encoding: 239 239 174
Width: 270
VWidth: 0
Flags: HMW
LayerCount: 2
Fore
SplineSet
160 520 m 5
 280 520 l 1
 195 0 l 1
 75 0 l 5
 160 520 l 5
39 676 m 0
 47 723 92 762 139 762 c 0
 186 762 219 723 211 676 c 0
 203 629 158 590 111 590 c 0
 64 590 31 629 39 676 c 0
259 676 m 0
 267 723 312 762 359 762 c 0
 406 762 439 723 431 676 c 0
 423 629 378 590 331 590 c 0
 284 590 251 629 259 676 c 0
EndSplineSet
EndChar

StartChar: ntilde
Encoding: 241 241 175
Width: 635
VWidth: 0
Flags: HMW
LayerCount: 2
Fore
SplineSet
622 320 m 1
 570 0 l 1
 445 0 l 1
 494 300 l 1
 622 320 l 1
155 520 m 1
 280 520 l 1
 195 0 l 1
 70 0 l 1
 155 520 l 1
494 300 m 1
 505 370 478 415 398 415 c 0
 320 415 256 370 241 280 c 1
 206 280 l 1
 229 419 317 530 466 530 c 0
 600 530 643 449 622 320 c 5
 494 300 l 1
304 590 m 5
 216 610 l 1
 233 688 300 737 351 737 c 0
 415 737 443 693 487 693 c 0
 522 693 552 703 556 730 c 1
 643 710 l 1
 624 622 551 583 501 583 c 0
 439 583 415 627 372 627 c 4
 338 627 308 617 304 590 c 5
EndSplineSet
EndChar

StartChar: ograve
Encoding: 242 242 176
Width: 650
VWidth: 0
Flags: HM
LayerCount: 2
Fore
SplineSet
212 260 m 0
 198 171 245 105 342 105 c 0
 439 105 508 171 522 260 c 0
 536 349 490 415 393 415 c 0
 296 415 226 349 212 260 c 0
87 260 m 0
 111 409 252 530 411 530 c 0
 570 530 671 409 647 260 c 0
 623 111 482 -10 323 -10 c 0
 164 -10 63 111 87 260 c 0
371 590 m 5
 274 730 l 5
 414 730 l 1
 471 590 l 1
 371 590 l 5
EndSplineSet
EndChar

StartChar: oacute
Encoding: 243 243 177
Width: 650
VWidth: 0
Flags: HM
LayerCount: 2
Fore
SplineSet
212 260 m 0
 198 171 245 105 342 105 c 0
 439 105 508 171 522 260 c 0
 536 349 490 415 393 415 c 0
 296 415 226 349 212 260 c 0
87 260 m 0
 111 409 252 530 411 530 c 0
 570 530 671 409 647 260 c 0
 623 111 482 -10 323 -10 c 0
 164 -10 63 111 87 260 c 0
461 590 m 1
 381 590 l 5
 484 730 l 5
 604 730 l 1
 461 590 l 1
EndSplineSet
EndChar

StartChar: ocircumflex
Encoding: 244 244 178
Width: 650
VWidth: 0
Flags: HM
LayerCount: 2
Fore
SplineSet
212 260 m 0
 198 171 245 105 342 105 c 0
 439 105 508 171 522 260 c 0
 536 349 490 415 393 415 c 0
 296 415 226 349 212 260 c 0
87 260 m 0
 111 409 252 530 411 530 c 0
 570 530 671 409 647 260 c 0
 623 111 482 -10 323 -10 c 0
 164 -10 63 111 87 260 c 0
486 590 m 1
 402 690 l 1
 492 690 l 1
 576 590 l 1
 486 590 l 1
382 690 m 5
 472 690 l 1
 356 590 l 1
 266 590 l 5
 382 690 l 5
EndSplineSet
EndChar

StartChar: otilde
Encoding: 245 245 179
Width: 650
VWidth: 0
Flags: HM
LayerCount: 2
Fore
SplineSet
212 260 m 0
 198 171 245 105 342 105 c 0
 439 105 508 171 522 260 c 0
 536 349 490 415 393 415 c 0
 296 415 226 349 212 260 c 0
87 260 m 0
 111 409 252 530 411 530 c 0
 570 530 671 409 647 260 c 0
 623 111 482 -10 323 -10 c 0
 164 -10 63 111 87 260 c 0
311 590 m 5
 223 610 l 1
 240 688 307 737 358 737 c 0
 422 737 450 693 494 693 c 0
 529 693 560 703 564 730 c 1
 651 710 l 1
 632 622 559 583 509 583 c 0
 447 583 422 627 379 627 c 4
 345 627 315 617 311 590 c 5
EndSplineSet
EndChar

StartChar: odieresis
Encoding: 246 246 180
Width: 650
VWidth: 0
Flags: HM
LayerCount: 2
Fore
SplineSet
212 260 m 0
 198 171 245 105 342 105 c 0
 439 105 508 171 522 260 c 0
 536 349 490 415 393 415 c 0
 296 415 226 349 212 260 c 0
87 260 m 0
 111 409 252 530 411 530 c 0
 570 530 671 409 647 260 c 0
 623 111 482 -10 323 -10 c 0
 164 -10 63 111 87 260 c 0
239 676 m 0
 247 723 292 762 339 762 c 0
 386 762 419 723 411 676 c 0
 403 629 358 590 311 590 c 0
 264 590 231 629 239 676 c 0
459 676 m 0
 467 723 512 762 559 762 c 0
 606 762 639 723 631 676 c 0
 623 629 578 590 531 590 c 0
 484 590 451 629 459 676 c 0
EndSplineSet
EndChar

StartChar: ugrave
Encoding: 249 249 181
Width: 635
VWidth: 0
Flags: HMW
LayerCount: 2
Fore
SplineSet
113 200 m 5
 165 520 l 1
 290 520 l 1
 241 220 l 1
 113 200 l 5
550 0 m 1
 425 0 l 1
 510 520 l 1
 635 520 l 1
 550 0 l 1
241 220 m 1
 230 150 242 105 322 105 c 0
 400 105 449 150 464 240 c 1
 499 240 l 1
 476 101 422 -10 273 -10 c 0
 154 -10 92 71 113 200 c 5
 241 220 l 1
359 590 m 5
 261 730 l 5
 401 730 l 1
 459 590 l 1
 359 590 l 5
EndSplineSet
EndChar

StartChar: uacute
Encoding: 250 250 182
Width: 635
VWidth: 0
Flags: HMW
LayerCount: 2
Fore
SplineSet
113 200 m 5
 165 520 l 1
 290 520 l 1
 241 220 l 1
 113 200 l 5
550 0 m 1
 425 0 l 1
 510 520 l 1
 635 520 l 1
 550 0 l 1
241 220 m 1
 230 150 242 105 322 105 c 0
 400 105 449 150 464 240 c 1
 499 240 l 1
 476 101 422 -10 273 -10 c 0
 154 -10 92 71 113 200 c 5
 241 220 l 1
449 590 m 1
 369 590 l 5
 471 730 l 5
 591 730 l 1
 449 590 l 1
EndSplineSet
EndChar

StartChar: ucircumflex
Encoding: 251 251 183
Width: 635
VWidth: 0
Flags: HMW
LayerCount: 2
Fore
SplineSet
113 200 m 5
 165 520 l 1
 290 520 l 1
 241 220 l 1
 113 200 l 5
550 0 m 1
 425 0 l 1
 510 520 l 1
 635 520 l 1
 550 0 l 1
241 220 m 1
 230 150 242 105 322 105 c 0
 400 105 449 150 464 240 c 1
 499 240 l 1
 476 101 422 -10 273 -10 c 0
 154 -10 92 71 113 200 c 5
 241 220 l 1
474 590 m 1
 390 690 l 1
 480 690 l 1
 564 590 l 1
 474 590 l 1
370 690 m 5
 460 690 l 1
 344 590 l 1
 254 590 l 5
 370 690 l 5
EndSplineSet
EndChar

StartChar: udieresis
Encoding: 252 252 184
Width: 635
VWidth: 0
Flags: HMW
LayerCount: 2
Fore
SplineSet
113 200 m 5
 165 520 l 1
 290 520 l 1
 241 220 l 1
 113 200 l 5
550 0 m 1
 425 0 l 1
 510 520 l 1
 635 520 l 1
 550 0 l 1
241 220 m 1
 230 150 242 105 322 105 c 0
 400 105 449 150 464 240 c 1
 499 240 l 1
 476 101 422 -10 273 -10 c 0
 154 -10 92 71 113 200 c 5
 241 220 l 1
227 676 m 0
 235 723 280 762 327 762 c 0
 374 762 407 723 399 676 c 0
 391 629 346 590 299 590 c 0
 252 590 219 629 227 676 c 0
447 676 m 0
 455 723 500 762 547 762 c 0
 594 762 627 723 619 676 c 0
 611 629 566 590 519 590 c 0
 472 590 439 629 447 676 c 0
EndSplineSet
EndChar

StartChar: yacute
Encoding: 253 253 185
Width: 579
VWidth: 0
Flags: HMW
LayerCount: 2
Fore
SplineSet
105 520 m 1
 235 520 l 1
 375 5 l 1
 249 0 l 1
 105 520 l 1
148 -95 m 1
 135 -210 l 1
 78 -210 32 -184 11 -150 c 1
 77 -62 l 1
 91 -81 109 -95 148 -95 c 1
228 -34 m 2
 524 520 l 1
 649 520 l 1
 339 -60 l 2
 297 -140 224 -210 135 -210 c 1
 148 -95 l 1
 185 -95 207 -74 228 -34 c 2
415 590 m 1
 335 590 l 5
 438 730 l 5
 558 730 l 1
 415 590 l 1
EndSplineSet
EndChar

StartChar: ydieresis
Encoding: 255 255 186
Width: 579
VWidth: 0
Flags: HMW
LayerCount: 2
Fore
SplineSet
105 520 m 1
 235 520 l 1
 375 5 l 1
 249 0 l 1
 105 520 l 1
148 -95 m 1
 135 -210 l 1
 78 -210 32 -184 11 -150 c 1
 77 -62 l 1
 91 -81 109 -95 148 -95 c 1
228 -34 m 2
 524 520 l 1
 649 520 l 1
 339 -60 l 2
 297 -140 224 -210 135 -210 c 1
 148 -95 l 1
 185 -95 207 -74 228 -34 c 2
193 676 m 0
 201 723 246 762 293 762 c 0
 340 762 373 723 365 676 c 0
 357 629 312 590 265 590 c 0
 218 590 185 629 193 676 c 0
413 676 m 0
 421 723 466 762 513 762 c 0
 560 762 593 723 585 676 c 0
 577 629 532 590 485 590 c 0
 438 590 405 629 413 676 c 0
EndSplineSet
EndChar

StartChar: Amacron
Encoding: 256 256 187
Width: 800
VWidth: 0
Flags: HMW
LayerCount: 2
Fore
SplineSet
454 700 m 1
 574 700 l 1
 562 690 l 1
 452 690 l 1
 454 700 l 1
228 270 m 1
 640 270 l 1
 621 155 l 1
 209 155 l 1
 228 270 l 1
640 0 m 5
 462 690 l 1
 574 700 l 1
 780 0 l 1
 640 0 l 5
454 700 m 1
 562 690 l 1
 160 0 l 1
 20 0 l 1
 454 700 l 1
364 850 m 1
 668 850 l 5
 655 770 l 5
 351 770 l 1
 364 850 l 1
EndSplineSet
EndChar

StartChar: amacron
Encoding: 257 257 188
Width: 580
VWidth: 0
Flags: HMW
LayerCount: 2
Fore
SplineSet
359 302 m 1
 489 302 l 1
 476 218 l 1
 376 218 l 1
 359 302 l 1
444 330 m 1
 455 395 422 415 356 415 c 1
 370 530 l 1
 513 530 589 454 569 330 c 1
 444 330 l 1
356 415 m 1
 302 415 251 402 207 372 c 1
 143 450 l 1
 208 499 268 530 370 530 c 1
 356 415 l 1
444 330 m 1
 569 330 l 1
 515 0 l 1
 390 0 l 1
 444 330 l 1
183 155 m 1
 177 117 212 95 275 95 c 0
 333 95 410 120 423 200 c 5
 454 180 l 1
 436 71 367 -10 228 -10 c 0
 129 -10 39 41 57 150 c 1
 183 155 l 1
359 302 m 1
 376 218 l 1
 267 218 192 210 183 155 c 1
 57 150 l 1
 79 285 222 302 359 302 c 1
241 670 m 1
 545 670 l 5
 532 590 l 5
 228 590 l 1
 241 670 l 1
EndSplineSet
EndChar

StartChar: Abreve
Encoding: 258 258 189
Width: 800
VWidth: 0
Flags: HMW
LayerCount: 2
Fore
SplineSet
454 700 m 1
 574 700 l 1
 562 690 l 1
 452 690 l 1
 454 700 l 1
228 270 m 1
 640 270 l 1
 621 155 l 1
 209 155 l 1
 228 270 l 1
640 0 m 5
 462 690 l 1
 574 700 l 1
 780 0 l 1
 640 0 l 5
454 700 m 1
 562 690 l 1
 160 0 l 1
 20 0 l 1
 454 700 l 1
519 870 m 1
 479 870 456 884 464 932 c 1
 348 926 l 1
 332 827 391 750 500 750 c 1
 519 870 l 1
519 870 m 5
 500 750 l 1
 609 750 692 827 708 926 c 1
 594 932 l 5
 586 884 561 870 519 870 c 5
EndSplineSet
EndChar

StartChar: abreve
Encoding: 259 259 190
Width: 580
VWidth: 0
Flags: HMW
LayerCount: 2
Fore
SplineSet
359 302 m 1
 489 302 l 1
 476 218 l 1
 376 218 l 1
 359 302 l 1
444 330 m 1
 455 395 422 415 356 415 c 1
 370 530 l 1
 513 530 589 454 569 330 c 1
 444 330 l 1
356 415 m 1
 302 415 251 402 207 372 c 1
 143 450 l 1
 208 499 268 530 370 530 c 1
 356 415 l 1
444 330 m 1
 569 330 l 1
 515 0 l 1
 390 0 l 1
 444 330 l 1
183 155 m 1
 177 117 212 95 275 95 c 0
 333 95 410 120 423 200 c 5
 454 180 l 1
 436 71 367 -10 228 -10 c 0
 129 -10 39 41 57 150 c 1
 183 155 l 1
359 302 m 1
 376 218 l 1
 267 218 192 210 183 155 c 1
 57 150 l 1
 79 285 222 302 359 302 c 1
396 690 m 1
 356 690 333 704 341 752 c 1
 225 746 l 1
 209 647 268 570 377 570 c 1
 396 690 l 1
396 690 m 5
 377 570 l 1
 486 570 569 647 585 746 c 1
 471 752 l 5
 463 704 438 690 396 690 c 5
EndSplineSet
EndChar

StartChar: Cacute
Encoding: 262 262 191
Width: 732
VWidth: 0
Flags: HM
LayerCount: 2
Fore
SplineSet
237 350 m 0
 215 214 292 110 443 110 c 0
 521 110 582 142 639 198 c 1
 710 113 l 1
 633 38 529 -10 423 -10 c 0
 208 -10 75 151 107 350 c 0
 139 549 326 710 541 710 c 0
 647 710 735 662 788 587 c 1
 690 503 l 5
 651 559 599 590 521 590 c 0
 370 590 259 486 237 350 c 0
590 770 m 1
 510 770 l 5
 613 910 l 5
 733 910 l 1
 590 770 l 1
EndSplineSet
EndChar

StartChar: cacute
Encoding: 263 263 192
Width: 573
VWidth: 0
Flags: HM
LayerCount: 2
Fore
SplineSet
212 260 m 0
 198 171 245 105 342 105 c 0
 401 105 458 130 493 170 c 1
 558 92 l 1
 501 28 420 -10 323 -10 c 0
 164 -10 63 111 87 260 c 0
 111 409 252 530 411 530 c 0
 508 530 575 491 612 428 c 1
 522 350 l 1
 501 390 452 415 393 415 c 0
 296 415 226 349 212 260 c 0
461 590 m 1
 381 590 l 5
 484 730 l 5
 604 730 l 1
 461 590 l 1
EndSplineSet
EndChar

StartChar: Ccircumflex
Encoding: 264 264 193
Width: 732
VWidth: 0
Flags: HM
LayerCount: 2
Fore
SplineSet
237 350 m 0
 215 214 292 110 443 110 c 0
 521 110 582 142 639 198 c 1
 710 113 l 1
 633 38 529 -10 423 -10 c 0
 208 -10 75 151 107 350 c 0
 139 549 326 710 541 710 c 0
 647 710 735 662 788 587 c 1
 690 503 l 5
 651 559 599 590 521 590 c 0
 370 590 259 486 237 350 c 0
615 770 m 1
 532 870 l 1
 622 870 l 1
 705 770 l 1
 615 770 l 1
512 870 m 5
 602 870 l 1
 485 770 l 1
 395 770 l 5
 512 870 l 5
EndSplineSet
EndChar

StartChar: ccircumflex
Encoding: 265 265 194
Width: 573
VWidth: 0
Flags: HM
LayerCount: 2
Fore
SplineSet
212 260 m 0
 198 171 245 105 342 105 c 0
 401 105 458 130 493 170 c 1
 558 92 l 1
 501 28 420 -10 323 -10 c 0
 164 -10 63 111 87 260 c 0
 111 409 252 530 411 530 c 0
 508 530 575 491 612 428 c 1
 522 350 l 1
 501 390 452 415 393 415 c 0
 296 415 226 349 212 260 c 0
486 590 m 1
 402 690 l 1
 492 690 l 1
 576 590 l 1
 486 590 l 1
382 690 m 5
 472 690 l 1
 356 590 l 1
 266 590 l 5
 382 690 l 5
EndSplineSet
EndChar

StartChar: Cdotaccent
Encoding: 266 266 195
Width: 732
VWidth: 0
Flags: HM
LayerCount: 2
Fore
SplineSet
237 350 m 0
 215 214 292 110 443 110 c 0
 521 110 582 142 639 198 c 1
 710 113 l 1
 633 38 529 -10 423 -10 c 0
 208 -10 75 151 107 350 c 0
 139 549 326 710 541 710 c 0
 647 710 735 662 788 587 c 1
 690 503 l 5
 651 559 599 590 521 590 c 0
 370 590 259 486 237 350 c 0
478 856 m 0
 486 903 531 942 578 942 c 0
 625 942 658 903 650 856 c 0
 642 809 597 770 550 770 c 0
 503 770 470 809 478 856 c 0
EndSplineSet
EndChar

StartChar: cdotaccent
Encoding: 267 267 196
Width: 573
VWidth: 0
Flags: HM
LayerCount: 2
Fore
SplineSet
212 260 m 0
 198 171 245 105 342 105 c 0
 401 105 458 130 493 170 c 1
 558 92 l 1
 501 28 420 -10 323 -10 c 0
 164 -10 63 111 87 260 c 0
 111 409 252 530 411 530 c 0
 508 530 575 491 612 428 c 1
 522 350 l 1
 501 390 452 415 393 415 c 0
 296 415 226 349 212 260 c 0
349 676 m 0
 357 723 402 762 449 762 c 0
 496 762 529 723 521 676 c 0
 513 629 468 590 421 590 c 0
 374 590 341 629 349 676 c 0
EndSplineSet
EndChar

StartChar: Ccaron
Encoding: 268 268 197
Width: 732
VWidth: 0
Flags: HM
LayerCount: 2
Fore
SplineSet
237 350 m 0
 215 214 292 110 443 110 c 0
 521 110 582 142 639 198 c 1
 710 113 l 1
 633 38 529 -10 423 -10 c 0
 208 -10 75 151 107 350 c 0
 139 549 326 710 541 710 c 0
 647 710 735 662 788 587 c 1
 690 503 l 5
 651 559 599 590 521 590 c 0
 370 590 259 486 237 350 c 0
502 870 m 1
 585 770 l 1
 495 770 l 5
 412 870 l 5
 502 870 l 1
605 770 m 1
 515 770 l 1
 632 870 l 1
 722 870 l 1
 605 770 l 1
EndSplineSet
EndChar

StartChar: ccaron
Encoding: 269 269 198
Width: 573
VWidth: 0
Flags: HM
LayerCount: 2
Fore
SplineSet
212 260 m 0
 198 171 245 105 342 105 c 0
 401 105 458 130 493 170 c 1
 558 92 l 1
 501 28 420 -10 323 -10 c 0
 164 -10 63 111 87 260 c 0
 111 409 252 530 411 530 c 0
 508 530 575 491 612 428 c 1
 522 350 l 1
 501 390 452 415 393 415 c 0
 296 415 226 349 212 260 c 0
372 690 m 1
 456 590 l 1
 366 590 l 5
 282 690 l 5
 372 690 l 1
476 590 m 1
 386 590 l 1
 502 690 l 1
 592 690 l 1
 476 590 l 1
EndSplineSet
EndChar

StartChar: Dcaron
Encoding: 270 270 199
Width: 810
VWidth: 0
Flags: HMW
LayerCount: 2
Fore
SplineSet
204 700 m 1
 494 700 l 5
 474 580 l 5
 184 580 l 1
 204 700 l 1
110 120 m 1
 400 120 l 5
 380 0 l 5
 90 0 l 1
 110 120 l 1
204 700 m 1
 334 700 l 1
 220 0 l 1
 90 0 l 1
 204 700 l 1
400 120 m 5
 531 120 645 214 667 350 c 4
 689 486 605 580 474 580 c 5
 494 700 l 5
 689 700 829 549 797 350 c 4
 765 151 575 0 380 0 c 5
 400 120 l 5
494 870 m 1
 578 770 l 1
 488 770 l 5
 404 870 l 5
 494 870 l 1
598 770 m 1
 508 770 l 1
 624 870 l 1
 714 870 l 1
 598 770 l 1
EndSplineSet
EndChar

StartChar: dcaron
Encoding: 271 271 200
Width: 655
VWidth: 0
Flags: HMW
LayerCount: 2
Fore
SplineSet
507 260 m 4
 521 346 476 415 383 415 c 4
 290 415 225 346 211 260 c 4
 197 174 239 105 332 105 c 4
 425 105 493 174 507 260 c 4
542 260 m 4
 518 111 447 -10 283 -10 c 4
 139 -10 61 101 87 260 c 4
 113 419 227 530 371 530 c 4
 535 530 566 409 542 260 c 4
709 730 m 5
 590 0 l 5
 465 0 l 5
 584 730 l 5
 709 730 l 5
777 685 m 0
 785 732 828 770 875 770 c 0
 932 770 960 732 952 685 c 0
 949 666 934 639 914 614 c 2
 803 480 l 1
 733 480 l 1
 808 611 l 1
 785 626 772 653 777 685 c 0
EndSplineSet
EndChar

StartChar: Emacron
Encoding: 274 274 201
Width: 670
VWidth: 0
Flags: HM
LayerCount: 2
Fore
SplineSet
148 418 m 5
 628 418 l 1
 609 298 l 1
 129 298 l 5
 148 418 l 5
194 700 m 5
 724 700 l 1
 704 580 l 1
 174 580 l 5
 194 700 l 5
100 120 m 5
 630 120 l 1
 610 0 l 1
 80 0 l 5
 100 120 l 5
194 700 m 5
 324 700 l 5
 210 0 l 5
 80 0 l 5
 194 700 l 5
341 850 m 1
 645 850 l 5
 632 770 l 5
 328 770 l 1
 341 850 l 1
EndSplineSet
EndChar

StartChar: emacron
Encoding: 275 275 202
Width: 615
VWidth: 0
Flags: HMW
LayerCount: 2
Fore
SplineSet
617 260 m 1
 612 230 l 1
 487 230 l 1
 492 260 l 1
 617 260 l 1
487 230 m 1
 161 230 l 1
 176 317 l 1
 502 317 l 1
 487 230 l 1
492 260 m 1
 508 359 485 415 388 415 c 4
 291 415 228 359 212 260 c 1
 87 260 l 1
 113 419 257 530 406 530 c 4
 555 530 643 419 617 260 c 1
 492 260 l 1
87 260 m 1
 212 260 l 1
 196 161 240 105 329 105 c 0
 393 105 450 118 495 167 c 1
 563 92 l 1
 506 28 415 -10 318 -10 c 4
 159 -10 61 101 87 260 c 1
262 670 m 1
 566 670 l 5
 553 590 l 5
 249 590 l 1
 262 670 l 1
EndSplineSet
EndChar

StartChar: Ebreve
Encoding: 276 276 203
Width: 670
VWidth: 0
Flags: HM
LayerCount: 2
Fore
SplineSet
148 418 m 5
 628 418 l 1
 609 298 l 1
 129 298 l 5
 148 418 l 5
194 700 m 5
 724 700 l 1
 704 580 l 1
 174 580 l 5
 194 700 l 5
100 120 m 5
 630 120 l 1
 610 0 l 1
 80 0 l 5
 100 120 l 5
194 700 m 5
 324 700 l 5
 210 0 l 5
 80 0 l 5
 194 700 l 5
497 870 m 1
 457 870 434 884 442 932 c 1
 326 926 l 1
 310 827 368 750 477 750 c 1
 497 870 l 1
497 870 m 5
 477 750 l 1
 586 750 670 827 686 926 c 1
 572 932 l 5
 564 884 539 870 497 870 c 5
EndSplineSet
EndChar

StartChar: ebreve
Encoding: 277 277 204
Width: 615
VWidth: 0
Flags: HMW
LayerCount: 2
Fore
SplineSet
617 260 m 1
 612 230 l 1
 487 230 l 1
 492 260 l 1
 617 260 l 1
487 230 m 1
 161 230 l 1
 176 317 l 1
 502 317 l 1
 487 230 l 1
492 260 m 1
 508 359 485 415 388 415 c 4
 291 415 228 359 212 260 c 1
 87 260 l 1
 113 419 257 530 406 530 c 4
 555 530 643 419 617 260 c 1
 492 260 l 1
87 260 m 1
 212 260 l 1
 196 161 240 105 329 105 c 0
 393 105 450 118 495 167 c 1
 563 92 l 1
 506 28 415 -10 318 -10 c 4
 159 -10 61 101 87 260 c 1
417 690 m 1
 377 690 354 704 362 752 c 1
 246 746 l 1
 230 647 289 570 398 570 c 1
 417 690 l 1
417 690 m 5
 398 570 l 1
 507 570 590 647 606 746 c 1
 492 752 l 5
 484 704 459 690 417 690 c 5
EndSplineSet
EndChar

StartChar: Edotaccent
Encoding: 278 278 205
Width: 670
VWidth: 0
Flags: HM
LayerCount: 2
Fore
SplineSet
148 418 m 5
 628 418 l 1
 609 298 l 1
 129 298 l 5
 148 418 l 5
194 700 m 5
 724 700 l 1
 704 580 l 1
 174 580 l 5
 194 700 l 5
100 120 m 5
 630 120 l 1
 610 0 l 1
 80 0 l 5
 100 120 l 5
194 700 m 5
 324 700 l 5
 210 0 l 5
 80 0 l 5
 194 700 l 5
408 856 m 0
 416 903 461 942 508 942 c 0
 555 942 588 903 580 856 c 0
 572 809 527 770 480 770 c 0
 433 770 400 809 408 856 c 0
EndSplineSet
EndChar

StartChar: edotaccent
Encoding: 279 279 206
Width: 615
VWidth: 0
Flags: HMW
LayerCount: 2
Fore
SplineSet
617 260 m 1
 612 230 l 1
 487 230 l 1
 492 260 l 1
 617 260 l 1
487 230 m 1
 161 230 l 1
 176 317 l 1
 502 317 l 1
 487 230 l 1
492 260 m 1
 508 359 485 415 388 415 c 4
 291 415 228 359 212 260 c 1
 87 260 l 1
 113 419 257 530 406 530 c 4
 555 530 643 419 617 260 c 1
 492 260 l 1
87 260 m 1
 212 260 l 1
 196 161 240 105 329 105 c 0
 393 105 450 118 495 167 c 1
 563 92 l 1
 506 28 415 -10 318 -10 c 4
 159 -10 61 101 87 260 c 1
329 676 m 0
 337 723 382 762 429 762 c 0
 476 762 509 723 501 676 c 0
 493 629 448 590 401 590 c 0
 354 590 321 629 329 676 c 0
EndSplineSet
EndChar

StartChar: Ecaron
Encoding: 282 282 207
Width: 670
VWidth: 0
Flags: HM
LayerCount: 2
Fore
SplineSet
148 418 m 5
 628 418 l 1
 609 298 l 1
 129 298 l 5
 148 418 l 5
194 700 m 5
 724 700 l 1
 704 580 l 1
 174 580 l 5
 194 700 l 5
100 120 m 5
 630 120 l 1
 610 0 l 1
 80 0 l 5
 100 120 l 5
194 700 m 5
 324 700 l 5
 210 0 l 5
 80 0 l 5
 194 700 l 5
432 870 m 1
 515 770 l 1
 425 770 l 5
 342 870 l 5
 432 870 l 1
535 770 m 1
 445 770 l 1
 562 870 l 1
 652 870 l 1
 535 770 l 1
EndSplineSet
EndChar

StartChar: ecaron
Encoding: 283 283 208
Width: 615
VWidth: 0
Flags: HMW
LayerCount: 2
Fore
SplineSet
617 260 m 1
 612 230 l 1
 487 230 l 1
 492 260 l 1
 617 260 l 1
487 230 m 1
 161 230 l 1
 176 317 l 1
 502 317 l 1
 487 230 l 1
492 260 m 1
 508 359 485 415 388 415 c 4
 291 415 228 359 212 260 c 1
 87 260 l 1
 113 419 257 530 406 530 c 4
 555 530 643 419 617 260 c 1
 492 260 l 1
87 260 m 1
 212 260 l 1
 196 161 240 105 329 105 c 0
 393 105 450 118 495 167 c 1
 563 92 l 1
 506 28 415 -10 318 -10 c 4
 159 -10 61 101 87 260 c 1
352 690 m 1
 436 590 l 1
 346 590 l 5
 262 690 l 5
 352 690 l 1
456 590 m 1
 366 590 l 1
 482 690 l 1
 572 690 l 1
 456 590 l 1
EndSplineSet
EndChar

StartChar: Gcircumflex
Encoding: 284 284 209
Width: 782
VWidth: 0
Flags: HMW
LayerCount: 2
Fore
SplineSet
786 390 m 5
 766 270 l 5
 469 270 l 5
 489 390 l 5
 786 390 l 5
740 113 m 1
 610 113 l 1
 656 390 l 5
 786 390 l 5
 740 113 l 1
247 350 m 0
 225 214 292 110 443 110 c 0
 521 110 612 142 675 203 c 1
 740 113 l 1
 663 38 529 -10 423 -10 c 0
 208 -10 85 151 117 350 c 0
 149 549 326 710 541 710 c 0
 667 710 755 662 808 587 c 1
 715 507 l 1
 676 563 599 590 521 590 c 0
 370 590 269 486 247 350 c 0
615 770 m 1
 532 870 l 1
 622 870 l 1
 705 770 l 1
 615 770 l 1
512 870 m 5
 602 870 l 1
 485 770 l 1
 395 770 l 5
 512 870 l 5
EndSplineSet
EndChar

StartChar: gcircumflex
Encoding: 285 285 210
Width: 655
VWidth: 0
Flags: HMW
LayerCount: 2
Fore
SplineSet
507 260 m 0
 521 346 476 415 383 415 c 0
 290 415 226 346 212 260 c 0
 198 174 239 105 332 105 c 0
 425 105 493 174 507 260 c 0
542 260 m 0
 518 111 447 -10 283 -10 c 0
 139 -10 61 101 87 260 c 0
 113 419 227 530 371 530 c 0
 535 530 566 409 542 260 c 0
316 -105 m 1
 297 -220 l 1
 140 -220 66 -172 29 -108 c 5
 126 -42 l 5
 160 -86 223 -105 316 -105 c 1
593 20 m 1
 468 20 l 1
 550 520 l 1
 675 520 l 1
 593 20 l 1
468 20 m 1
 593 20 l 1
 570 -119 446 -220 297 -220 c 1
 316 -105 l 1
 383 -105 454 -69 468 20 c 1
461 590 m 1
 377 690 l 1
 467 690 l 1
 551 590 l 1
 461 590 l 1
357 690 m 5
 447 690 l 1
 331 590 l 1
 241 590 l 5
 357 690 l 5
EndSplineSet
EndChar

StartChar: Gbreve
Encoding: 286 286 211
Width: 782
VWidth: 0
Flags: HMW
LayerCount: 2
Fore
SplineSet
786 390 m 5
 766 270 l 5
 469 270 l 5
 489 390 l 5
 786 390 l 5
740 113 m 1
 610 113 l 1
 656 390 l 5
 786 390 l 5
 740 113 l 1
247 350 m 0
 225 214 292 110 443 110 c 0
 521 110 612 142 675 203 c 1
 740 113 l 1
 663 38 529 -10 423 -10 c 0
 208 -10 85 151 117 350 c 0
 149 549 326 710 541 710 c 0
 667 710 755 662 808 587 c 1
 715 507 l 1
 676 563 599 590 521 590 c 0
 370 590 269 486 247 350 c 0
567 870 m 1
 527 870 504 884 512 932 c 1
 396 926 l 1
 380 827 438 750 547 750 c 1
 567 870 l 1
567 870 m 5
 547 750 l 1
 656 750 740 827 756 926 c 1
 642 932 l 5
 634 884 609 870 567 870 c 5
EndSplineSet
EndChar

StartChar: gbreve
Encoding: 287 287 212
Width: 655
VWidth: 0
Flags: HMW
LayerCount: 2
Fore
SplineSet
507 260 m 0
 521 346 476 415 383 415 c 0
 290 415 226 346 212 260 c 0
 198 174 239 105 332 105 c 0
 425 105 493 174 507 260 c 0
542 260 m 0
 518 111 447 -10 283 -10 c 0
 139 -10 61 101 87 260 c 0
 113 419 227 530 371 530 c 0
 535 530 566 409 542 260 c 0
316 -105 m 1
 297 -220 l 1
 140 -220 66 -172 29 -108 c 5
 126 -42 l 5
 160 -86 223 -105 316 -105 c 1
593 20 m 1
 468 20 l 1
 550 520 l 1
 675 520 l 1
 593 20 l 1
468 20 m 1
 593 20 l 1
 570 -119 446 -220 297 -220 c 1
 316 -105 l 1
 383 -105 454 -69 468 20 c 1
412 690 m 1
 372 690 349 704 357 752 c 1
 241 746 l 1
 225 647 284 570 393 570 c 1
 412 690 l 1
412 690 m 5
 393 570 l 1
 502 570 585 647 601 746 c 1
 487 752 l 5
 479 704 454 690 412 690 c 5
EndSplineSet
EndChar

StartChar: Gdotaccent
Encoding: 288 288 213
Width: 782
VWidth: 0
Flags: HMW
LayerCount: 2
Fore
SplineSet
786 390 m 5
 766 270 l 5
 469 270 l 5
 489 390 l 5
 786 390 l 5
740 113 m 1
 610 113 l 1
 656 390 l 5
 786 390 l 5
 740 113 l 1
247 350 m 0
 225 214 292 110 443 110 c 0
 521 110 612 142 675 203 c 1
 740 113 l 1
 663 38 529 -10 423 -10 c 0
 208 -10 85 151 117 350 c 0
 149 549 326 710 541 710 c 0
 667 710 755 662 808 587 c 1
 715 507 l 1
 676 563 599 590 521 590 c 0
 370 590 269 486 247 350 c 0
478 856 m 0
 486 903 531 942 578 942 c 0
 625 942 658 903 650 856 c 0
 642 809 597 770 550 770 c 0
 503 770 470 809 478 856 c 0
EndSplineSet
EndChar

StartChar: gdotaccent
Encoding: 289 289 214
Width: 655
VWidth: 0
Flags: HMW
LayerCount: 2
Fore
SplineSet
507 260 m 0
 521 346 476 415 383 415 c 0
 290 415 226 346 212 260 c 0
 198 174 239 105 332 105 c 0
 425 105 493 174 507 260 c 0
542 260 m 0
 518 111 447 -10 283 -10 c 0
 139 -10 61 101 87 260 c 0
 113 419 227 530 371 530 c 0
 535 530 566 409 542 260 c 0
316 -105 m 1
 297 -220 l 1
 140 -220 66 -172 29 -108 c 5
 126 -42 l 5
 160 -86 223 -105 316 -105 c 1
593 20 m 1
 468 20 l 1
 550 520 l 1
 675 520 l 1
 593 20 l 1
468 20 m 1
 593 20 l 1
 570 -119 446 -220 297 -220 c 1
 316 -105 l 1
 383 -105 454 -69 468 20 c 1
324 676 m 0
 332 723 377 762 424 762 c 0
 471 762 504 723 496 676 c 0
 488 629 443 590 396 590 c 0
 349 590 316 629 324 676 c 0
EndSplineSet
EndChar

StartChar: uni0122
Encoding: 290 290 215
Width: 782
VWidth: 0
Flags: HMW
LayerCount: 2
Fore
SplineSet
786 390 m 5
 766 270 l 5
 469 270 l 5
 489 390 l 5
 786 390 l 5
740 113 m 1
 610 113 l 1
 656 390 l 5
 786 390 l 5
 740 113 l 1
247 350 m 0
 225 214 292 110 443 110 c 0
 521 110 612 142 675 203 c 1
 740 113 l 1
 663 38 529 -10 423 -10 c 0
 208 -10 85 151 117 350 c 0
 149 549 326 710 541 710 c 0
 667 710 755 662 808 587 c 1
 715 507 l 1
 676 563 599 590 521 590 c 0
 370 590 269 486 247 350 c 0
339 -115 m 0
 347 -68 391 -30 438 -30 c 0
 495 -30 522 -68 514 -115 c 0
 511 -134 496 -161 476 -186 c 2
 366 -320 l 1
 296 -320 l 1
 371 -189 l 1
 348 -174 334 -147 339 -115 c 0
EndSplineSet
EndChar

StartChar: Hcircumflex
Encoding: 292 292 216
Width: 765
VWidth: 0
Flags: HMW
LayerCount: 2
Fore
SplineSet
664 700 m 5
 794 700 l 5
 680 0 l 5
 550 0 l 5
 664 700 l 5
153 418 m 1
 653 418 l 5
 634 298 l 5
 134 298 l 1
 153 418 l 1
199 700 m 1
 329 700 l 1
 215 0 l 1
 85 0 l 1
 199 700 l 1
570 770 m 1
 487 870 l 1
 577 870 l 1
 660 770 l 1
 570 770 l 1
467 870 m 5
 557 870 l 1
 440 770 l 1
 350 770 l 5
 467 870 l 5
EndSplineSet
EndChar

StartChar: hcircumflex
Encoding: 293 293 217
Width: 635
VWidth: 0
Flags: HMW
LayerCount: 2
Fore
SplineSet
622 320 m 5
 570 0 l 1
 445 0 l 1
 494 300 l 1
 622 320 l 5
189 730 m 1
 314 730 l 1
 195 0 l 1
 70 0 l 1
 189 730 l 1
494 300 m 1
 505 369 488 415 398 415 c 0
 319 415 256 370 241 280 c 1
 206 280 l 1
 229 419 317 530 456 530 c 0
 600 530 643 449 622 320 c 5
 494 300 l 1
511 790 m 1
 427 890 l 1
 517 890 l 1
 601 790 l 1
 511 790 l 1
407 890 m 5
 497 890 l 1
 381 790 l 1
 291 790 l 5
 407 890 l 5
EndSplineSet
EndChar

StartChar: Itilde
Encoding: 296 296 218
Width: 300
VWidth: 0
Flags: HMW
LayerCount: 2
Fore
SplineSet
199 700 m 1
 329 700 l 1
 215 0 l 1
 85 0 l 1
 199 700 l 1
143 770 m 5
 55 790 l 1
 72 868 139 917 190 917 c 0
 254 917 282 873 326 873 c 0
 361 873 392 883 396 910 c 1
 482 890 l 1
 463 802 391 763 341 763 c 0
 279 763 254 807 211 807 c 4
 177 807 147 797 143 770 c 5
EndSplineSet
EndChar

StartChar: itilde
Encoding: 297 297 219
Width: 270
VWidth: 0
Flags: HMW
LayerCount: 2
Fore
SplineSet
160 520 m 5
 280 520 l 1
 195 0 l 1
 75 0 l 5
 160 520 l 5
111 590 m 5
 23 610 l 1
 40 688 107 737 158 737 c 0
 222 737 250 693 294 693 c 0
 329 693 360 703 364 730 c 1
 451 710 l 1
 432 622 359 583 309 583 c 0
 247 583 222 627 179 627 c 4
 145 627 115 617 111 590 c 5
EndSplineSet
EndChar

StartChar: Imacron
Encoding: 298 298 220
Width: 300
VWidth: 0
Flags: HMW
LayerCount: 2
Fore
SplineSet
199 700 m 1
 329 700 l 1
 215 0 l 1
 85 0 l 1
 199 700 l 1
114 850 m 1
 418 850 l 5
 405 770 l 5
 101 770 l 1
 114 850 l 1
EndSplineSet
EndChar

StartChar: imacron
Encoding: 299 299 221
Width: 270
VWidth: 0
Flags: HMW
LayerCount: 2
Fore
SplineSet
160 520 m 5
 280 520 l 1
 195 0 l 1
 75 0 l 5
 160 520 l 5
82 670 m 1
 386 670 l 5
 373 590 l 5
 69 590 l 1
 82 670 l 1
EndSplineSet
EndChar

StartChar: Ibreve
Encoding: 300 300 222
Width: 300
VWidth: 0
Flags: HMW
LayerCount: 2
Fore
SplineSet
199 700 m 1
 329 700 l 1
 215 0 l 1
 85 0 l 1
 199 700 l 1
269 870 m 1
 229 870 206 884 214 932 c 1
 98 926 l 1
 82 827 141 750 250 750 c 1
 269 870 l 1
269 870 m 5
 250 750 l 1
 359 750 442 827 458 926 c 1
 344 932 l 5
 336 884 311 870 269 870 c 5
EndSplineSet
EndChar

StartChar: ibreve
Encoding: 301 301 223
Width: 270
VWidth: 0
Flags: HMW
LayerCount: 2
Fore
SplineSet
160 520 m 5
 280 520 l 1
 195 0 l 1
 75 0 l 5
 160 520 l 5
237 690 m 1
 197 690 174 704 182 752 c 1
 66 746 l 1
 50 647 109 570 218 570 c 1
 237 690 l 1
237 690 m 5
 218 570 l 1
 327 570 410 647 426 746 c 1
 312 752 l 5
 304 704 279 690 237 690 c 5
EndSplineSet
EndChar

StartChar: Idotaccent
Encoding: 304 304 224
Width: 300
VWidth: 0
Flags: HMW
LayerCount: 2
Fore
SplineSet
199 700 m 1
 329 700 l 1
 215 0 l 1
 85 0 l 1
 199 700 l 1
181 856 m 0
 189 903 234 942 281 942 c 0
 328 942 361 903 353 856 c 0
 345 809 300 770 253 770 c 0
 206 770 173 809 181 856 c 0
EndSplineSet
EndChar

StartChar: dotlessi
Encoding: 305 305 225
Width: 270
VWidth: 0
Flags: HMW
AnchorPoint: "ced" 135 0 basechar 0
LayerCount: 2
Fore
SplineSet
160 520 m 5
 280 520 l 1
 195 0 l 1
 75 0 l 5
 160 520 l 5
EndSplineSet
EndChar

StartChar: Jcircumflex
Encoding: 308 308 226
Width: 599
VWidth: 0
Flags: HMW
LayerCount: 2
Fore
SplineSet
436 260 m 1
 508 700 l 1
 633 700 l 1
 561 260 l 1
 436 260 l 1
436 260 m 1
 561 260 l 1
 530 71 412 -10 253 -10 c 0
 145 -10 62 36 36 157 c 1
 142 222 l 1
 163 139 213 105 272 105 c 0
 349 105 418 151 436 260 c 1
624 770 m 1
 541 870 l 1
 631 870 l 1
 714 770 l 1
 624 770 l 1
521 870 m 5
 611 870 l 1
 494 770 l 1
 404 770 l 5
 521 870 l 5
EndSplineSet
EndChar

StartChar: jcircumflex
Encoding: 309 309 227
Width: 270
VWidth: 0
Flags: HMW
LayerCount: 2
Fore
SplineSet
164 520 m 1
 284 520 l 1
 189 -60 l 1
 72 -41 l 5
 164 520 l 1
22 -96 m 5
 10 -210 l 1
 -47 -210 -95 -194 -116 -160 c 1
 -62 -62 l 5
 -48 -81 -21 -96 22 -96 c 5
72 -41 m 5
 189 -60 l 1
 176 -139 109 -210 10 -210 c 1
 22 -96 l 5
 59 -96 65 -81 72 -41 c 5
290 590 m 1
 206 690 l 1
 296 690 l 1
 380 590 l 1
 290 590 l 1
186 690 m 5
 276 690 l 1
 160 590 l 1
 70 590 l 5
 186 690 l 5
EndSplineSet
EndChar

StartChar: uni0136
Encoding: 310 310 228
Width: 745
VWidth: 0
Flags: HMW
LayerCount: 2
Fore
SplineSet
333 413 m 1
 477 413 l 1
 740 0 l 1
 596 0 l 1
 333 413 l 1
659 700 m 1
 804 700 l 1
 244 207 l 5
 122 230 l 1
 659 700 l 1
194 700 m 1
 324 700 l 1
 210 0 l 1
 80 0 l 1
 194 700 l 1
303 -105 m 0
 311 -58 355 -20 402 -20 c 0
 459 -20 486 -58 478 -105 c 0
 475 -124 461 -151 441 -176 c 2
 330 -310 l 1
 260 -310 l 1
 335 -179 l 1
 312 -164 298 -137 303 -105 c 0
EndSplineSet
EndChar

StartChar: uni0137
Encoding: 311 311 229
Width: 615
VWidth: 0
Flags: HMW
LayerCount: 2
Fore
SplineSet
272 291 m 1
 401 311 l 1
 610 0 l 1
 472 0 l 1
 272 291 l 1
529 520 m 1
 675 520 l 1
 208 110 l 1
 115 154 l 1
 529 520 l 1
184 730 m 1
 309 730 l 1
 190 0 l 1
 65 0 l 1
 184 730 l 1
211 -105 m 0
 219 -58 263 -20 310 -20 c 0
 367 -20 394 -58 386 -105 c 0
 383 -124 368 -151 348 -176 c 2
 238 -310 l 1
 168 -310 l 1
 242 -179 l 1
 219 -164 206 -137 211 -105 c 0
EndSplineSet
EndChar

StartChar: Lacute
Encoding: 313 313 230
Width: 655
VWidth: 0
Flags: HM
LayerCount: 2
Fore
SplineSet
105 120 m 5
 630 120 l 1
 610 0 l 1
 85 0 l 5
 105 120 l 5
199 700 m 5
 329 700 l 5
 215 0 l 5
 85 0 l 5
 199 700 l 5
307 770 m 1
 227 770 l 5
 330 910 l 5
 450 910 l 1
 307 770 l 1
EndSplineSet
EndChar

StartChar: lacute
Encoding: 314 314 231
Width: 265
VWidth: 0
Flags: HMW
LayerCount: 2
Fore
SplineSet
189 730 m 1
 314 730 l 1
 195 0 l 1
 70 0 l 1
 189 730 l 1
279 790 m 1
 199 790 l 5
 301 930 l 5
 421 930 l 1
 279 790 l 1
EndSplineSet
EndChar

StartChar: uni013B
Encoding: 315 315 232
Width: 655
VWidth: 0
Flags: HM
LayerCount: 2
Fore
SplineSet
105 120 m 5
 630 120 l 1
 610 0 l 1
 85 0 l 5
 105 120 l 5
199 700 m 5
 329 700 l 5
 215 0 l 5
 85 0 l 5
 199 700 l 5
271 -105 m 0
 279 -58 323 -20 370 -20 c 0
 427 -20 454 -58 446 -105 c 0
 443 -124 428 -151 408 -176 c 2
 298 -310 l 1
 228 -310 l 1
 302 -179 l 1
 279 -164 266 -137 271 -105 c 0
EndSplineSet
EndChar

StartChar: uni013C
Encoding: 316 316 233
Width: 265
VWidth: 0
Flags: HMW
LayerCount: 2
Fore
SplineSet
189 730 m 1
 314 730 l 1
 195 0 l 1
 70 0 l 1
 189 730 l 1
26 -105 m 0
 34 -58 78 -20 125 -20 c 0
 182 -20 209 -58 201 -105 c 0
 198 -124 183 -151 163 -176 c 2
 53 -310 l 1
 -17 -310 l 1
 57 -179 l 1
 34 -164 21 -137 26 -105 c 0
EndSplineSet
EndChar

StartChar: Lcaron
Encoding: 317 317 234
Width: 655
VWidth: 0
Flags: HMW
LayerCount: 2
Fore
SplineSet
105 120 m 5
 630 120 l 1
 610 0 l 1
 85 0 l 5
 105 120 l 5
199 700 m 5
 329 700 l 5
 215 0 l 5
 85 0 l 5
 199 700 l 5
458 665 m 0
 466 712 510 750 557 750 c 0
 614 750 641 712 633 665 c 0
 630 646 615 619 595 594 c 2
 485 460 l 1
 415 460 l 1
 490 591 l 1
 467 606 453 633 458 665 c 0
EndSplineSet
EndChar

StartChar: lcaron
Encoding: 318 318 235
Width: 265
VWidth: 0
Flags: HMW
LayerCount: 2
Fore
SplineSet
189 730 m 1
 314 730 l 1
 195 0 l 1
 70 0 l 1
 189 730 l 1
322 685 m 0
 330 732 373 770 420 770 c 0
 477 770 505 732 497 685 c 0
 494 666 479 639 459 614 c 2
 348 480 l 1
 278 480 l 1
 353 611 l 1
 330 626 317 653 322 685 c 0
EndSplineSet
EndChar

StartChar: Ldot
Encoding: 319 319 236
Width: 655
VWidth: 0
Flags: HM
LayerCount: 2
Fore
SplineSet
105 120 m 5
 630 120 l 1
 610 0 l 1
 85 0 l 5
 105 120 l 5
199 700 m 5
 329 700 l 5
 215 0 l 5
 85 0 l 5
 199 700 l 5
351 375 m 4
 359 422 403 460 450 460 c 4
 497 460 529 422 521 375 c 4
 513 328 469 290 422 290 c 4
 375 290 343 328 351 375 c 4
EndSplineSet
EndChar

StartChar: ldot
Encoding: 320 320 237
Width: 450
VWidth: 0
Flags: HM
LayerCount: 2
Fore
SplineSet
189 730 m 1
 314 730 l 1
 195 0 l 1
 70 0 l 1
 189 730 l 1
343 325 m 4
 351 372 395 410 442 410 c 4
 489 410 521 372 513 325 c 4
 505 278 461 240 414 240 c 4
 367 240 335 278 343 325 c 4
EndSplineSet
EndChar

StartChar: Nacute
Encoding: 323 323 238
Width: 790
VWidth: 0
Flags: HMW
LayerCount: 2
Fore
SplineSet
710 0 m 1
 590 0 l 1
 594 24 l 1
 712 14 l 1
 710 0 l 1
314 700 m 1
 311 680 l 1
 191 680 l 1
 194 700 l 1
 314 700 l 1
187 655 m 5
 314 700 l 1
 717 45 l 1
 590 0 l 1
 187 655 l 5
694 700 m 1
 824 700 l 1
 710 0 l 1
 583 20 l 1
 694 700 l 1
194 700 m 1
 321 680 l 1
 210 0 l 1
 80 0 l 1
 194 700 l 1
535 770 m 1
 455 770 l 5
 558 910 l 5
 678 910 l 1
 535 770 l 1
EndSplineSet
EndChar

StartChar: nacute
Encoding: 324 324 239
Width: 635
VWidth: 0
Flags: HMW
LayerCount: 2
Fore
SplineSet
622 320 m 1
 570 0 l 1
 445 0 l 1
 494 300 l 1
 622 320 l 1
155 520 m 1
 280 520 l 1
 195 0 l 1
 70 0 l 1
 155 520 l 1
494 300 m 1
 505 370 478 415 398 415 c 0
 320 415 256 370 241 280 c 1
 206 280 l 1
 229 419 317 530 466 530 c 0
 600 530 643 449 622 320 c 5
 494 300 l 1
454 590 m 1
 374 590 l 5
 476 730 l 5
 596 730 l 1
 454 590 l 1
EndSplineSet
EndChar

StartChar: uni0145
Encoding: 325 325 240
Width: 790
VWidth: 0
Flags: HMW
LayerCount: 2
Fore
SplineSet
710 0 m 1
 590 0 l 1
 594 24 l 1
 712 14 l 1
 710 0 l 1
314 700 m 1
 311 680 l 1
 191 680 l 1
 194 700 l 1
 314 700 l 1
187 655 m 5
 314 700 l 1
 717 45 l 1
 590 0 l 1
 187 655 l 5
694 700 m 1
 824 700 l 1
 710 0 l 1
 583 20 l 1
 694 700 l 1
194 700 m 1
 321 680 l 1
 210 0 l 1
 80 0 l 1
 194 700 l 1
286 -105 m 0
 294 -58 338 -20 385 -20 c 0
 442 -20 469 -58 461 -105 c 0
 458 -124 443 -151 423 -176 c 2
 313 -310 l 1
 243 -310 l 1
 317 -179 l 1
 294 -164 281 -137 286 -105 c 0
EndSplineSet
EndChar

StartChar: uni0146
Encoding: 326 326 241
Width: 635
VWidth: 0
Flags: HMW
LayerCount: 2
Fore
SplineSet
622 320 m 1
 570 0 l 1
 445 0 l 1
 494 300 l 1
 622 320 l 1
155 520 m 1
 280 520 l 1
 195 0 l 1
 70 0 l 1
 155 520 l 1
494 300 m 1
 505 370 478 415 398 415 c 0
 320 415 256 370 241 280 c 1
 206 280 l 1
 229 419 317 530 466 530 c 0
 600 530 643 449 622 320 c 5
 494 300 l 1
233 -105 m 0
 241 -58 285 -20 332 -20 c 0
 389 -20 416 -58 408 -105 c 0
 405 -124 391 -151 371 -176 c 2
 260 -310 l 1
 190 -310 l 1
 265 -179 l 1
 242 -164 228 -137 233 -105 c 0
EndSplineSet
EndChar

StartChar: Ncaron
Encoding: 327 327 242
Width: 790
VWidth: 0
Flags: HMW
LayerCount: 2
Fore
SplineSet
710 0 m 1
 590 0 l 1
 594 24 l 1
 712 14 l 1
 710 0 l 1
314 700 m 1
 311 680 l 1
 191 680 l 1
 194 700 l 1
 314 700 l 1
187 655 m 5
 314 700 l 1
 717 45 l 1
 590 0 l 1
 187 655 l 5
694 700 m 1
 824 700 l 1
 710 0 l 1
 583 20 l 1
 694 700 l 1
194 700 m 1
 321 680 l 1
 210 0 l 1
 80 0 l 1
 194 700 l 1
447 870 m 1
 530 770 l 1
 440 770 l 5
 357 870 l 5
 447 870 l 1
550 770 m 1
 460 770 l 1
 577 870 l 1
 667 870 l 1
 550 770 l 1
EndSplineSet
EndChar

StartChar: ncaron
Encoding: 328 328 243
Width: 635
VWidth: 0
Flags: HMW
LayerCount: 2
Fore
SplineSet
622 320 m 1
 570 0 l 1
 445 0 l 1
 494 300 l 1
 622 320 l 1
155 520 m 1
 280 520 l 1
 195 0 l 1
 70 0 l 1
 155 520 l 1
494 300 m 1
 505 370 478 415 398 415 c 0
 320 415 256 370 241 280 c 1
 206 280 l 1
 229 419 317 530 466 530 c 0
 600 530 643 449 622 320 c 5
 494 300 l 1
365 690 m 1
 449 590 l 1
 359 590 l 5
 275 690 l 5
 365 690 l 1
469 590 m 1
 379 590 l 1
 495 690 l 1
 585 690 l 1
 469 590 l 1
EndSplineSet
EndChar

StartChar: Omacron
Encoding: 332 332 244
Width: 850
VWidth: 0
Flags: HM
LayerCount: 2
Fore
SplineSet
247 350 m 4
 225 214 302 110 443 110 c 4
 584 110 695 214 717 350 c 4
 739 486 662 590 521 590 c 4
 380 590 269 486 247 350 c 4
117 350 m 4
 149 549 336 710 541 710 c 4
 746 710 879 549 847 350 c 4
 815 151 628 -10 423 -10 c 4
 218 -10 85 151 117 350 c 4
411 850 m 1
 715 850 l 5
 702 770 l 5
 398 770 l 1
 411 850 l 1
EndSplineSet
EndChar

StartChar: omacron
Encoding: 333 333 245
Width: 650
VWidth: 0
Flags: HM
LayerCount: 2
Fore
SplineSet
212 260 m 0
 198 171 245 105 342 105 c 0
 439 105 508 171 522 260 c 0
 536 349 490 415 393 415 c 0
 296 415 226 349 212 260 c 0
87 260 m 0
 111 409 252 530 411 530 c 0
 570 530 671 409 647 260 c 0
 623 111 482 -10 323 -10 c 0
 164 -10 63 111 87 260 c 0
282 670 m 1
 586 670 l 5
 573 590 l 5
 269 590 l 1
 282 670 l 1
EndSplineSet
EndChar

StartChar: Obreve
Encoding: 334 334 246
Width: 850
VWidth: 0
Flags: HM
LayerCount: 2
Fore
SplineSet
247 350 m 4
 225 214 302 110 443 110 c 4
 584 110 695 214 717 350 c 4
 739 486 662 590 521 590 c 4
 380 590 269 486 247 350 c 4
117 350 m 4
 149 549 336 710 541 710 c 4
 746 710 879 549 847 350 c 4
 815 151 628 -10 423 -10 c 4
 218 -10 85 151 117 350 c 4
567 870 m 1
 527 870 504 884 512 932 c 1
 396 926 l 1
 380 827 438 750 547 750 c 1
 567 870 l 1
567 870 m 5
 547 750 l 1
 656 750 740 827 756 926 c 1
 642 932 l 5
 634 884 609 870 567 870 c 5
EndSplineSet
EndChar

StartChar: obreve
Encoding: 335 335 247
Width: 650
VWidth: 0
Flags: HM
LayerCount: 2
Fore
SplineSet
212 260 m 0
 198 171 245 105 342 105 c 0
 439 105 508 171 522 260 c 0
 536 349 490 415 393 415 c 0
 296 415 226 349 212 260 c 0
87 260 m 0
 111 409 252 530 411 530 c 0
 570 530 671 409 647 260 c 0
 623 111 482 -10 323 -10 c 0
 164 -10 63 111 87 260 c 0
437 690 m 1
 397 690 374 704 382 752 c 1
 266 746 l 1
 250 647 309 570 418 570 c 1
 437 690 l 1
437 690 m 5
 418 570 l 1
 527 570 610 647 626 746 c 1
 512 752 l 5
 504 704 479 690 437 690 c 5
EndSplineSet
EndChar

StartChar: Racute
Encoding: 340 340 248
Width: 718
VWidth: 0
Flags: HMW
LayerCount: 2
Fore
SplineSet
423 358 m 1
 511 358 577 392 589 467 c 0
 601 542 547 580 459 580 c 1
 499 700 l 1
 648 700 741 602 719 467 c 0
 697 333 573 238 424 238 c 1
 423 358 l 1
199 700 m 5
 329 700 l 5
 215 0 l 5
 85 0 l 5
 199 700 l 5
234 700 m 5
 499 700 l 1
 459 580 l 1
 214 580 l 5
 234 700 l 5
178 358 m 5
 423 358 l 1
 424 238 l 1
 159 238 l 5
 178 358 l 5
355 320 m 1
 500 320 l 1
 688 0 l 1
 543 0 l 1
 355 320 l 1
458 770 m 1
 378 770 l 5
 481 910 l 5
 601 910 l 1
 458 770 l 1
EndSplineSet
EndChar

StartChar: racute
Encoding: 341 341 249
Width: 410
VWidth: 0
Flags: HMW
LayerCount: 2
Fore
SplineSet
150 520 m 1
 275 520 l 1
 190 0 l 1
 65 0 l 1
 150 520 l 1
456 405 m 1
 436 405 l 2
 322 405 250 370 234 270 c 1
 199 270 l 1
 222 409 286 520 475 520 c 1
 456 405 l 1
356 590 m 1
 276 590 l 5
 379 730 l 5
 499 730 l 1
 356 590 l 1
EndSplineSet
EndChar

StartChar: uni0156
Encoding: 342 342 250
Width: 718
VWidth: 0
Flags: HMW
LayerCount: 2
Fore
SplineSet
423 358 m 1
 511 358 577 392 589 467 c 0
 601 542 547 580 459 580 c 1
 499 700 l 1
 648 700 741 602 719 467 c 0
 697 333 573 238 424 238 c 1
 423 358 l 1
199 700 m 5
 329 700 l 5
 215 0 l 5
 85 0 l 5
 199 700 l 5
234 700 m 5
 499 700 l 1
 459 580 l 1
 214 580 l 5
 234 700 l 5
178 358 m 5
 423 358 l 1
 424 238 l 1
 159 238 l 5
 178 358 l 5
355 320 m 1
 500 320 l 1
 688 0 l 1
 543 0 l 1
 355 320 l 1
295 -105 m 0
 303 -58 347 -20 394 -20 c 0
 451 -20 478 -58 470 -105 c 0
 467 -124 452 -151 432 -176 c 2
 322 -310 l 1
 252 -310 l 1
 326 -179 l 1
 303 -164 290 -137 295 -105 c 0
EndSplineSet
EndChar

StartChar: uni0157
Encoding: 343 343 251
Width: 410
VWidth: 0
Flags: HMW
LayerCount: 2
Fore
SplineSet
150 520 m 1
 275 520 l 1
 190 0 l 1
 65 0 l 1
 150 520 l 1
456 405 m 1
 436 405 l 2
 322 405 250 370 234 270 c 1
 199 270 l 1
 222 409 286 520 475 520 c 1
 456 405 l 1
31 -105 m 0
 39 -58 83 -20 130 -20 c 0
 187 -20 214 -58 206 -105 c 0
 203 -124 188 -151 168 -176 c 2
 58 -310 l 1
 -12 -310 l 1
 62 -179 l 1
 39 -164 26 -137 31 -105 c 0
EndSplineSet
EndChar

StartChar: Rcaron
Encoding: 344 344 252
Width: 718
VWidth: 0
Flags: HMW
LayerCount: 2
Fore
SplineSet
423 358 m 1
 511 358 577 392 589 467 c 0
 601 542 547 580 459 580 c 1
 499 700 l 1
 648 700 741 602 719 467 c 0
 697 333 573 238 424 238 c 1
 423 358 l 1
199 700 m 5
 329 700 l 5
 215 0 l 5
 85 0 l 5
 199 700 l 5
234 700 m 5
 499 700 l 1
 459 580 l 1
 214 580 l 5
 234 700 l 5
178 358 m 5
 423 358 l 1
 424 238 l 1
 159 238 l 5
 178 358 l 5
355 320 m 1
 500 320 l 1
 688 0 l 1
 543 0 l 1
 355 320 l 1
319 870 m 1
 403 770 l 1
 313 770 l 5
 229 870 l 5
 319 870 l 1
423 770 m 1
 333 770 l 1
 449 870 l 1
 539 870 l 1
 423 770 l 1
EndSplineSet
EndChar

StartChar: rcaron
Encoding: 345 345 253
Width: 410
VWidth: 0
Flags: HMW
LayerCount: 2
Fore
SplineSet
150 520 m 1
 275 520 l 1
 190 0 l 1
 65 0 l 1
 150 520 l 1
456 405 m 1
 436 405 l 2
 322 405 250 370 234 270 c 1
 199 270 l 1
 222 409 286 520 475 520 c 1
 456 405 l 1
267 690 m 1
 351 590 l 1
 261 590 l 5
 177 690 l 5
 267 690 l 1
371 590 m 1
 281 590 l 1
 397 690 l 1
 487 690 l 1
 371 590 l 1
EndSplineSet
EndChar

StartChar: Sacute
Encoding: 346 346 254
Width: 625
VWidth: 0
Flags: HM
LayerCount: 2
Fore
SplineSet
492 194 m 1
 618 205 l 1
 597 76 475 -10 326 -10 c 0
 197 -10 117 36 58 113 c 1
 152 200 l 1
 191 146 250 102 353 102 c 0
 436 102 484 144 492 194 c 1
293 512 m 5
 162 504 l 1
 184 640 322 710 441 710 c 0
 560 710 625 674 669 622 c 1
 584 535 l 5
 551 573 499 587 421 587 c 0
 353 587 300 557 293 512 c 5
399 425 m 0
 527 396 643 357 618 205 c 1
 492 194 l 1
 502 255 460 286 370 305 c 0
 252 329 140 368 162 504 c 1
 293 512 l 1
 286 468 305 446 399 425 c 0
470 770 m 1
 390 770 l 5
 493 910 l 5
 613 910 l 1
 470 770 l 1
EndSplineSet
EndChar

StartChar: sacute
Encoding: 347 347 255
Width: 520
VWidth: 0
Flags: HM
LayerCount: 2
Fore
SplineSet
384 150 m 1
 501 162 l 1
 485 66 407 -10 268 -10 c 0
 179 -10 108 18 45 94 c 1
 132 178 l 1
 181 124 227 105 282 105 c 0
 338 105 379 121 384 150 c 1
243 378 m 1
 117 372 l 1
 132 466 229 530 336 530 c 0
 435 530 497 496 531 448 c 1
 446 370 l 1
 419 402 376 420 328 420 c 0
 270 420 246 397 243 378 c 1
328 327 m 0
 443 311 519 272 501 162 c 1
 384 150 l 1
 390 186 376 202 280 216 c 0
 179 231 100 267 117 372 c 1
 243 378 l 1
 240 358 252 338 328 327 c 0
391 590 m 1
 311 590 l 5
 414 730 l 5
 534 730 l 1
 391 590 l 1
EndSplineSet
EndChar

StartChar: Scircumflex
Encoding: 348 348 256
Width: 625
VWidth: 0
Flags: HM
LayerCount: 2
Fore
SplineSet
492 194 m 1
 618 205 l 1
 597 76 475 -10 326 -10 c 0
 197 -10 117 36 58 113 c 1
 152 200 l 1
 191 146 250 102 353 102 c 0
 436 102 484 144 492 194 c 1
293 512 m 5
 162 504 l 1
 184 640 322 710 441 710 c 0
 560 710 625 674 669 622 c 1
 584 535 l 5
 551 573 499 587 421 587 c 0
 353 587 300 557 293 512 c 5
399 425 m 0
 527 396 643 357 618 205 c 1
 492 194 l 1
 502 255 460 286 370 305 c 0
 252 329 140 368 162 504 c 1
 293 512 l 1
 286 468 305 446 399 425 c 0
495 770 m 1
 412 870 l 1
 502 870 l 1
 585 770 l 1
 495 770 l 1
392 870 m 5
 482 870 l 1
 365 770 l 1
 275 770 l 5
 392 870 l 5
EndSplineSet
EndChar

StartChar: scircumflex
Encoding: 349 349 257
Width: 520
VWidth: 0
Flags: HM
LayerCount: 2
Fore
SplineSet
384 150 m 1
 501 162 l 1
 485 66 407 -10 268 -10 c 0
 179 -10 108 18 45 94 c 1
 132 178 l 1
 181 124 227 105 282 105 c 0
 338 105 379 121 384 150 c 1
243 378 m 1
 117 372 l 1
 132 466 229 530 336 530 c 0
 435 530 497 496 531 448 c 1
 446 370 l 1
 419 402 376 420 328 420 c 0
 270 420 246 397 243 378 c 1
328 327 m 0
 443 311 519 272 501 162 c 1
 384 150 l 1
 390 186 376 202 280 216 c 0
 179 231 100 267 117 372 c 1
 243 378 l 1
 240 358 252 338 328 327 c 0
416 590 m 1
 332 690 l 1
 422 690 l 1
 506 590 l 1
 416 590 l 1
312 690 m 5
 402 690 l 1
 286 590 l 1
 196 590 l 5
 312 690 l 5
EndSplineSet
EndChar

StartChar: Scedilla
Encoding: 350 350 258
Width: 625
VWidth: 0
Flags: HM
LayerCount: 2
Fore
SplineSet
492 194 m 1
 618 205 l 1
 597 76 475 -10 326 -10 c 0
 197 -10 117 36 58 113 c 1
 152 200 l 1
 191 146 250 102 353 102 c 0
 436 102 484 144 492 194 c 1
293 512 m 5
 162 504 l 1
 184 640 322 710 441 710 c 0
 560 710 625 674 669 622 c 1
 584 535 l 5
 551 573 499 587 421 587 c 0
 353 587 300 557 293 512 c 5
399 425 m 0
 527 396 643 357 618 205 c 1
 492 194 l 1
 502 255 460 286 370 305 c 0
 252 329 140 368 162 504 c 1
 293 512 l 1
 286 468 305 446 399 425 c 0
308 -3 m 1
 348 -3 l 1
 392 -37 460 -77 449 -145 c 0
 440 -202 412 -237 335 -237 c 4
 288 -237 265 -213 246 -198 c 1
 279 -128 l 1
 293 -141 312 -153 332 -153 c 0
 358 -153 369 -142 372 -122 c 0
 376 -97 349 -42 308 -3 c 1
EndSplineSet
EndChar

StartChar: scedilla
Encoding: 351 351 259
Width: 520
VWidth: 0
Flags: HM
LayerCount: 2
Fore
SplineSet
384 150 m 1
 501 162 l 1
 485 66 407 -10 268 -10 c 0
 179 -10 108 18 45 94 c 1
 132 178 l 1
 181 124 227 105 282 105 c 0
 338 105 379 121 384 150 c 1
243 378 m 1
 117 372 l 1
 132 466 229 530 336 530 c 0
 435 530 497 496 531 448 c 1
 446 370 l 1
 419 402 376 420 328 420 c 0
 270 420 246 397 243 378 c 1
328 327 m 0
 443 311 519 272 501 162 c 1
 384 150 l 1
 390 186 376 202 280 216 c 0
 179 231 100 267 117 372 c 1
 243 378 l 1
 240 358 252 338 328 327 c 0
255 -3 m 1
 295 -3 l 1
 339 -37 407 -77 396 -145 c 0
 387 -202 359 -237 282 -237 c 4
 235 -237 212 -213 193 -198 c 1
 226 -128 l 1
 240 -141 259 -153 279 -153 c 0
 305 -153 316 -142 319 -122 c 0
 323 -97 296 -42 255 -3 c 1
EndSplineSet
EndChar

StartChar: Scaron
Encoding: 352 352 260
Width: 625
VWidth: 0
Flags: HM
LayerCount: 2
Fore
SplineSet
492 194 m 1
 618 205 l 1
 597 76 475 -10 326 -10 c 0
 197 -10 117 36 58 113 c 1
 152 200 l 1
 191 146 250 102 353 102 c 0
 436 102 484 144 492 194 c 1
293 512 m 5
 162 504 l 1
 184 640 322 710 441 710 c 0
 560 710 625 674 669 622 c 1
 584 535 l 5
 551 573 499 587 421 587 c 0
 353 587 300 557 293 512 c 5
399 425 m 0
 527 396 643 357 618 205 c 1
 492 194 l 1
 502 255 460 286 370 305 c 0
 252 329 140 368 162 504 c 1
 293 512 l 1
 286 468 305 446 399 425 c 0
382 870 m 1
 465 770 l 1
 375 770 l 5
 292 870 l 5
 382 870 l 1
485 770 m 1
 395 770 l 1
 512 870 l 1
 602 870 l 1
 485 770 l 1
EndSplineSet
EndChar

StartChar: scaron
Encoding: 353 353 261
Width: 520
VWidth: 0
Flags: HM
LayerCount: 2
Fore
SplineSet
384 150 m 1
 501 162 l 1
 485 66 407 -10 268 -10 c 0
 179 -10 108 18 45 94 c 1
 132 178 l 1
 181 124 227 105 282 105 c 0
 338 105 379 121 384 150 c 1
243 378 m 1
 117 372 l 1
 132 466 229 530 336 530 c 0
 435 530 497 496 531 448 c 1
 446 370 l 1
 419 402 376 420 328 420 c 0
 270 420 246 397 243 378 c 1
328 327 m 0
 443 311 519 272 501 162 c 1
 384 150 l 1
 390 186 376 202 280 216 c 0
 179 231 100 267 117 372 c 1
 243 378 l 1
 240 358 252 338 328 327 c 0
302 690 m 1
 386 590 l 1
 296 590 l 5
 212 690 l 5
 302 690 l 1
406 590 m 1
 316 590 l 1
 432 690 l 1
 522 690 l 1
 406 590 l 1
EndSplineSet
EndChar

StartChar: uni0162
Encoding: 354 354 262
Width: 690
VWidth: 0
Flags: HMW
LayerCount: 2
Fore
SplineSet
149 700 m 5
 769 700 l 1
 749 580 l 1
 129 580 l 5
 149 700 l 5
394 700 m 1
 524 700 l 1
 410 0 l 1
 280 0 l 1
 394 700 l 1
324 7 m 1
 364 7 l 1
 408 -27 477 -67 466 -135 c 0
 457 -192 429 -227 352 -227 c 4
 305 -227 281 -203 262 -188 c 1
 295 -118 l 1
 309 -131 328 -143 348 -143 c 0
 374 -143 385 -132 388 -112 c 0
 392 -87 365 -32 324 7 c 1
EndSplineSet
EndChar

StartChar: uni0163
Encoding: 355 355 263
Width: 420
VWidth: 0
Flags: HMW
LayerCount: 2
Fore
SplineSet
115 520 m 1
 465 520 l 1
 446 405 l 1
 96 405 l 1
 115 520 l 1
251 160 m 1
 123 140 l 1
 210 673 l 1
 335 673 l 1
 251 160 l 1
291 105 m 1
 325 105 343 116 356 130 c 5
 409 42 l 1
 377 13 328 -10 266 -10 c 1
 291 105 l 1
251 160 m 1
 246 130 253 105 291 105 c 1
 266 -10 l 1
 167 -10 110 61 123 140 c 1
 251 160 l 1
226 -3 m 1
 266 -3 l 1
 310 -37 378 -77 367 -145 c 0
 358 -202 330 -237 253 -237 c 4
 206 -237 183 -213 164 -198 c 1
 197 -128 l 1
 211 -141 230 -153 250 -153 c 0
 276 -153 287 -142 290 -122 c 0
 294 -97 267 -42 226 -3 c 1
EndSplineSet
EndChar

StartChar: Tcaron
Encoding: 356 356 264
Width: 690
VWidth: 0
Flags: HMW
LayerCount: 2
Fore
SplineSet
149 700 m 5
 769 700 l 1
 749 580 l 1
 129 580 l 5
 149 700 l 5
394 700 m 1
 524 700 l 1
 410 0 l 1
 280 0 l 1
 394 700 l 1
419 870 m 1
 503 770 l 1
 413 770 l 5
 329 870 l 5
 419 870 l 1
523 770 m 1
 433 770 l 1
 549 870 l 1
 639 870 l 1
 523 770 l 1
EndSplineSet
EndChar

StartChar: tcaron
Encoding: 357 357 265
Width: 420
VWidth: 0
Flags: HMW
LayerCount: 2
Fore
SplineSet
115 520 m 1
 465 520 l 1
 446 405 l 1
 96 405 l 1
 115 520 l 1
251 160 m 1
 123 140 l 1
 210 673 l 1
 335 673 l 1
 251 160 l 1
291 105 m 1
 325 105 343 116 356 130 c 5
 409 42 l 1
 377 13 328 -10 266 -10 c 1
 291 105 l 1
251 160 m 1
 246 130 253 105 291 105 c 1
 266 -10 l 1
 167 -10 110 61 123 140 c 1
 251 160 l 1
375 758 m 0
 383 805 427 843 474 843 c 0
 531 843 558 805 550 758 c 0
 547 739 533 712 513 687 c 2
 402 553 l 1
 332 553 l 1
 407 684 l 1
 384 699 370 726 375 758 c 0
EndSplineSet
EndChar

StartChar: Utilde
Encoding: 360 360 266
Width: 760
VWidth: 0
Flags: HMW
LayerCount: 2
Fore
SplineSet
612 290 m 1
 679 700 l 1
 804 700 l 1
 736 280 l 1
 612 290 l 1
116 280 m 1
 184 700 l 1
 309 700 l 1
 242 290 l 1
 116 280 l 1
612 290 m 1
 736 280 l 1
 708 111 557 -10 378 -10 c 0
 199 -10 88 111 116 280 c 1
 242 290 l 1
 224 181 292 115 399 115 c 4
 506 115 594 181 612 290 c 1
375 770 m 5
 288 790 l 1
 305 868 372 917 423 917 c 0
 487 917 515 873 559 873 c 0
 594 873 624 883 628 910 c 1
 715 890 l 1
 696 802 623 763 573 763 c 0
 511 763 487 807 444 807 c 4
 410 807 379 797 375 770 c 5
EndSplineSet
EndChar

StartChar: utilde
Encoding: 361 361 267
Width: 635
VWidth: 0
Flags: HMW
LayerCount: 2
Fore
SplineSet
113 200 m 5
 165 520 l 1
 290 520 l 1
 241 220 l 1
 113 200 l 5
550 0 m 1
 425 0 l 1
 510 520 l 1
 635 520 l 1
 550 0 l 1
241 220 m 1
 230 150 242 105 322 105 c 0
 400 105 449 150 464 240 c 1
 499 240 l 1
 476 101 422 -10 273 -10 c 0
 154 -10 92 71 113 200 c 5
 241 220 l 1
299 590 m 5
 211 610 l 1
 228 688 295 737 346 737 c 0
 410 737 438 693 482 693 c 0
 517 693 547 703 551 730 c 1
 638 710 l 1
 619 622 546 583 496 583 c 0
 434 583 410 627 367 627 c 4
 333 627 303 617 299 590 c 5
EndSplineSet
EndChar

StartChar: Umacron
Encoding: 362 362 268
Width: 760
VWidth: 0
Flags: HMW
LayerCount: 2
Fore
SplineSet
612 290 m 1
 679 700 l 1
 804 700 l 1
 736 280 l 1
 612 290 l 1
116 280 m 1
 184 700 l 1
 309 700 l 1
 242 290 l 1
 116 280 l 1
612 290 m 1
 736 280 l 1
 708 111 557 -10 378 -10 c 0
 199 -10 88 111 116 280 c 1
 242 290 l 1
 224 181 292 115 399 115 c 4
 506 115 594 181 612 290 c 1
346 850 m 1
 650 850 l 5
 637 770 l 5
 333 770 l 1
 346 850 l 1
EndSplineSet
EndChar

StartChar: umacron
Encoding: 363 363 269
Width: 635
VWidth: 0
Flags: HMW
LayerCount: 2
Fore
SplineSet
113 200 m 5
 165 520 l 1
 290 520 l 1
 241 220 l 1
 113 200 l 5
550 0 m 1
 425 0 l 1
 510 520 l 1
 635 520 l 1
 550 0 l 1
241 220 m 1
 230 150 242 105 322 105 c 0
 400 105 449 150 464 240 c 1
 499 240 l 1
 476 101 422 -10 273 -10 c 0
 154 -10 92 71 113 200 c 5
 241 220 l 1
270 670 m 1
 574 670 l 5
 561 590 l 5
 257 590 l 1
 270 670 l 1
EndSplineSet
EndChar

StartChar: Ubreve
Encoding: 364 364 270
Width: 760
VWidth: 0
Flags: HMW
LayerCount: 2
Fore
SplineSet
612 290 m 1
 679 700 l 1
 804 700 l 1
 736 280 l 1
 612 290 l 1
116 280 m 1
 184 700 l 1
 309 700 l 1
 242 290 l 1
 116 280 l 1
612 290 m 1
 736 280 l 1
 708 111 557 -10 378 -10 c 0
 199 -10 88 111 116 280 c 1
 242 290 l 1
 224 181 292 115 399 115 c 4
 506 115 594 181 612 290 c 1
502 870 m 1
 462 870 439 884 447 932 c 1
 331 926 l 1
 315 827 373 750 482 750 c 1
 502 870 l 1
502 870 m 5
 482 750 l 1
 591 750 675 827 691 926 c 1
 577 932 l 5
 569 884 544 870 502 870 c 5
EndSplineSet
EndChar

StartChar: ubreve
Encoding: 365 365 271
Width: 635
VWidth: 0
Flags: HMW
LayerCount: 2
Fore
SplineSet
113 200 m 5
 165 520 l 1
 290 520 l 1
 241 220 l 1
 113 200 l 5
550 0 m 1
 425 0 l 1
 510 520 l 1
 635 520 l 1
 550 0 l 1
241 220 m 1
 230 150 242 105 322 105 c 0
 400 105 449 150 464 240 c 1
 499 240 l 1
 476 101 422 -10 273 -10 c 0
 154 -10 92 71 113 200 c 5
 241 220 l 1
425 690 m 1
 385 690 362 704 370 752 c 1
 254 746 l 1
 238 647 296 570 405 570 c 1
 425 690 l 1
425 690 m 5
 405 570 l 1
 514 570 598 647 614 746 c 1
 500 752 l 5
 492 704 467 690 425 690 c 5
EndSplineSet
EndChar

StartChar: Uring
Encoding: 366 366 272
Width: 760
VWidth: 0
Flags: HMW
LayerCount: 2
Fore
SplineSet
612 290 m 1
 679 700 l 1
 804 700 l 1
 736 280 l 1
 612 290 l 1
116 280 m 1
 184 700 l 1
 309 700 l 1
 242 290 l 1
 116 280 l 1
612 290 m 1
 736 280 l 1
 708 111 557 -10 378 -10 c 0
 199 -10 88 111 116 280 c 1
 242 290 l 1
 224 181 292 115 399 115 c 4
 506 115 594 181 612 290 c 1
452 870 m 0
 447 841 465 820 494 820 c 0
 523 820 547 841 552 870 c 0
 557 899 539 920 510 920 c 4
 481 920 457 899 452 870 c 0
402 870 m 0
 411 925 463 970 518 970 c 0
 573 970 611 925 602 870 c 0
 593 815 540 770 485 770 c 0
 430 770 393 815 402 870 c 0
EndSplineSet
EndChar

StartChar: uring
Encoding: 367 367 273
Width: 635
VWidth: 0
Flags: HMW
LayerCount: 2
Fore
SplineSet
113 200 m 5
 165 520 l 1
 290 520 l 1
 241 220 l 1
 113 200 l 5
550 0 m 1
 425 0 l 1
 510 520 l 1
 635 520 l 1
 550 0 l 1
241 220 m 1
 230 150 242 105 322 105 c 0
 400 105 449 150 464 240 c 1
 499 240 l 1
 476 101 422 -10 273 -10 c 0
 154 -10 92 71 113 200 c 5
 241 220 l 1
375 690 m 0
 370 661 388 640 417 640 c 0
 446 640 470 661 475 690 c 0
 480 719 462 740 433 740 c 4
 404 740 380 719 375 690 c 0
325 690 m 0
 334 745 386 790 441 790 c 0
 496 790 534 745 525 690 c 0
 516 635 464 590 409 590 c 0
 354 590 316 635 325 690 c 0
EndSplineSet
EndChar

StartChar: Wcircumflex
Encoding: 372 372 274
Width: 1065
VWidth: 0
Flags: HMW
LayerCount: 2
Fore
SplineSet
574 700 m 1
 719 700 l 1
 680 670 l 5
 603 670 l 5
 574 700 l 1
830 0 m 1
 710 0 l 1
 712 10 l 1
 832 10 l 1
 830 0 l 1
719 700 m 1
 832 10 l 1
 710 0 l 1
 603 670 l 5
 719 700 l 1
830 0 m 1
 712 10 l 1
 1034 700 l 1
 1164 700 l 1
 830 0 l 1
355 0 m 1
 235 0 l 1
 237 10 l 1
 357 10 l 1
 355 0 l 1
259 700 m 1
 357 10 l 1
 235 0 l 1
 129 700 l 1
 259 700 l 1
355 0 m 1
 237 10 l 1
 574 700 l 1
 680 670 l 5
 355 0 l 1
690 770 m 1
 607 870 l 1
 697 870 l 1
 780 770 l 1
 690 770 l 1
587 870 m 5
 677 870 l 1
 560 770 l 1
 470 770 l 5
 587 870 l 5
EndSplineSet
EndChar

StartChar: wcircumflex
Encoding: 373 373 275
Width: 795
VWidth: 0
Flags: HMW
LayerCount: 2
Fore
SplineSet
420 520 m 1
 545 520 l 1
 536 467 l 1
 411 467 l 1
 420 520 l 1
640 0 m 1
 505 0 l 1
 506 5 l 1
 624 25 l 1
 640 0 l 1
536 5 m 1
 725 520 l 1
 860 520 l 1
 640 0 l 1
 536 5 l 1
439 457 m 1
 545 520 l 1
 614 25 l 1
 505 0 l 1
 439 457 l 1
290 0 m 5
 155 0 l 5
 159 25 l 5
 291 5 l 5
 290 0 l 5
189 25 m 5
 420 520 l 1
 504 457 l 1
 290 0 l 5
 189 25 l 5
105 520 m 1
 240 520 l 1
 261 5 l 5
 155 0 l 5
 105 520 l 1
549 590 m 1
 465 690 l 1
 555 690 l 1
 639 590 l 1
 549 590 l 1
445 690 m 5
 535 690 l 1
 419 590 l 1
 329 590 l 5
 445 690 l 5
EndSplineSet
EndChar

StartChar: Ycircumflex
Encoding: 374 374 276
Width: 680
VWidth: 0
Flags: HMW
LayerCount: 2
Fore
SplineSet
323 295 m 1
 453 295 l 1
 405 0 l 1
 275 0 l 1
 323 295 l 1
124 700 m 1
 264 700 l 1
 453 295 l 1
 350 217 l 1
 124 700 l 1
644 700 m 5
 784 700 l 1
 400 217 l 1
 323 295 l 1
 644 700 l 5
508 770 m 1
 424 870 l 1
 514 870 l 1
 598 770 l 1
 508 770 l 1
404 870 m 5
 494 870 l 1
 378 770 l 1
 288 770 l 5
 404 870 l 5
EndSplineSet
EndChar

StartChar: ycircumflex
Encoding: 375 375 277
Width: 579
VWidth: 0
Flags: HMW
LayerCount: 2
Fore
SplineSet
105 520 m 1
 235 520 l 1
 375 5 l 1
 249 0 l 1
 105 520 l 1
148 -95 m 1
 135 -210 l 1
 78 -210 32 -184 11 -150 c 1
 77 -62 l 1
 91 -81 109 -95 148 -95 c 1
228 -34 m 2
 524 520 l 1
 649 520 l 1
 339 -60 l 2
 297 -140 224 -210 135 -210 c 1
 148 -95 l 1
 185 -95 207 -74 228 -34 c 2
440 590 m 1
 356 690 l 1
 446 690 l 1
 530 590 l 1
 440 590 l 1
336 690 m 5
 426 690 l 1
 310 590 l 1
 220 590 l 5
 336 690 l 5
EndSplineSet
EndChar

StartChar: Ydieresis
Encoding: 376 376 278
Width: 680
VWidth: 0
Flags: HMW
LayerCount: 2
Fore
SplineSet
323 295 m 1
 453 295 l 1
 405 0 l 1
 275 0 l 1
 323 295 l 1
124 700 m 1
 264 700 l 1
 453 295 l 1
 350 217 l 1
 124 700 l 1
644 700 m 5
 784 700 l 1
 400 217 l 1
 323 295 l 1
 644 700 l 5
261 856 m 0
 269 903 314 942 361 942 c 0
 408 942 441 903 433 856 c 0
 425 809 380 770 333 770 c 0
 286 770 253 809 261 856 c 0
481 856 m 0
 489 903 534 942 581 942 c 0
 628 942 661 903 653 856 c 0
 645 809 600 770 553 770 c 0
 506 770 473 809 481 856 c 0
EndSplineSet
EndChar

StartChar: Zacute
Encoding: 377 377 279
Width: 680
VWidth: 0
Flags: HM
LayerCount: 2
Fore
SplineSet
691 590 m 1
 681 590 l 1
 699 700 l 1
 709 700 l 1
 691 590 l 1
83 110 m 1
 93 110 l 1
 75 0 l 1
 65 0 l 1
 83 110 l 1
199 700 m 1
 699 700 l 1
 679 580 l 1
 179 580 l 1
 199 700 l 1
95 120 m 1
 635 120 l 1
 615 0 l 1
 75 0 l 1
 95 120 l 1
546 590 m 1
 691 590 l 1
 228 110 l 5
 83 110 l 1
 546 590 l 1
505 770 m 1
 425 770 l 5
 528 910 l 5
 648 910 l 1
 505 770 l 1
EndSplineSet
EndChar

StartChar: zacute
Encoding: 378 378 280
Width: 559
VWidth: 0
Flags: HMW
LayerCount: 2
Fore
SplineSet
55 95 m 1
 75 95 l 1
 60 0 l 1
 40 0 l 1
 55 95 l 1
78 115 m 1
 528 115 l 1
 510 0 l 1
 60 0 l 1
 78 115 l 1
564 520 m 1
 584 520 l 1
 569 425 l 1
 549 425 l 1
 564 520 l 1
144 520 m 1
 564 520 l 1
 546 405 l 1
 126 405 l 1
 144 520 l 1
409 425 m 1
 569 425 l 1
 215 95 l 1
 55 95 l 1
 409 425 l 1
416 590 m 1
 336 590 l 5
 438 730 l 5
 558 730 l 1
 416 590 l 1
EndSplineSet
EndChar

StartChar: Zdotaccent
Encoding: 379 379 281
Width: 680
VWidth: 0
Flags: HM
LayerCount: 2
Fore
SplineSet
691 590 m 1
 681 590 l 1
 699 700 l 1
 709 700 l 1
 691 590 l 1
83 110 m 1
 93 110 l 1
 75 0 l 1
 65 0 l 1
 83 110 l 1
199 700 m 1
 699 700 l 1
 679 580 l 1
 179 580 l 1
 199 700 l 1
95 120 m 1
 635 120 l 1
 615 0 l 1
 75 0 l 1
 95 120 l 1
546 590 m 1
 691 590 l 1
 228 110 l 5
 83 110 l 1
 546 590 l 1
393 856 m 0
 401 903 446 942 493 942 c 0
 540 942 573 903 565 856 c 0
 557 809 512 770 465 770 c 0
 418 770 385 809 393 856 c 0
EndSplineSet
EndChar

StartChar: zdotaccent
Encoding: 380 380 282
Width: 559
VWidth: 0
Flags: HMW
LayerCount: 2
Fore
SplineSet
55 95 m 1
 75 95 l 1
 60 0 l 1
 40 0 l 1
 55 95 l 1
78 115 m 1
 528 115 l 1
 510 0 l 1
 60 0 l 1
 78 115 l 1
564 520 m 1
 584 520 l 1
 569 425 l 1
 549 425 l 1
 564 520 l 1
144 520 m 1
 564 520 l 1
 546 405 l 1
 126 405 l 1
 144 520 l 1
409 425 m 1
 569 425 l 1
 215 95 l 1
 55 95 l 1
 409 425 l 1
304 676 m 0
 312 723 357 762 404 762 c 0
 451 762 484 723 476 676 c 0
 468 629 423 590 376 590 c 0
 329 590 296 629 304 676 c 0
EndSplineSet
EndChar

StartChar: Zcaron
Encoding: 381 381 283
Width: 680
VWidth: 0
Flags: HM
LayerCount: 2
Fore
SplineSet
691 590 m 1
 681 590 l 1
 699 700 l 1
 709 700 l 1
 691 590 l 1
83 110 m 1
 93 110 l 1
 75 0 l 1
 65 0 l 1
 83 110 l 1
199 700 m 1
 699 700 l 1
 679 580 l 1
 179 580 l 1
 199 700 l 1
95 120 m 1
 635 120 l 1
 615 0 l 1
 75 0 l 1
 95 120 l 1
546 590 m 1
 691 590 l 1
 228 110 l 5
 83 110 l 1
 546 590 l 1
417 870 m 1
 500 770 l 1
 410 770 l 5
 327 870 l 5
 417 870 l 1
520 770 m 1
 430 770 l 1
 547 870 l 1
 637 870 l 1
 520 770 l 1
EndSplineSet
EndChar

StartChar: zcaron
Encoding: 382 382 284
Width: 559
VWidth: 0
Flags: HMW
LayerCount: 2
Fore
SplineSet
55 95 m 1
 75 95 l 1
 60 0 l 1
 40 0 l 1
 55 95 l 1
78 115 m 1
 528 115 l 1
 510 0 l 1
 60 0 l 1
 78 115 l 1
564 520 m 1
 584 520 l 1
 569 425 l 1
 549 425 l 1
 564 520 l 1
144 520 m 1
 564 520 l 1
 546 405 l 1
 126 405 l 1
 144 520 l 1
409 425 m 1
 569 425 l 1
 215 95 l 1
 55 95 l 1
 409 425 l 1
327 690 m 1
 411 590 l 1
 321 590 l 5
 237 690 l 5
 327 690 l 1
431 590 m 1
 341 590 l 1
 457 690 l 1
 547 690 l 1
 431 590 l 1
EndSplineSet
EndChar

StartChar: Ohorn
Encoding: 416 416 285
Width: 850
VWidth: 0
Flags: HMW
LayerCount: 2
Fore
SplineSet
247 350 m 4
 225 214 302 110 443 110 c 4
 584 110 695 214 717 350 c 4
 739 486 662 590 521 590 c 4
 380 590 269 486 247 350 c 4
117 350 m 4
 149 549 336 710 541 710 c 4
 746 710 879 549 847 350 c 4
 815 151 628 -10 423 -10 c 4
 218 -10 85 151 117 350 c 4
803 665 m 0
 811 712 855 750 902 750 c 0
 959 750 986 712 978 665 c 0
 975 646 960 619 940 594 c 2
 830 460 l 1
 760 460 l 1
 835 591 l 1
 812 606 798 633 803 665 c 0
EndSplineSet
EndChar

StartChar: ohorn
Encoding: 417 417 286
Width: 650
VWidth: 0
Flags: HMW
LayerCount: 2
Fore
SplineSet
212 260 m 0
 198 171 245 105 342 105 c 0
 439 105 508 171 522 260 c 0
 536 349 490 415 393 415 c 0
 296 415 226 349 212 260 c 0
87 260 m 0
 111 409 252 530 411 530 c 0
 570 530 671 409 647 260 c 0
 623 111 482 -10 323 -10 c 0
 164 -10 63 111 87 260 c 0
620 537 m 0
 628 584 672 622 719 622 c 0
 776 622 803 584 795 537 c 0
 792 518 778 491 758 466 c 2
 647 332 l 1
 577 332 l 1
 652 463 l 1
 629 478 615 505 620 537 c 0
EndSplineSet
EndChar

StartChar: Uhorn
Encoding: 431 431 287
Width: 760
VWidth: 0
Flags: HMW
LayerCount: 2
Fore
SplineSet
612 290 m 1
 679 700 l 1
 804 700 l 1
 736 280 l 1
 612 290 l 1
116 280 m 1
 184 700 l 1
 309 700 l 1
 242 290 l 1
 116 280 l 1
612 290 m 1
 736 280 l 1
 708 111 557 -10 378 -10 c 0
 199 -10 88 111 116 280 c 1
 242 290 l 1
 224 181 292 115 399 115 c 4
 506 115 594 181 612 290 c 1
818 665 m 0
 826 712 870 750 917 750 c 0
 974 750 1001 712 993 665 c 0
 990 646 975 619 955 594 c 2
 845 460 l 1
 775 460 l 1
 850 591 l 1
 827 606 813 633 818 665 c 0
EndSplineSet
EndChar

StartChar: uhorn
Encoding: 432 432 288
Width: 635
VWidth: 0
Flags: HMW
LayerCount: 2
Fore
SplineSet
113 200 m 5
 165 520 l 1
 290 520 l 1
 241 220 l 1
 113 200 l 5
550 0 m 1
 425 0 l 1
 510 520 l 1
 635 520 l 1
 550 0 l 1
241 220 m 1
 230 150 242 105 322 105 c 0
 400 105 449 150 464 240 c 1
 499 240 l 1
 476 101 422 -10 273 -10 c 0
 154 -10 92 71 113 200 c 5
 241 220 l 1
664 485 m 0
 672 532 716 570 763 570 c 0
 820 570 847 532 839 485 c 0
 836 466 821 439 801 414 c 2
 691 280 l 1
 621 280 l 1
 695 411 l 1
 672 426 659 453 664 485 c 0
EndSplineSet
EndChar

StartChar: uni01CD
Encoding: 461 461 289
Width: 800
VWidth: 0
Flags: HMW
LayerCount: 2
Fore
SplineSet
454 700 m 1
 574 700 l 1
 562 690 l 1
 452 690 l 1
 454 700 l 1
228 270 m 1
 640 270 l 1
 621 155 l 1
 209 155 l 1
 228 270 l 1
640 0 m 5
 462 690 l 1
 574 700 l 1
 780 0 l 1
 640 0 l 5
454 700 m 1
 562 690 l 1
 160 0 l 1
 20 0 l 1
 454 700 l 1
454 870 m 1
 538 770 l 1
 448 770 l 5
 364 870 l 5
 454 870 l 1
558 770 m 1
 468 770 l 1
 584 870 l 1
 674 870 l 1
 558 770 l 1
EndSplineSet
EndChar

StartChar: uni01CE
Encoding: 462 462 290
Width: 580
VWidth: 0
Flags: HMW
LayerCount: 2
Fore
SplineSet
359 302 m 1
 489 302 l 1
 476 218 l 1
 376 218 l 1
 359 302 l 1
444 330 m 1
 455 395 422 415 356 415 c 1
 370 530 l 1
 513 530 589 454 569 330 c 1
 444 330 l 1
356 415 m 1
 302 415 251 402 207 372 c 1
 143 450 l 1
 208 499 268 530 370 530 c 1
 356 415 l 1
444 330 m 1
 569 330 l 1
 515 0 l 1
 390 0 l 1
 444 330 l 1
183 155 m 1
 177 117 212 95 275 95 c 0
 333 95 410 120 423 200 c 5
 454 180 l 1
 436 71 367 -10 228 -10 c 0
 129 -10 39 41 57 150 c 1
 183 155 l 1
359 302 m 1
 376 218 l 1
 267 218 192 210 183 155 c 1
 57 150 l 1
 79 285 222 302 359 302 c 1
331 690 m 1
 415 590 l 1
 325 590 l 5
 241 690 l 5
 331 690 l 1
435 590 m 1
 345 590 l 1
 461 690 l 1
 551 690 l 1
 435 590 l 1
EndSplineSet
EndChar

StartChar: uni01CF
Encoding: 463 463 291
Width: 300
VWidth: 0
Flags: HMW
LayerCount: 2
Fore
SplineSet
199 700 m 1
 329 700 l 1
 215 0 l 1
 85 0 l 1
 199 700 l 1
204 870 m 1
 288 770 l 1
 198 770 l 5
 114 870 l 5
 204 870 l 1
308 770 m 1
 218 770 l 1
 334 870 l 1
 424 870 l 1
 308 770 l 1
EndSplineSet
EndChar

StartChar: uni01D0
Encoding: 464 464 292
Width: 270
VWidth: 0
Flags: HMW
LayerCount: 2
Fore
SplineSet
160 520 m 5
 280 520 l 1
 195 0 l 1
 75 0 l 5
 160 520 l 5
172 690 m 1
 256 590 l 1
 166 590 l 5
 82 690 l 5
 172 690 l 1
276 590 m 1
 186 590 l 1
 302 690 l 1
 392 690 l 1
 276 590 l 1
EndSplineSet
EndChar

StartChar: uni01D1
Encoding: 465 465 293
Width: 850
VWidth: 0
Flags: HM
LayerCount: 2
Fore
SplineSet
247 350 m 4
 225 214 302 110 443 110 c 4
 584 110 695 214 717 350 c 4
 739 486 662 590 521 590 c 4
 380 590 269 486 247 350 c 4
117 350 m 4
 149 549 336 710 541 710 c 4
 746 710 879 549 847 350 c 4
 815 151 628 -10 423 -10 c 4
 218 -10 85 151 117 350 c 4
502 870 m 1
 585 770 l 1
 495 770 l 5
 412 870 l 5
 502 870 l 1
605 770 m 1
 515 770 l 1
 632 870 l 1
 722 870 l 1
 605 770 l 1
EndSplineSet
EndChar

StartChar: uni01D2
Encoding: 466 466 294
Width: 650
VWidth: 0
Flags: HM
LayerCount: 2
Fore
SplineSet
212 260 m 0
 198 171 245 105 342 105 c 0
 439 105 508 171 522 260 c 0
 536 349 490 415 393 415 c 0
 296 415 226 349 212 260 c 0
87 260 m 0
 111 409 252 530 411 530 c 0
 570 530 671 409 647 260 c 0
 623 111 482 -10 323 -10 c 0
 164 -10 63 111 87 260 c 0
372 690 m 1
 456 590 l 1
 366 590 l 5
 282 690 l 5
 372 690 l 1
476 590 m 1
 386 590 l 1
 502 690 l 1
 592 690 l 1
 476 590 l 1
EndSplineSet
EndChar

StartChar: uni01D3
Encoding: 467 467 295
Width: 760
VWidth: 0
Flags: HMW
LayerCount: 2
Fore
SplineSet
612 290 m 1
 679 700 l 1
 804 700 l 1
 736 280 l 1
 612 290 l 1
116 280 m 1
 184 700 l 1
 309 700 l 1
 242 290 l 1
 116 280 l 1
612 290 m 1
 736 280 l 1
 708 111 557 -10 378 -10 c 0
 199 -10 88 111 116 280 c 1
 242 290 l 1
 224 181 292 115 399 115 c 4
 506 115 594 181 612 290 c 1
437 870 m 1
 520 770 l 1
 430 770 l 5
 347 870 l 5
 437 870 l 1
540 770 m 1
 450 770 l 1
 567 870 l 1
 657 870 l 1
 540 770 l 1
EndSplineSet
EndChar

StartChar: uni01D4
Encoding: 468 468 296
Width: 635
VWidth: 0
Flags: HMW
LayerCount: 2
Fore
SplineSet
113 200 m 5
 165 520 l 1
 290 520 l 1
 241 220 l 1
 113 200 l 5
550 0 m 1
 425 0 l 1
 510 520 l 1
 635 520 l 1
 550 0 l 1
241 220 m 1
 230 150 242 105 322 105 c 0
 400 105 449 150 464 240 c 1
 499 240 l 1
 476 101 422 -10 273 -10 c 0
 154 -10 92 71 113 200 c 5
 241 220 l 1
360 690 m 1
 444 590 l 1
 354 590 l 5
 270 690 l 5
 360 690 l 1
464 590 m 1
 374 590 l 1
 490 690 l 1
 580 690 l 1
 464 590 l 1
EndSplineSet
EndChar

StartChar: uni01D5
Encoding: 469 469 297
Width: 760
VWidth: 0
Flags: HMW
LayerCount: 2
Fore
SplineSet
612 290 m 1
 679 700 l 1
 804 700 l 1
 736 280 l 1
 612 290 l 1
116 280 m 1
 184 700 l 1
 309 700 l 1
 242 290 l 1
 116 280 l 1
612 290 m 1
 736 280 l 1
 708 111 557 -10 378 -10 c 0
 199 -10 88 111 116 280 c 1
 242 290 l 1
 224 181 292 115 399 115 c 4
 506 115 594 181 612 290 c 1
303 856 m 0
 311 903 356 942 403 942 c 0
 450 942 483 903 475 856 c 0
 467 809 422 770 375 770 c 0
 328 770 295 809 303 856 c 0
523 856 m 0
 531 903 576 942 623 942 c 0
 670 942 703 903 695 856 c 0
 687 809 642 770 595 770 c 0
 548 770 515 809 523 856 c 0
377 1040 m 1
 681 1040 l 5
 668 960 l 5
 364 960 l 1
 377 1040 l 1
EndSplineSet
EndChar

StartChar: uni01D6
Encoding: 470 470 298
Width: 635
VWidth: 0
Flags: HMW
LayerCount: 2
Fore
SplineSet
113 200 m 5
 165 520 l 1
 290 520 l 1
 241 220 l 1
 113 200 l 5
550 0 m 1
 425 0 l 1
 510 520 l 1
 635 520 l 1
 550 0 l 1
241 220 m 1
 230 150 242 105 322 105 c 0
 400 105 449 150 464 240 c 1
 499 240 l 1
 476 101 422 -10 273 -10 c 0
 154 -10 92 71 113 200 c 5
 241 220 l 1
227 676 m 0
 235 723 280 762 327 762 c 0
 374 762 407 723 399 676 c 0
 391 629 346 590 299 590 c 0
 252 590 219 629 227 676 c 0
447 676 m 0
 455 723 500 762 547 762 c 0
 594 762 627 723 619 676 c 0
 611 629 566 590 519 590 c 0
 472 590 439 629 447 676 c 0
301 860 m 1
 605 860 l 5
 592 780 l 5
 288 780 l 1
 301 860 l 1
EndSplineSet
EndChar

StartChar: uni01D7
Encoding: 471 471 299
Width: 760
VWidth: 0
Flags: HMW
LayerCount: 2
Fore
SplineSet
612 290 m 1
 679 700 l 1
 804 700 l 1
 736 280 l 1
 612 290 l 1
116 280 m 1
 184 700 l 1
 309 700 l 1
 242 290 l 1
 116 280 l 1
612 290 m 1
 736 280 l 1
 708 111 557 -10 378 -10 c 0
 199 -10 88 111 116 280 c 1
 242 290 l 1
 224 181 292 115 399 115 c 4
 506 115 594 181 612 290 c 1
303 856 m 0
 311 903 356 942 403 942 c 0
 450 942 483 903 475 856 c 0
 467 809 422 770 375 770 c 0
 328 770 295 809 303 856 c 0
523 856 m 0
 531 903 576 942 623 942 c 0
 670 942 703 903 695 856 c 0
 687 809 642 770 595 770 c 0
 548 770 515 809 523 856 c 0
556 960 m 1
 476 960 l 5
 579 1100 l 5
 699 1100 l 1
 556 960 l 1
EndSplineSet
EndChar

StartChar: uni01D8
Encoding: 472 472 300
Width: 635
VWidth: 0
Flags: HMW
LayerCount: 2
Fore
SplineSet
113 200 m 5
 165 520 l 1
 290 520 l 1
 241 220 l 1
 113 200 l 5
550 0 m 1
 425 0 l 1
 510 520 l 1
 635 520 l 1
 550 0 l 1
241 220 m 1
 230 150 242 105 322 105 c 0
 400 105 449 150 464 240 c 1
 499 240 l 1
 476 101 422 -10 273 -10 c 0
 154 -10 92 71 113 200 c 5
 241 220 l 1
227 676 m 0
 235 723 280 762 327 762 c 0
 374 762 407 723 399 676 c 0
 391 629 346 590 299 590 c 0
 252 590 219 629 227 676 c 0
447 676 m 0
 455 723 500 762 547 762 c 0
 594 762 627 723 619 676 c 0
 611 629 566 590 519 590 c 0
 472 590 439 629 447 676 c 0
480 780 m 1
 400 780 l 5
 502 920 l 5
 622 920 l 1
 480 780 l 1
EndSplineSet
EndChar

StartChar: uni01D9
Encoding: 473 473 301
Width: 760
VWidth: 0
Flags: HMW
LayerCount: 2
Fore
SplineSet
612 290 m 1
 679 700 l 1
 804 700 l 1
 736 280 l 1
 612 290 l 1
116 280 m 1
 184 700 l 1
 309 700 l 1
 242 290 l 1
 116 280 l 1
612 290 m 1
 736 280 l 1
 708 111 557 -10 378 -10 c 0
 199 -10 88 111 116 280 c 1
 242 290 l 1
 224 181 292 115 399 115 c 4
 506 115 594 181 612 290 c 1
303 856 m 0
 311 903 356 942 403 942 c 0
 450 942 483 903 475 856 c 0
 467 809 422 770 375 770 c 0
 328 770 295 809 303 856 c 0
523 856 m 0
 531 903 576 942 623 942 c 0
 670 942 703 903 695 856 c 0
 687 809 642 770 595 770 c 0
 548 770 515 809 523 856 c 0
468 1060 m 1
 551 960 l 1
 461 960 l 5
 378 1060 l 5
 468 1060 l 1
571 960 m 1
 481 960 l 1
 598 1060 l 1
 688 1060 l 1
 571 960 l 1
EndSplineSet
EndChar

StartChar: uni01DA
Encoding: 474 474 302
Width: 635
VWidth: 0
Flags: HMW
LayerCount: 2
Fore
SplineSet
113 200 m 5
 165 520 l 1
 290 520 l 1
 241 220 l 1
 113 200 l 5
550 0 m 1
 425 0 l 1
 510 520 l 1
 635 520 l 1
 550 0 l 1
241 220 m 1
 230 150 242 105 322 105 c 0
 400 105 449 150 464 240 c 1
 499 240 l 1
 476 101 422 -10 273 -10 c 0
 154 -10 92 71 113 200 c 5
 241 220 l 1
227 676 m 0
 235 723 280 762 327 762 c 0
 374 762 407 723 399 676 c 0
 391 629 346 590 299 590 c 0
 252 590 219 629 227 676 c 0
447 676 m 0
 455 723 500 762 547 762 c 0
 594 762 627 723 619 676 c 0
 611 629 566 590 519 590 c 0
 472 590 439 629 447 676 c 0
391 880 m 1
 475 780 l 1
 385 780 l 5
 301 880 l 5
 391 880 l 1
495 780 m 1
 405 780 l 1
 521 880 l 1
 611 880 l 1
 495 780 l 1
EndSplineSet
EndChar

StartChar: uni01DB
Encoding: 475 475 303
Width: 760
VWidth: 0
Flags: HMW
LayerCount: 2
Fore
SplineSet
612 290 m 1
 679 700 l 1
 804 700 l 1
 736 280 l 1
 612 290 l 1
116 280 m 1
 184 700 l 1
 309 700 l 1
 242 290 l 1
 116 280 l 1
612 290 m 1
 736 280 l 1
 708 111 557 -10 378 -10 c 0
 199 -10 88 111 116 280 c 1
 242 290 l 1
 224 181 292 115 399 115 c 4
 506 115 594 181 612 290 c 1
303 856 m 0
 311 903 356 942 403 942 c 0
 450 942 483 903 475 856 c 0
 467 809 422 770 375 770 c 0
 328 770 295 809 303 856 c 0
523 856 m 0
 531 903 576 942 623 942 c 0
 670 942 703 903 695 856 c 0
 687 809 642 770 595 770 c 0
 548 770 515 809 523 856 c 0
466 960 m 5
 369 1100 l 5
 509 1100 l 1
 566 960 l 1
 466 960 l 5
EndSplineSet
EndChar

StartChar: uni01DC
Encoding: 476 476 304
Width: 635
VWidth: 0
Flags: HMW
LayerCount: 2
Fore
SplineSet
113 200 m 5
 165 520 l 1
 290 520 l 1
 241 220 l 1
 113 200 l 5
550 0 m 1
 425 0 l 1
 510 520 l 1
 635 520 l 1
 550 0 l 1
241 220 m 1
 230 150 242 105 322 105 c 0
 400 105 449 150 464 240 c 1
 499 240 l 1
 476 101 422 -10 273 -10 c 0
 154 -10 92 71 113 200 c 5
 241 220 l 1
227 676 m 0
 235 723 280 762 327 762 c 0
 374 762 407 723 399 676 c 0
 391 629 346 590 299 590 c 0
 252 590 219 629 227 676 c 0
447 676 m 0
 455 723 500 762 547 762 c 0
 594 762 627 723 619 676 c 0
 611 629 566 590 519 590 c 0
 472 590 439 629 447 676 c 0
390 780 m 5
 292 920 l 5
 432 920 l 1
 490 780 l 1
 390 780 l 5
EndSplineSet
EndChar

StartChar: uni01DE
Encoding: 478 478 305
Width: 800
VWidth: 0
Flags: HMW
LayerCount: 2
Fore
SplineSet
454 700 m 1
 574 700 l 1
 562 690 l 1
 452 690 l 1
 454 700 l 1
228 270 m 1
 640 270 l 1
 621 155 l 1
 209 155 l 1
 228 270 l 1
640 0 m 5
 462 690 l 1
 574 700 l 1
 780 0 l 1
 640 0 l 5
454 700 m 1
 562 690 l 1
 160 0 l 1
 20 0 l 1
 454 700 l 1
341 856 m 0
 349 903 394 942 441 942 c 0
 488 942 521 903 513 856 c 0
 505 809 460 770 413 770 c 0
 366 770 333 809 341 856 c 0
561 856 m 0
 569 903 614 942 661 942 c 0
 708 942 741 903 733 856 c 0
 725 809 680 770 633 770 c 0
 586 770 553 809 561 856 c 0
395 1040 m 1
 699 1040 l 5
 686 960 l 5
 382 960 l 1
 395 1040 l 1
EndSplineSet
EndChar

StartChar: uni01DF
Encoding: 479 479 306
Width: 580
VWidth: 0
Flags: HMW
LayerCount: 2
Fore
SplineSet
359 302 m 1
 489 302 l 1
 476 218 l 1
 376 218 l 1
 359 302 l 1
444 330 m 1
 455 395 422 415 356 415 c 1
 370 530 l 1
 513 530 589 454 569 330 c 1
 444 330 l 1
356 415 m 1
 302 415 251 402 207 372 c 1
 143 450 l 1
 208 499 268 530 370 530 c 1
 356 415 l 1
444 330 m 1
 569 330 l 1
 515 0 l 1
 390 0 l 1
 444 330 l 1
183 155 m 1
 177 117 212 95 275 95 c 0
 333 95 410 120 423 200 c 5
 454 180 l 1
 436 71 367 -10 228 -10 c 0
 129 -10 39 41 57 150 c 1
 183 155 l 1
359 302 m 1
 376 218 l 1
 267 218 192 210 183 155 c 1
 57 150 l 1
 79 285 222 302 359 302 c 1
198 676 m 0
 206 723 251 762 298 762 c 0
 345 762 378 723 370 676 c 0
 362 629 317 590 270 590 c 0
 223 590 190 629 198 676 c 0
418 676 m 0
 426 723 471 762 518 762 c 0
 565 762 598 723 590 676 c 0
 582 629 537 590 490 590 c 0
 443 590 410 629 418 676 c 0
272 860 m 1
 576 860 l 5
 563 780 l 5
 259 780 l 1
 272 860 l 1
EndSplineSet
EndChar

StartChar: Gcaron
Encoding: 486 486 307
Width: 782
VWidth: 0
Flags: HMW
LayerCount: 2
Fore
SplineSet
786 390 m 5
 766 270 l 5
 469 270 l 5
 489 390 l 5
 786 390 l 5
740 113 m 1
 610 113 l 1
 656 390 l 5
 786 390 l 5
 740 113 l 1
247 350 m 0
 225 214 292 110 443 110 c 0
 521 110 612 142 675 203 c 1
 740 113 l 1
 663 38 529 -10 423 -10 c 0
 208 -10 85 151 117 350 c 0
 149 549 326 710 541 710 c 0
 667 710 755 662 808 587 c 1
 715 507 l 1
 676 563 599 590 521 590 c 0
 370 590 269 486 247 350 c 0
502 870 m 1
 585 770 l 1
 495 770 l 5
 412 870 l 5
 502 870 l 1
605 770 m 1
 515 770 l 1
 632 870 l 1
 722 870 l 1
 605 770 l 1
EndSplineSet
EndChar

StartChar: gcaron
Encoding: 487 487 308
Width: 655
VWidth: 0
Flags: HMW
LayerCount: 2
Fore
SplineSet
507 260 m 0
 521 346 476 415 383 415 c 0
 290 415 226 346 212 260 c 0
 198 174 239 105 332 105 c 0
 425 105 493 174 507 260 c 0
542 260 m 0
 518 111 447 -10 283 -10 c 0
 139 -10 61 101 87 260 c 0
 113 419 227 530 371 530 c 0
 535 530 566 409 542 260 c 0
316 -105 m 1
 297 -220 l 1
 140 -220 66 -172 29 -108 c 5
 126 -42 l 5
 160 -86 223 -105 316 -105 c 1
593 20 m 1
 468 20 l 1
 550 520 l 1
 675 520 l 1
 593 20 l 1
468 20 m 1
 593 20 l 1
 570 -119 446 -220 297 -220 c 1
 316 -105 l 1
 383 -105 454 -69 468 20 c 1
347 690 m 1
 431 590 l 1
 341 590 l 5
 257 690 l 5
 347 690 l 1
451 590 m 1
 361 590 l 1
 477 690 l 1
 567 690 l 1
 451 590 l 1
EndSplineSet
EndChar

StartChar: uni01E8
Encoding: 488 488 309
Width: 745
VWidth: 0
Flags: HMW
LayerCount: 2
Fore
SplineSet
333 413 m 1
 477 413 l 1
 740 0 l 1
 596 0 l 1
 333 413 l 1
659 700 m 1
 804 700 l 1
 244 207 l 5
 122 230 l 1
 659 700 l 1
194 700 m 1
 324 700 l 1
 210 0 l 1
 80 0 l 1
 194 700 l 1
439 870 m 1
 523 770 l 1
 433 770 l 5
 349 870 l 5
 439 870 l 1
543 770 m 1
 453 770 l 1
 569 870 l 1
 659 870 l 1
 543 770 l 1
EndSplineSet
EndChar

StartChar: uni01E9
Encoding: 489 489 310
Width: 615
VWidth: 0
Flags: HMW
LayerCount: 2
Fore
SplineSet
272 291 m 1
 401 311 l 1
 610 0 l 1
 472 0 l 1
 272 291 l 1
529 520 m 1
 675 520 l 1
 208 110 l 1
 115 154 l 1
 529 520 l 1
184 730 m 1
 309 730 l 1
 190 0 l 1
 65 0 l 1
 184 730 l 1
185 890 m 1
 269 790 l 1
 179 790 l 5
 95 890 l 5
 185 890 l 1
289 790 m 1
 199 790 l 1
 315 890 l 1
 405 890 l 1
 289 790 l 1
EndSplineSet
EndChar

StartChar: uni01F0
Encoding: 496 496 311
Width: 270
VWidth: 0
Flags: HMW
LayerCount: 2
Fore
SplineSet
164 520 m 1
 284 520 l 1
 189 -60 l 1
 72 -41 l 5
 164 520 l 1
22 -96 m 5
 10 -210 l 1
 -47 -210 -95 -194 -116 -160 c 1
 -62 -62 l 5
 -48 -81 -21 -96 22 -96 c 5
72 -41 m 5
 189 -60 l 1
 176 -139 109 -210 10 -210 c 1
 22 -96 l 5
 59 -96 65 -81 72 -41 c 5
176 690 m 1
 260 590 l 1
 170 590 l 5
 86 690 l 5
 176 690 l 1
280 590 m 1
 190 590 l 1
 306 690 l 1
 396 690 l 1
 280 590 l 1
EndSplineSet
EndChar

StartChar: uni01F4
Encoding: 500 500 312
Width: 782
VWidth: 0
Flags: HMW
LayerCount: 2
Fore
SplineSet
786 390 m 5
 766 270 l 5
 469 270 l 5
 489 390 l 5
 786 390 l 5
740 113 m 1
 610 113 l 1
 656 390 l 5
 786 390 l 5
 740 113 l 1
247 350 m 0
 225 214 292 110 443 110 c 0
 521 110 612 142 675 203 c 1
 740 113 l 1
 663 38 529 -10 423 -10 c 0
 208 -10 85 151 117 350 c 0
 149 549 326 710 541 710 c 0
 667 710 755 662 808 587 c 1
 715 507 l 1
 676 563 599 590 521 590 c 0
 370 590 269 486 247 350 c 0
590 770 m 1
 510 770 l 5
 613 910 l 5
 733 910 l 1
 590 770 l 1
EndSplineSet
EndChar

StartChar: uni01F5
Encoding: 501 501 313
Width: 655
VWidth: 0
Flags: HMW
LayerCount: 2
Fore
SplineSet
507 260 m 0
 521 346 476 415 383 415 c 0
 290 415 226 346 212 260 c 0
 198 174 239 105 332 105 c 0
 425 105 493 174 507 260 c 0
542 260 m 0
 518 111 447 -10 283 -10 c 0
 139 -10 61 101 87 260 c 0
 113 419 227 530 371 530 c 0
 535 530 566 409 542 260 c 0
316 -105 m 1
 297 -220 l 1
 140 -220 66 -172 29 -108 c 5
 126 -42 l 5
 160 -86 223 -105 316 -105 c 1
593 20 m 1
 468 20 l 1
 550 520 l 1
 675 520 l 1
 593 20 l 1
468 20 m 1
 593 20 l 1
 570 -119 446 -220 297 -220 c 1
 316 -105 l 1
 383 -105 454 -69 468 20 c 1
436 590 m 1
 356 590 l 5
 459 730 l 5
 579 730 l 1
 436 590 l 1
EndSplineSet
EndChar

StartChar: uni01F8
Encoding: 504 504 314
Width: 790
VWidth: 0
Flags: HMW
LayerCount: 2
Fore
SplineSet
710 0 m 1
 590 0 l 1
 594 24 l 1
 712 14 l 1
 710 0 l 1
314 700 m 1
 311 680 l 1
 191 680 l 1
 194 700 l 1
 314 700 l 1
187 655 m 5
 314 700 l 1
 717 45 l 1
 590 0 l 1
 187 655 l 5
694 700 m 1
 824 700 l 1
 710 0 l 1
 583 20 l 1
 694 700 l 1
194 700 m 1
 321 680 l 1
 210 0 l 1
 80 0 l 1
 194 700 l 1
445 770 m 5
 348 910 l 5
 488 910 l 1
 545 770 l 1
 445 770 l 5
EndSplineSet
EndChar

StartChar: uni01F9
Encoding: 505 505 315
Width: 635
VWidth: 0
Flags: HMW
LayerCount: 2
Fore
SplineSet
622 320 m 1
 570 0 l 1
 445 0 l 1
 494 300 l 1
 622 320 l 1
155 520 m 1
 280 520 l 1
 195 0 l 1
 70 0 l 1
 155 520 l 1
494 300 m 1
 505 370 478 415 398 415 c 0
 320 415 256 370 241 280 c 1
 206 280 l 1
 229 419 317 530 466 530 c 0
 600 530 643 449 622 320 c 5
 494 300 l 1
364 590 m 5
 266 730 l 5
 406 730 l 1
 464 590 l 1
 364 590 l 5
EndSplineSet
EndChar

StartChar: Aringacute
Encoding: 506 506 316
Width: 800
VWidth: 0
Flags: HMW
LayerCount: 2
Fore
SplineSet
454 700 m 1
 574 700 l 1
 562 690 l 1
 452 690 l 1
 454 700 l 1
228 270 m 1
 640 270 l 1
 621 155 l 1
 209 155 l 1
 228 270 l 1
640 0 m 5
 462 690 l 1
 574 700 l 1
 780 0 l 1
 640 0 l 5
454 700 m 1
 562 690 l 1
 160 0 l 1
 20 0 l 1
 454 700 l 1
471 760 m 0
 466 731 484 710 513 710 c 0
 542 710 566 731 571 760 c 0
 576 789 558 810 529 810 c 4
 500 810 476 789 471 760 c 0
421 760 m 0
 430 815 483 860 538 860 c 0
 593 860 630 815 621 760 c 0
 612 705 560 660 505 660 c 0
 450 660 412 705 421 760 c 0
574 963 m 1
 494 963 l 5
 597 1103 l 5
 717 1103 l 1
 574 963 l 1
EndSplineSet
EndChar

StartChar: aringacute
Encoding: 507 507 317
Width: 580
VWidth: 0
Flags: HMW
LayerCount: 2
Fore
SplineSet
359 302 m 1
 489 302 l 1
 476 218 l 1
 376 218 l 1
 359 302 l 1
444 330 m 1
 455 395 422 415 356 415 c 1
 370 530 l 1
 513 530 589 454 569 330 c 1
 444 330 l 1
356 415 m 1
 302 415 251 402 207 372 c 1
 143 450 l 1
 208 499 268 530 370 530 c 1
 356 415 l 1
444 330 m 1
 569 330 l 1
 515 0 l 1
 390 0 l 1
 444 330 l 1
183 155 m 1
 177 117 212 95 275 95 c 0
 333 95 410 120 423 200 c 5
 454 180 l 1
 436 71 367 -10 228 -10 c 0
 129 -10 39 41 57 150 c 1
 183 155 l 1
359 302 m 1
 376 218 l 1
 267 218 192 210 183 155 c 1
 57 150 l 1
 79 285 222 302 359 302 c 1
346 690 m 0
 341 661 359 640 388 640 c 0
 417 640 441 661 446 690 c 0
 451 719 434 740 405 740 c 4
 376 740 351 719 346 690 c 0
296 690 m 0
 305 745 358 790 413 790 c 0
 468 790 505 745 496 690 c 0
 487 635 435 590 380 590 c 0
 325 590 287 635 296 690 c 0
462 850 m 1
 382 850 l 5
 485 990 l 5
 605 990 l 1
 462 850 l 1
EndSplineSet
EndChar

StartChar: uni0202
Encoding: 514 514 318
Width: 800
VWidth: 0
Flags: HMW
LayerCount: 2
Fore
SplineSet
454 700 m 1
 574 700 l 1
 562 690 l 1
 452 690 l 1
 454 700 l 1
228 270 m 1
 640 270 l 1
 621 155 l 1
 209 155 l 1
 228 270 l 1
640 0 m 5
 462 690 l 1
 574 700 l 1
 780 0 l 1
 640 0 l 5
454 700 m 1
 562 690 l 1
 160 0 l 1
 20 0 l 1
 454 700 l 1
511 822 m 1
 471 822 444 808 436 760 c 1
 322 766 l 1
 338 865 422 942 531 942 c 1
 511 822 l 1
511 822 m 5
 531 942 l 1
 640 942 698 865 682 766 c 1
 566 760 l 5
 574 808 553 822 511 822 c 5
EndSplineSet
EndChar

StartChar: uni0206
Encoding: 518 518 319
Width: 670
VWidth: 0
Flags: HM
LayerCount: 2
Fore
SplineSet
148 418 m 5
 628 418 l 1
 609 298 l 1
 129 298 l 5
 148 418 l 5
194 700 m 5
 724 700 l 1
 704 580 l 1
 174 580 l 5
 194 700 l 5
100 120 m 5
 630 120 l 1
 610 0 l 1
 80 0 l 5
 100 120 l 5
194 700 m 5
 324 700 l 5
 210 0 l 5
 80 0 l 5
 194 700 l 5
489 822 m 1
 449 822 422 808 414 760 c 1
 300 766 l 1
 316 865 399 942 508 942 c 1
 489 822 l 1
489 822 m 5
 508 942 l 1
 617 942 676 865 660 766 c 1
 544 760 l 5
 552 808 531 822 489 822 c 5
EndSplineSet
EndChar

StartChar: uni0207
Encoding: 519 519 320
Width: 615
VWidth: 0
Flags: HMW
LayerCount: 2
Fore
SplineSet
617 260 m 1
 612 230 l 1
 487 230 l 1
 492 260 l 1
 617 260 l 1
487 230 m 1
 161 230 l 1
 176 317 l 1
 502 317 l 1
 487 230 l 1
492 260 m 1
 508 359 485 415 388 415 c 4
 291 415 228 359 212 260 c 1
 87 260 l 1
 113 419 257 530 406 530 c 4
 555 530 643 419 617 260 c 1
 492 260 l 1
87 260 m 1
 212 260 l 1
 196 161 240 105 329 105 c 0
 393 105 450 118 495 167 c 1
 563 92 l 1
 506 28 415 -10 318 -10 c 4
 159 -10 61 101 87 260 c 1
410 642 m 1
 370 642 342 628 334 580 c 1
 220 586 l 1
 236 685 320 762 429 762 c 1
 410 642 l 1
410 642 m 5
 429 762 l 1
 538 762 596 685 580 586 c 1
 464 580 l 5
 472 628 452 642 410 642 c 5
EndSplineSet
EndChar

StartChar: uni020A
Encoding: 522 522 321
Width: 300
VWidth: 0
Flags: HMW
LayerCount: 2
Fore
SplineSet
199 700 m 1
 329 700 l 1
 215 0 l 1
 85 0 l 1
 199 700 l 1
261 822 m 1
 221 822 194 808 186 760 c 1
 72 766 l 1
 88 865 172 942 281 942 c 1
 261 822 l 1
261 822 m 5
 281 942 l 1
 390 942 448 865 432 766 c 1
 316 760 l 5
 324 808 303 822 261 822 c 5
EndSplineSet
EndChar

StartChar: uni020B
Encoding: 523 523 322
Width: 270
VWidth: 0
Flags: HMW
LayerCount: 2
Fore
SplineSet
160 520 m 5
 280 520 l 1
 195 0 l 1
 75 0 l 5
 160 520 l 5
230 642 m 1
 190 642 162 628 154 580 c 1
 40 586 l 1
 56 685 140 762 249 762 c 1
 230 642 l 1
230 642 m 5
 249 762 l 1
 358 762 416 685 400 586 c 1
 284 580 l 5
 292 628 272 642 230 642 c 5
EndSplineSet
EndChar

StartChar: uni020E
Encoding: 526 526 323
Width: 850
VWidth: 0
Flags: HM
LayerCount: 2
Fore
SplineSet
247 350 m 4
 225 214 302 110 443 110 c 4
 584 110 695 214 717 350 c 4
 739 486 662 590 521 590 c 4
 380 590 269 486 247 350 c 4
117 350 m 4
 149 549 336 710 541 710 c 4
 746 710 879 549 847 350 c 4
 815 151 628 -10 423 -10 c 4
 218 -10 85 151 117 350 c 4
559 822 m 1
 519 822 492 808 484 760 c 1
 370 766 l 1
 386 865 469 942 578 942 c 1
 559 822 l 1
559 822 m 5
 578 942 l 1
 687 942 746 865 730 766 c 1
 614 760 l 5
 622 808 601 822 559 822 c 5
EndSplineSet
EndChar

StartChar: uni020F
Encoding: 527 527 324
Width: 650
VWidth: 0
Flags: HM
LayerCount: 2
Fore
SplineSet
212 260 m 0
 198 171 245 105 342 105 c 0
 439 105 508 171 522 260 c 0
 536 349 490 415 393 415 c 0
 296 415 226 349 212 260 c 0
87 260 m 0
 111 409 252 530 411 530 c 0
 570 530 671 409 647 260 c 0
 623 111 482 -10 323 -10 c 0
 164 -10 63 111 87 260 c 0
430 642 m 1
 390 642 362 628 354 580 c 1
 240 586 l 1
 256 685 340 762 449 762 c 1
 430 642 l 1
430 642 m 5
 449 762 l 1
 558 762 616 685 600 586 c 1
 484 580 l 5
 492 628 472 642 430 642 c 5
EndSplineSet
EndChar

StartChar: uni0212
Encoding: 530 530 325
Width: 718
VWidth: 0
Flags: HMW
LayerCount: 2
Fore
SplineSet
423 358 m 1
 511 358 577 392 589 467 c 0
 601 542 547 580 459 580 c 1
 499 700 l 1
 648 700 741 602 719 467 c 0
 697 333 573 238 424 238 c 1
 423 358 l 1
199 700 m 5
 329 700 l 5
 215 0 l 5
 85 0 l 5
 199 700 l 5
234 700 m 5
 499 700 l 1
 459 580 l 1
 214 580 l 5
 234 700 l 5
178 358 m 5
 423 358 l 1
 424 238 l 1
 159 238 l 5
 178 358 l 5
355 320 m 1
 500 320 l 1
 688 0 l 1
 543 0 l 1
 355 320 l 1
466 822 m 1
 426 822 399 808 391 760 c 1
 277 766 l 1
 293 865 377 942 486 942 c 1
 466 822 l 1
466 822 m 5
 486 942 l 1
 595 942 653 865 637 766 c 1
 521 760 l 5
 529 808 508 822 466 822 c 5
EndSplineSet
EndChar

StartChar: uni0213
Encoding: 531 531 326
Width: 410
VWidth: 0
Flags: HMW
LayerCount: 2
Fore
SplineSet
150 520 m 1
 275 520 l 1
 190 0 l 1
 65 0 l 1
 150 520 l 1
456 405 m 1
 436 405 l 2
 322 405 250 370 234 270 c 1
 199 270 l 1
 222 409 286 520 475 520 c 1
 456 405 l 1
325 642 m 1
 285 642 257 628 249 580 c 1
 135 586 l 1
 151 685 235 762 344 762 c 1
 325 642 l 1
325 642 m 5
 344 762 l 1
 453 762 511 685 495 586 c 1
 379 580 l 5
 387 628 367 642 325 642 c 5
EndSplineSet
EndChar

StartChar: uni0216
Encoding: 534 534 327
Width: 760
VWidth: 0
Flags: HMW
LayerCount: 2
Fore
SplineSet
612 290 m 1
 679 700 l 1
 804 700 l 1
 736 280 l 1
 612 290 l 1
116 280 m 1
 184 700 l 1
 309 700 l 1
 242 290 l 1
 116 280 l 1
612 290 m 1
 736 280 l 1
 708 111 557 -10 378 -10 c 0
 199 -10 88 111 116 280 c 1
 242 290 l 1
 224 181 292 115 399 115 c 4
 506 115 594 181 612 290 c 1
494 822 m 1
 454 822 427 808 419 760 c 1
 305 766 l 1
 321 865 404 942 513 942 c 1
 494 822 l 1
494 822 m 5
 513 942 l 1
 622 942 681 865 665 766 c 1
 549 760 l 5
 557 808 536 822 494 822 c 5
EndSplineSet
EndChar

StartChar: uni0217
Encoding: 535 535 328
Width: 635
VWidth: 0
Flags: HMW
LayerCount: 2
Fore
SplineSet
113 200 m 5
 165 520 l 1
 290 520 l 1
 241 220 l 1
 113 200 l 5
550 0 m 1
 425 0 l 1
 510 520 l 1
 635 520 l 1
 550 0 l 1
241 220 m 1
 230 150 242 105 322 105 c 0
 400 105 449 150 464 240 c 1
 499 240 l 1
 476 101 422 -10 273 -10 c 0
 154 -10 92 71 113 200 c 5
 241 220 l 1
417 642 m 1
 377 642 350 628 342 580 c 1
 228 586 l 1
 244 685 328 762 437 762 c 1
 417 642 l 1
417 642 m 5
 437 762 l 1
 546 762 604 685 588 586 c 1
 472 580 l 5
 480 628 459 642 417 642 c 5
EndSplineSet
EndChar

StartChar: uni0218
Encoding: 536 536 329
Width: 625
VWidth: 0
Flags: HM
LayerCount: 2
Fore
SplineSet
492 194 m 1
 618 205 l 1
 597 76 475 -10 326 -10 c 0
 197 -10 117 36 58 113 c 1
 152 200 l 1
 191 146 250 102 353 102 c 0
 436 102 484 144 492 194 c 1
293 512 m 5
 162 504 l 1
 184 640 322 710 441 710 c 0
 560 710 625 674 669 622 c 1
 584 535 l 5
 551 573 499 587 421 587 c 0
 353 587 300 557 293 512 c 5
399 425 m 0
 527 396 643 357 618 205 c 1
 492 194 l 1
 502 255 460 286 370 305 c 0
 252 329 140 368 162 504 c 1
 293 512 l 1
 286 468 305 446 399 425 c 0
242 -115 m 0
 250 -68 294 -30 341 -30 c 0
 398 -30 425 -68 417 -115 c 0
 414 -134 399 -161 379 -186 c 2
 269 -320 l 1
 199 -320 l 1
 274 -189 l 1
 251 -174 237 -147 242 -115 c 0
EndSplineSet
EndChar

StartChar: uni0219
Encoding: 537 537 330
Width: 520
VWidth: 0
Flags: HM
LayerCount: 2
Fore
SplineSet
384 150 m 1
 501 162 l 1
 485 66 407 -10 268 -10 c 0
 179 -10 108 18 45 94 c 1
 132 178 l 1
 181 124 227 105 282 105 c 0
 338 105 379 121 384 150 c 1
243 378 m 1
 117 372 l 1
 132 466 229 530 336 530 c 0
 435 530 497 496 531 448 c 1
 446 370 l 1
 419 402 376 420 328 420 c 0
 270 420 246 397 243 378 c 1
328 327 m 0
 443 311 519 272 501 162 c 1
 384 150 l 1
 390 186 376 202 280 216 c 0
 179 231 100 267 117 372 c 1
 243 378 l 1
 240 358 252 338 328 327 c 0
189 -115 m 0
 197 -68 241 -30 288 -30 c 0
 345 -30 372 -68 364 -115 c 0
 361 -134 346 -161 326 -186 c 2
 216 -320 l 1
 146 -320 l 1
 221 -189 l 1
 198 -174 184 -147 189 -115 c 0
EndSplineSet
EndChar

StartChar: uni021A
Encoding: 538 538 331
Width: 690
VWidth: 0
Flags: HMW
LayerCount: 2
Fore
SplineSet
149 700 m 5
 769 700 l 1
 749 580 l 1
 129 580 l 5
 149 700 l 5
394 700 m 1
 524 700 l 1
 410 0 l 1
 280 0 l 1
 394 700 l 1
258 -105 m 0
 266 -58 310 -20 357 -20 c 0
 414 -20 441 -58 433 -105 c 0
 430 -124 416 -151 396 -176 c 2
 285 -310 l 1
 215 -310 l 1
 290 -179 l 1
 267 -164 253 -137 258 -105 c 0
EndSplineSet
EndChar

StartChar: uni021B
Encoding: 539 539 332
Width: 420
VWidth: 0
Flags: HMW
LayerCount: 2
Fore
SplineSet
115 520 m 1
 465 520 l 1
 446 405 l 1
 96 405 l 1
 115 520 l 1
251 160 m 1
 123 140 l 1
 210 673 l 1
 335 673 l 1
 251 160 l 1
291 105 m 1
 325 105 343 116 356 130 c 5
 409 42 l 1
 377 13 328 -10 266 -10 c 1
 291 105 l 1
251 160 m 1
 246 130 253 105 291 105 c 1
 266 -10 l 1
 167 -10 110 61 123 140 c 1
 251 160 l 1
160 -115 m 0
 168 -68 212 -30 259 -30 c 0
 316 -30 343 -68 335 -115 c 0
 332 -134 317 -161 297 -186 c 2
 187 -320 l 1
 117 -320 l 1
 192 -189 l 1
 169 -174 155 -147 160 -115 c 0
EndSplineSet
EndChar

StartChar: uni021E
Encoding: 542 542 333
Width: 765
VWidth: 0
Flags: HMW
LayerCount: 2
Fore
SplineSet
664 700 m 5
 794 700 l 5
 680 0 l 5
 550 0 l 5
 664 700 l 5
153 418 m 1
 653 418 l 5
 634 298 l 5
 134 298 l 1
 153 418 l 1
199 700 m 1
 329 700 l 1
 215 0 l 1
 85 0 l 1
 199 700 l 1
457 870 m 1
 540 770 l 1
 450 770 l 5
 367 870 l 5
 457 870 l 1
560 770 m 1
 470 770 l 1
 587 870 l 1
 677 870 l 1
 560 770 l 1
EndSplineSet
EndChar

StartChar: uni021F
Encoding: 543 543 334
Width: 635
VWidth: 0
Flags: HMW
LayerCount: 2
Fore
SplineSet
622 320 m 5
 570 0 l 1
 445 0 l 1
 494 300 l 1
 622 320 l 5
189 730 m 1
 314 730 l 1
 195 0 l 1
 70 0 l 1
 189 730 l 1
494 300 m 1
 505 369 488 415 398 415 c 0
 319 415 256 370 241 280 c 1
 206 280 l 1
 229 419 317 530 456 530 c 0
 600 530 643 449 622 320 c 5
 494 300 l 1
397 890 m 1
 481 790 l 1
 391 790 l 5
 307 890 l 5
 397 890 l 1
501 790 m 1
 411 790 l 1
 527 890 l 1
 617 890 l 1
 501 790 l 1
EndSplineSet
EndChar

StartChar: uni0226
Encoding: 550 550 335
Width: 800
VWidth: 0
Flags: HMW
LayerCount: 2
Fore
SplineSet
454 700 m 1
 574 700 l 1
 562 690 l 1
 452 690 l 1
 454 700 l 1
228 270 m 1
 640 270 l 1
 621 155 l 1
 209 155 l 1
 228 270 l 1
640 0 m 5
 462 690 l 1
 574 700 l 1
 780 0 l 1
 640 0 l 5
454 700 m 1
 562 690 l 1
 160 0 l 1
 20 0 l 1
 454 700 l 1
431 856 m 0
 439 903 484 942 531 942 c 0
 578 942 611 903 603 856 c 0
 595 809 550 770 503 770 c 0
 456 770 423 809 431 856 c 0
EndSplineSet
EndChar

StartChar: uni0227
Encoding: 551 551 336
Width: 580
VWidth: 0
Flags: HMW
LayerCount: 2
Fore
SplineSet
359 302 m 1
 489 302 l 1
 476 218 l 1
 376 218 l 1
 359 302 l 1
444 330 m 1
 455 395 422 415 356 415 c 1
 370 530 l 1
 513 530 589 454 569 330 c 1
 444 330 l 1
356 415 m 1
 302 415 251 402 207 372 c 1
 143 450 l 1
 208 499 268 530 370 530 c 1
 356 415 l 1
444 330 m 1
 569 330 l 1
 515 0 l 1
 390 0 l 1
 444 330 l 1
183 155 m 1
 177 117 212 95 275 95 c 0
 333 95 410 120 423 200 c 5
 454 180 l 1
 436 71 367 -10 228 -10 c 0
 129 -10 39 41 57 150 c 1
 183 155 l 1
359 302 m 1
 376 218 l 1
 267 218 192 210 183 155 c 1
 57 150 l 1
 79 285 222 302 359 302 c 1
308 676 m 0
 316 723 361 762 408 762 c 0
 455 762 488 723 480 676 c 0
 472 629 427 590 380 590 c 0
 333 590 300 629 308 676 c 0
EndSplineSet
EndChar

StartChar: uni0228
Encoding: 552 552 337
Width: 670
VWidth: 0
Flags: HM
LayerCount: 2
Fore
SplineSet
148 418 m 5
 628 418 l 1
 609 298 l 1
 129 298 l 5
 148 418 l 5
194 700 m 5
 724 700 l 1
 704 580 l 1
 174 580 l 5
 194 700 l 5
100 120 m 5
 630 120 l 1
 610 0 l 1
 80 0 l 5
 100 120 l 5
194 700 m 5
 324 700 l 5
 210 0 l 5
 80 0 l 5
 194 700 l 5
336 7 m 1
 376 7 l 1
 420 -27 489 -67 478 -135 c 0
 469 -192 441 -227 364 -227 c 4
 317 -227 293 -203 274 -188 c 1
 308 -118 l 1
 322 -131 341 -143 361 -143 c 0
 387 -143 398 -132 401 -112 c 0
 405 -87 377 -32 336 7 c 1
EndSplineSet
EndChar

StartChar: uni0229
Encoding: 553 553 338
Width: 615
VWidth: 0
Flags: HMW
LayerCount: 2
Fore
SplineSet
617 260 m 1
 612 230 l 1
 487 230 l 1
 492 260 l 1
 617 260 l 1
487 230 m 1
 161 230 l 1
 176 317 l 1
 502 317 l 1
 487 230 l 1
492 260 m 1
 508 359 485 415 388 415 c 4
 291 415 228 359 212 260 c 1
 87 260 l 1
 113 419 257 530 406 530 c 4
 555 530 643 419 617 260 c 1
 492 260 l 1
87 260 m 1
 212 260 l 1
 196 161 240 105 329 105 c 0
 393 105 450 118 495 167 c 1
 563 92 l 1
 506 28 415 -10 318 -10 c 4
 159 -10 61 101 87 260 c 1
295 -3 m 1
 335 -3 l 1
 379 -37 447 -77 436 -145 c 0
 427 -202 399 -237 322 -237 c 4
 275 -237 252 -213 233 -198 c 1
 266 -128 l 1
 280 -141 299 -153 319 -153 c 0
 345 -153 356 -142 359 -122 c 0
 363 -97 336 -42 295 -3 c 1
EndSplineSet
EndChar

StartChar: uni022A
Encoding: 554 554 339
Width: 850
VWidth: 0
Flags: HM
LayerCount: 2
Fore
SplineSet
247 350 m 4
 225 214 302 110 443 110 c 4
 584 110 695 214 717 350 c 4
 739 486 662 590 521 590 c 4
 380 590 269 486 247 350 c 4
117 350 m 4
 149 549 336 710 541 710 c 4
 746 710 879 549 847 350 c 4
 815 151 628 -10 423 -10 c 4
 218 -10 85 151 117 350 c 4
368 856 m 0
 376 903 421 942 468 942 c 0
 515 942 548 903 540 856 c 0
 532 809 487 770 440 770 c 0
 393 770 360 809 368 856 c 0
588 856 m 0
 596 903 641 942 688 942 c 0
 735 942 768 903 760 856 c 0
 752 809 707 770 660 770 c 0
 613 770 580 809 588 856 c 0
442 1040 m 1
 746 1040 l 5
 733 960 l 5
 429 960 l 1
 442 1040 l 1
EndSplineSet
EndChar

StartChar: uni022B
Encoding: 555 555 340
Width: 650
VWidth: 0
Flags: HM
LayerCount: 2
Fore
SplineSet
212 260 m 0
 198 171 245 105 342 105 c 0
 439 105 508 171 522 260 c 0
 536 349 490 415 393 415 c 0
 296 415 226 349 212 260 c 0
87 260 m 0
 111 409 252 530 411 530 c 0
 570 530 671 409 647 260 c 0
 623 111 482 -10 323 -10 c 0
 164 -10 63 111 87 260 c 0
239 676 m 0
 247 723 292 762 339 762 c 0
 386 762 419 723 411 676 c 0
 403 629 358 590 311 590 c 0
 264 590 231 629 239 676 c 0
459 676 m 0
 467 723 512 762 559 762 c 0
 606 762 639 723 631 676 c 0
 623 629 578 590 531 590 c 0
 484 590 451 629 459 676 c 0
313 860 m 1
 617 860 l 5
 604 780 l 5
 300 780 l 1
 313 860 l 1
EndSplineSet
EndChar

StartChar: uni022C
Encoding: 556 556 341
Width: 850
VWidth: 0
Flags: HM
LayerCount: 2
Fore
SplineSet
247 350 m 4
 225 214 302 110 443 110 c 4
 584 110 695 214 717 350 c 4
 739 486 662 590 521 590 c 4
 380 590 269 486 247 350 c 4
117 350 m 4
 149 549 336 710 541 710 c 4
 746 710 879 549 847 350 c 4
 815 151 628 -10 423 -10 c 4
 218 -10 85 151 117 350 c 4
440 770 m 5
 353 790 l 1
 370 868 437 917 488 917 c 0
 552 917 580 873 624 873 c 0
 659 873 689 883 693 910 c 1
 780 890 l 1
 761 802 688 763 638 763 c 0
 576 763 552 807 509 807 c 4
 475 807 444 797 440 770 c 5
574 1050 m 1
 878 1050 l 5
 865 970 l 5
 561 970 l 1
 574 1050 l 1
EndSplineSet
EndChar

StartChar: uni022D
Encoding: 557 557 342
Width: 650
VWidth: 0
Flags: HM
LayerCount: 2
Fore
SplineSet
212 260 m 0
 198 171 245 105 342 105 c 0
 439 105 508 171 522 260 c 0
 536 349 490 415 393 415 c 0
 296 415 226 349 212 260 c 0
87 260 m 0
 111 409 252 530 411 530 c 0
 570 530 671 409 647 260 c 0
 623 111 482 -10 323 -10 c 0
 164 -10 63 111 87 260 c 0
311 590 m 5
 223 610 l 1
 240 688 307 737 358 737 c 0
 422 737 450 693 494 693 c 0
 529 693 560 703 564 730 c 1
 651 710 l 1
 632 622 559 583 509 583 c 0
 447 583 422 627 379 627 c 4
 345 627 315 617 311 590 c 5
315 870 m 1
 619 870 l 5
 606 790 l 5
 302 790 l 1
 315 870 l 1
EndSplineSet
EndChar

StartChar: uni022E
Encoding: 558 558 343
Width: 850
VWidth: 0
Flags: HM
LayerCount: 2
Fore
SplineSet
247 350 m 4
 225 214 302 110 443 110 c 4
 584 110 695 214 717 350 c 4
 739 486 662 590 521 590 c 4
 380 590 269 486 247 350 c 4
117 350 m 4
 149 549 336 710 541 710 c 4
 746 710 879 549 847 350 c 4
 815 151 628 -10 423 -10 c 4
 218 -10 85 151 117 350 c 4
478 856 m 0
 486 903 531 942 578 942 c 0
 625 942 658 903 650 856 c 0
 642 809 597 770 550 770 c 0
 503 770 470 809 478 856 c 0
EndSplineSet
EndChar

StartChar: uni022F
Encoding: 559 559 344
Width: 650
VWidth: 0
Flags: HM
LayerCount: 2
Fore
SplineSet
212 260 m 0
 198 171 245 105 342 105 c 0
 439 105 508 171 522 260 c 0
 536 349 490 415 393 415 c 0
 296 415 226 349 212 260 c 0
87 260 m 0
 111 409 252 530 411 530 c 0
 570 530 671 409 647 260 c 0
 623 111 482 -10 323 -10 c 0
 164 -10 63 111 87 260 c 0
349 676 m 0
 357 723 402 762 449 762 c 0
 496 762 529 723 521 676 c 0
 513 629 468 590 421 590 c 0
 374 590 341 629 349 676 c 0
EndSplineSet
EndChar

StartChar: uni0230
Encoding: 560 560 345
Width: 850
VWidth: 0
Flags: HM
LayerCount: 2
Fore
SplineSet
247 350 m 4
 225 214 302 110 443 110 c 4
 584 110 695 214 717 350 c 4
 739 486 662 590 521 590 c 4
 380 590 269 486 247 350 c 4
117 350 m 4
 149 549 336 710 541 710 c 4
 746 710 879 549 847 350 c 4
 815 151 628 -10 423 -10 c 4
 218 -10 85 151 117 350 c 4
478 856 m 0
 486 903 531 942 578 942 c 0
 625 942 658 903 650 856 c 0
 642 809 597 770 550 770 c 0
 503 770 470 809 478 856 c 0
442 1040 m 1
 746 1040 l 5
 733 960 l 5
 429 960 l 1
 442 1040 l 1
EndSplineSet
EndChar

StartChar: uni0231
Encoding: 561 561 346
Width: 650
VWidth: 0
Flags: HM
LayerCount: 2
Fore
SplineSet
212 260 m 0
 198 171 245 105 342 105 c 0
 439 105 508 171 522 260 c 0
 536 349 490 415 393 415 c 0
 296 415 226 349 212 260 c 0
87 260 m 0
 111 409 252 530 411 530 c 0
 570 530 671 409 647 260 c 0
 623 111 482 -10 323 -10 c 0
 164 -10 63 111 87 260 c 0
349 676 m 0
 357 723 402 762 449 762 c 0
 496 762 529 723 521 676 c 0
 513 629 468 590 421 590 c 0
 374 590 341 629 349 676 c 0
313 860 m 1
 617 860 l 5
 604 780 l 5
 300 780 l 1
 313 860 l 1
EndSplineSet
EndChar

StartChar: uni0232
Encoding: 562 562 347
Width: 680
VWidth: 0
Flags: HMW
LayerCount: 2
Fore
SplineSet
323 295 m 1
 453 295 l 1
 405 0 l 1
 275 0 l 1
 323 295 l 1
124 700 m 1
 264 700 l 1
 453 295 l 1
 350 217 l 1
 124 700 l 1
644 700 m 5
 784 700 l 1
 400 217 l 1
 323 295 l 1
 644 700 l 5
304 850 m 1
 608 850 l 5
 595 770 l 5
 291 770 l 1
 304 850 l 1
EndSplineSet
EndChar

StartChar: uni0233
Encoding: 563 563 348
Width: 579
VWidth: 0
Flags: HMW
LayerCount: 2
Fore
SplineSet
105 520 m 1
 235 520 l 1
 375 5 l 1
 249 0 l 1
 105 520 l 1
148 -95 m 1
 135 -210 l 1
 78 -210 32 -184 11 -150 c 1
 77 -62 l 1
 91 -81 109 -95 148 -95 c 1
228 -34 m 2
 524 520 l 1
 649 520 l 1
 339 -60 l 2
 297 -140 224 -210 135 -210 c 1
 148 -95 l 1
 185 -95 207 -74 228 -34 c 2
236 670 m 1
 540 670 l 5
 527 590 l 5
 223 590 l 1
 236 670 l 1
EndSplineSet
EndChar

StartChar: uni0237
Encoding: 567 567 349
Width: 270
VWidth: 0
Flags: HMW
LayerCount: 2
Fore
SplineSet
164 520 m 1
 284 520 l 1
 189 -60 l 1
 72 -41 l 5
 164 520 l 1
22 -96 m 5
 10 -210 l 1
 -47 -210 -95 -194 -116 -160 c 1
 -62 -62 l 5
 -48 -81 -21 -96 22 -96 c 5
72 -41 m 5
 189 -60 l 1
 176 -139 109 -210 10 -210 c 1
 22 -96 l 5
 59 -96 65 -81 72 -41 c 5
EndSplineSet
EndChar

StartChar: uni1E00
Encoding: 7680 7680 350
Width: 800
VWidth: 0
Flags: HMW
LayerCount: 2
Fore
SplineSet
454 700 m 1
 574 700 l 1
 562 690 l 1
 452 690 l 1
 454 700 l 1
228 270 m 1
 640 270 l 1
 621 155 l 1
 209 155 l 1
 228 270 l 1
640 0 m 5
 462 690 l 1
 574 700 l 1
 780 0 l 1
 640 0 l 5
454 700 m 1
 562 690 l 1
 160 0 l 1
 20 0 l 1
 454 700 l 1
301 -160 m 0
 296 -189 314 -210 343 -210 c 0
 372 -210 396 -189 401 -160 c 0
 406 -131 389 -110 360 -110 c 4
 331 -110 306 -131 301 -160 c 0
251 -160 m 0
 260 -105 313 -60 368 -60 c 0
 423 -60 460 -105 451 -160 c 0
 442 -215 390 -260 335 -260 c 0
 280 -260 242 -215 251 -160 c 0
EndSplineSet
EndChar

StartChar: uni1E01
Encoding: 7681 7681 351
Width: 580
VWidth: 0
Flags: HMW
LayerCount: 2
Fore
SplineSet
359 302 m 1
 489 302 l 1
 476 218 l 1
 376 218 l 1
 359 302 l 1
444 330 m 1
 455 395 422 415 356 415 c 1
 370 530 l 1
 513 530 589 454 569 330 c 1
 444 330 l 1
356 415 m 1
 302 415 251 402 207 372 c 1
 143 450 l 1
 208 499 268 530 370 530 c 1
 356 415 l 1
444 330 m 1
 569 330 l 1
 515 0 l 1
 390 0 l 1
 444 330 l 1
183 155 m 1
 177 117 212 95 275 95 c 0
 333 95 410 120 423 200 c 5
 454 180 l 1
 436 71 367 -10 228 -10 c 0
 129 -10 39 41 57 150 c 1
 183 155 l 1
359 302 m 1
 376 218 l 1
 267 218 192 210 183 155 c 1
 57 150 l 1
 79 285 222 302 359 302 c 1
162 -170 m 0
 157 -199 175 -220 204 -220 c 0
 233 -220 257 -199 262 -170 c 0
 267 -141 249 -120 220 -120 c 4
 191 -120 167 -141 162 -170 c 0
112 -170 m 0
 121 -115 174 -70 229 -70 c 0
 284 -70 321 -115 312 -170 c 0
 303 -225 251 -270 196 -270 c 0
 141 -270 103 -225 112 -170 c 0
EndSplineSet
EndChar

StartChar: uni1E02
Encoding: 7682 7682 352
Width: 695
VWidth: 0
Flags: HMW
LayerCount: 2
Fore
SplineSet
413 418 m 5
 496 418 543 432 554 497 c 4
 565 562 522 580 439 580 c 5
 479 700 l 5
 608 700 706 631 684 497 c 4
 662 364 548 330 419 330 c 5
 413 418 l 5
194 700 m 1
 324 700 l 1
 210 0 l 1
 80 0 l 1
 194 700 l 1
120 120 m 1
 405 120 l 5
 405 0 l 5
 100 0 l 1
 120 120 l 1
214 700 m 1
 479 700 l 5
 439 580 l 5
 194 580 l 1
 214 700 l 1
168 418 m 1
 493 418 l 5
 434 298 l 5
 149 298 l 1
 168 418 l 1
405 120 m 5
 488 120 542 135 553 205 c 4
 564 275 517 298 434 298 c 5
 468 385 l 5
 597 385 706 344 683 205 c 4
 660 66 544 0 405 0 c 5
 405 120 l 5
423 856 m 0
 431 903 476 942 523 942 c 0
 570 942 603 903 595 856 c 0
 587 809 542 770 495 770 c 0
 448 770 415 809 423 856 c 0
EndSplineSet
EndChar

StartChar: uni1E03
Encoding: 7683 7683 353
Width: 655
VWidth: 0
Flags: HMW
LayerCount: 2
Fore
SplineSet
232 260 m 4
 218 174 264 105 357 105 c 4
 450 105 513 174 527 260 c 4
 541 346 501 415 408 415 c 4
 315 415 246 346 232 260 c 4
197 260 m 4
 221 409 292 530 456 530 c 4
 600 530 678 419 652 260 c 4
 626 101 512 -10 368 -10 c 4
 204 -10 173 111 197 260 c 4
184 730 m 5
 309 730 l 5
 190 0 l 5
 65 0 l 5
 184 730 l 5
187 876 m 0
 195 923 240 962 287 962 c 0
 334 962 367 923 359 876 c 0
 351 829 306 790 259 790 c 0
 212 790 179 829 187 876 c 0
EndSplineSet
EndChar

StartChar: uni1E04
Encoding: 7684 7684 354
Width: 695
VWidth: 0
Flags: HMW
LayerCount: 2
Fore
SplineSet
413 418 m 5
 496 418 543 432 554 497 c 4
 565 562 522 580 439 580 c 5
 479 700 l 5
 608 700 706 631 684 497 c 4
 662 364 548 330 419 330 c 5
 413 418 l 5
194 700 m 1
 324 700 l 1
 210 0 l 1
 80 0 l 1
 194 700 l 1
120 120 m 1
 405 120 l 5
 405 0 l 5
 100 0 l 1
 120 120 l 1
214 700 m 1
 479 700 l 5
 439 580 l 5
 194 580 l 1
 214 700 l 1
168 418 m 1
 493 418 l 5
 434 298 l 5
 149 298 l 1
 168 418 l 1
405 120 m 5
 488 120 542 135 553 205 c 4
 564 275 517 298 434 298 c 5
 468 385 l 5
 597 385 706 344 683 205 c 4
 660 66 544 0 405 0 c 5
 405 120 l 5
225 -104 m 0
 233 -57 278 -18 325 -18 c 0
 372 -18 405 -57 397 -104 c 0
 389 -151 344 -190 297 -190 c 0
 250 -190 217 -151 225 -104 c 0
EndSplineSet
EndChar

StartChar: uni1E05
Encoding: 7685 7685 355
Width: 655
VWidth: 0
Flags: HMW
LayerCount: 2
Fore
SplineSet
232 260 m 4
 218 174 264 105 357 105 c 4
 450 105 513 174 527 260 c 4
 541 346 501 415 408 415 c 4
 315 415 246 346 232 260 c 4
197 260 m 4
 221 409 292 530 456 530 c 4
 600 530 678 419 652 260 c 4
 626 101 512 -10 368 -10 c 4
 204 -10 173 111 197 260 c 4
184 730 m 5
 309 730 l 5
 190 0 l 5
 65 0 l 5
 184 730 l 5
245 -114 m 0
 253 -67 298 -28 345 -28 c 0
 392 -28 425 -67 417 -114 c 0
 409 -161 364 -200 317 -200 c 0
 270 -200 237 -161 245 -114 c 0
EndSplineSet
EndChar

StartChar: uni1E06
Encoding: 7686 7686 356
Width: 695
VWidth: 0
Flags: HMW
LayerCount: 2
Fore
SplineSet
413 418 m 5
 496 418 543 432 554 497 c 4
 565 562 522 580 439 580 c 5
 479 700 l 5
 608 700 706 631 684 497 c 4
 662 364 548 330 419 330 c 5
 413 418 l 5
194 700 m 1
 324 700 l 1
 210 0 l 1
 80 0 l 1
 194 700 l 1
120 120 m 1
 405 120 l 5
 405 0 l 5
 100 0 l 1
 120 120 l 1
214 700 m 1
 479 700 l 5
 439 580 l 5
 194 580 l 1
 214 700 l 1
168 418 m 1
 493 418 l 5
 434 298 l 5
 149 298 l 1
 168 418 l 1
405 120 m 5
 488 120 542 135 553 205 c 4
 564 275 517 298 434 298 c 5
 468 385 l 5
 597 385 706 344 683 205 c 4
 660 66 544 0 405 0 c 5
 405 120 l 5
86 -60 m 1
 390 -60 l 5
 377 -140 l 5
 73 -140 l 1
 86 -60 l 1
EndSplineSet
EndChar

StartChar: uni1E07
Encoding: 7687 7687 357
Width: 655
VWidth: 0
Flags: HMW
LayerCount: 2
Fore
SplineSet
232 260 m 4
 218 174 264 105 357 105 c 4
 450 105 513 174 527 260 c 4
 541 346 501 415 408 415 c 4
 315 415 246 346 232 260 c 4
197 260 m 4
 221 409 292 530 456 530 c 4
 600 530 678 419 652 260 c 4
 626 101 512 -10 368 -10 c 4
 204 -10 173 111 197 260 c 4
184 730 m 5
 309 730 l 5
 190 0 l 5
 65 0 l 5
 184 730 l 5
187 -70 m 1
 491 -70 l 5
 478 -150 l 5
 174 -150 l 1
 187 -70 l 1
EndSplineSet
EndChar

StartChar: uni1E08
Encoding: 7688 7688 358
Width: 732
VWidth: 0
Flags: HM
LayerCount: 2
Fore
SplineSet
237 350 m 0
 215 214 292 110 443 110 c 0
 521 110 582 142 639 198 c 1
 710 113 l 1
 633 38 529 -10 423 -10 c 0
 208 -10 75 151 107 350 c 0
 139 549 326 710 541 710 c 0
 647 710 735 662 788 587 c 1
 690 503 l 5
 651 559 599 590 521 590 c 0
 370 590 259 486 237 350 c 0
405 -3 m 1
 445 -3 l 1
 489 -37 557 -77 546 -145 c 0
 537 -202 509 -237 432 -237 c 4
 385 -237 362 -213 343 -198 c 1
 376 -128 l 1
 390 -141 409 -153 429 -153 c 0
 455 -153 466 -142 469 -122 c 0
 473 -97 446 -42 405 -3 c 1
590 770 m 1
 510 770 l 5
 613 910 l 5
 733 910 l 1
 590 770 l 1
EndSplineSet
EndChar

StartChar: uni1E09
Encoding: 7689 7689 359
Width: 573
VWidth: 0
Flags: HM
LayerCount: 2
Fore
SplineSet
212 260 m 0
 198 171 245 105 342 105 c 0
 401 105 458 130 493 170 c 1
 558 92 l 1
 501 28 420 -10 323 -10 c 0
 164 -10 63 111 87 260 c 0
 111 409 252 530 411 530 c 0
 508 530 575 491 612 428 c 1
 522 350 l 1
 501 390 452 415 393 415 c 0
 296 415 226 349 212 260 c 0
305 -3 m 1
 345 -3 l 1
 389 -37 457 -77 446 -145 c 0
 437 -202 409 -237 332 -237 c 4
 285 -237 262 -213 243 -198 c 1
 276 -128 l 1
 290 -141 309 -153 329 -153 c 0
 355 -153 366 -142 369 -122 c 0
 373 -97 346 -42 305 -3 c 1
461 590 m 1
 381 590 l 5
 484 730 l 5
 604 730 l 1
 461 590 l 1
EndSplineSet
EndChar

StartChar: uni1E0A
Encoding: 7690 7690 360
Width: 810
VWidth: 0
Flags: HMW
LayerCount: 2
Fore
SplineSet
204 700 m 1
 494 700 l 5
 474 580 l 5
 184 580 l 1
 204 700 l 1
110 120 m 1
 400 120 l 5
 380 0 l 5
 90 0 l 1
 110 120 l 1
204 700 m 1
 334 700 l 1
 220 0 l 1
 90 0 l 1
 204 700 l 1
400 120 m 5
 531 120 645 214 667 350 c 4
 689 486 605 580 474 580 c 5
 494 700 l 5
 689 700 829 549 797 350 c 4
 765 151 575 0 380 0 c 5
 400 120 l 5
471 856 m 0
 479 903 524 942 571 942 c 0
 618 942 651 903 643 856 c 0
 635 809 590 770 543 770 c 0
 496 770 463 809 471 856 c 0
EndSplineSet
EndChar

StartChar: uni1E0B
Encoding: 7691 7691 361
Width: 655
VWidth: 0
Flags: HMW
LayerCount: 2
Fore
SplineSet
507 260 m 4
 521 346 476 415 383 415 c 4
 290 415 225 346 211 260 c 4
 197 174 239 105 332 105 c 4
 425 105 493 174 507 260 c 4
542 260 m 4
 518 111 447 -10 283 -10 c 4
 139 -10 61 101 87 260 c 4
 113 419 227 530 371 530 c 4
 535 530 566 409 542 260 c 4
709 730 m 5
 590 0 l 5
 465 0 l 5
 584 730 l 5
 709 730 l 5
577 876 m 0
 585 923 630 962 677 962 c 0
 724 962 757 923 749 876 c 0
 741 829 696 790 649 790 c 0
 602 790 569 829 577 876 c 0
EndSplineSet
EndChar

StartChar: uni1E0C
Encoding: 7692 7692 362
Width: 810
VWidth: 0
Flags: HMW
LayerCount: 2
Fore
SplineSet
204 700 m 1
 494 700 l 5
 474 580 l 5
 184 580 l 1
 204 700 l 1
110 120 m 1
 400 120 l 5
 380 0 l 5
 90 0 l 1
 110 120 l 1
204 700 m 1
 334 700 l 1
 220 0 l 1
 90 0 l 1
 204 700 l 1
400 120 m 5
 531 120 645 214 667 350 c 4
 689 486 605 580 474 580 c 5
 494 700 l 5
 689 700 829 549 797 350 c 4
 765 151 575 0 380 0 c 5
 400 120 l 5
317 -104 m 0
 325 -57 370 -18 417 -18 c 0
 464 -18 497 -57 489 -104 c 0
 481 -151 436 -190 389 -190 c 0
 342 -190 309 -151 317 -104 c 0
EndSplineSet
EndChar

StartChar: uni1E0D
Encoding: 7693 7693 363
Width: 655
VWidth: 0
Flags: HMW
LayerCount: 2
Fore
SplineSet
507 260 m 4
 521 346 476 415 383 415 c 4
 290 415 225 346 211 260 c 4
 197 174 239 105 332 105 c 4
 425 105 493 174 507 260 c 4
542 260 m 4
 518 111 447 -10 283 -10 c 4
 139 -10 61 101 87 260 c 4
 113 419 227 530 371 530 c 4
 535 530 566 409 542 260 c 4
709 730 m 5
 590 0 l 5
 465 0 l 5
 584 730 l 5
 709 730 l 5
195 -114 m 0
 203 -67 248 -28 295 -28 c 0
 342 -28 375 -67 367 -114 c 0
 359 -161 314 -200 267 -200 c 0
 220 -200 187 -161 195 -114 c 0
EndSplineSet
EndChar

StartChar: uni1E0E
Encoding: 7694 7694 364
Width: 810
VWidth: 0
Flags: HMW
LayerCount: 2
Fore
SplineSet
204 700 m 1
 494 700 l 5
 474 580 l 5
 184 580 l 1
 204 700 l 1
110 120 m 1
 400 120 l 5
 380 0 l 5
 90 0 l 1
 110 120 l 1
204 700 m 1
 334 700 l 1
 220 0 l 1
 90 0 l 1
 204 700 l 1
400 120 m 5
 531 120 645 214 667 350 c 4
 689 486 605 580 474 580 c 5
 494 700 l 5
 689 700 829 549 797 350 c 4
 765 151 575 0 380 0 c 5
 400 120 l 5
228 -60 m 1
 532 -60 l 5
 519 -140 l 5
 215 -140 l 1
 228 -60 l 1
EndSplineSet
EndChar

StartChar: uni1E0F
Encoding: 7695 7695 365
Width: 655
VWidth: 0
Flags: HMW
LayerCount: 2
Fore
SplineSet
507 260 m 4
 521 346 476 415 383 415 c 4
 290 415 225 346 211 260 c 4
 197 174 239 105 332 105 c 4
 425 105 493 174 507 260 c 4
542 260 m 4
 518 111 447 -10 283 -10 c 4
 139 -10 61 101 87 260 c 4
 113 419 227 530 371 530 c 4
 535 530 566 409 542 260 c 4
709 730 m 5
 590 0 l 5
 465 0 l 5
 584 730 l 5
 709 730 l 5
137 -70 m 1
 441 -70 l 5
 428 -150 l 5
 124 -150 l 1
 137 -70 l 1
EndSplineSet
EndChar

StartChar: uni1E10
Encoding: 7696 7696 366
Width: 810
VWidth: 0
Flags: HMW
LayerCount: 2
Fore
SplineSet
204 700 m 1
 494 700 l 5
 474 580 l 5
 184 580 l 1
 204 700 l 1
110 120 m 1
 400 120 l 5
 380 0 l 5
 90 0 l 1
 110 120 l 1
204 700 m 1
 334 700 l 1
 220 0 l 1
 90 0 l 1
 204 700 l 1
400 120 m 5
 531 120 645 214 667 350 c 4
 689 486 605 580 474 580 c 5
 494 700 l 5
 689 700 829 549 797 350 c 4
 765 151 575 0 380 0 c 5
 400 120 l 5
221 7 m 1
 261 7 l 1
 305 -27 374 -67 363 -135 c 0
 354 -192 326 -227 249 -227 c 4
 202 -227 178 -203 159 -188 c 1
 193 -118 l 1
 207 -131 226 -143 246 -143 c 0
 272 -143 283 -132 286 -112 c 0
 290 -87 262 -32 221 7 c 1
EndSplineSet
EndChar

StartChar: uni1E11
Encoding: 7697 7697 367
Width: 655
VWidth: 0
Flags: HMW
LayerCount: 2
Fore
SplineSet
507 260 m 4
 521 346 476 415 383 415 c 4
 290 415 225 346 211 260 c 4
 197 174 239 105 332 105 c 4
 425 105 493 174 507 260 c 4
542 260 m 4
 518 111 447 -10 283 -10 c 4
 139 -10 61 101 87 260 c 4
 113 419 227 530 371 530 c 4
 535 530 566 409 542 260 c 4
709 730 m 5
 590 0 l 5
 465 0 l 5
 584 730 l 5
 709 730 l 5
280 -3 m 1
 320 -3 l 1
 364 -37 432 -77 421 -145 c 0
 412 -202 384 -237 307 -237 c 4
 260 -237 237 -213 218 -198 c 1
 251 -128 l 1
 265 -141 284 -153 304 -153 c 0
 330 -153 341 -142 344 -122 c 0
 348 -97 321 -42 280 -3 c 1
EndSplineSet
EndChar

StartChar: uni1E12
Encoding: 7698 7698 368
Width: 810
VWidth: 0
Flags: HMW
LayerCount: 2
Fore
SplineSet
204 700 m 1
 494 700 l 5
 474 580 l 5
 184 580 l 1
 204 700 l 1
110 120 m 1
 400 120 l 5
 380 0 l 5
 90 0 l 1
 110 120 l 1
204 700 m 1
 334 700 l 1
 220 0 l 1
 90 0 l 1
 204 700 l 1
400 120 m 5
 531 120 645 214 667 350 c 4
 689 486 605 580 474 580 c 5
 494 700 l 5
 689 700 829 549 797 350 c 4
 765 151 575 0 380 0 c 5
 400 120 l 5
279 -160 m 1
 195 -60 l 1
 285 -60 l 1
 369 -160 l 1
 279 -160 l 1
175 -60 m 5
 265 -60 l 1
 149 -160 l 1
 59 -160 l 5
 175 -60 l 5
EndSplineSet
EndChar

StartChar: uni1E13
Encoding: 7699 7699 369
Width: 655
VWidth: 0
Flags: HMW
LayerCount: 2
Fore
SplineSet
507 260 m 4
 521 346 476 415 383 415 c 4
 290 415 225 346 211 260 c 4
 197 174 239 105 332 105 c 4
 425 105 493 174 507 260 c 4
542 260 m 4
 518 111 447 -10 283 -10 c 4
 139 -10 61 101 87 260 c 4
 113 419 227 530 371 530 c 4
 535 530 566 409 542 260 c 4
709 730 m 5
 590 0 l 5
 465 0 l 5
 584 730 l 5
 709 730 l 5
337 -170 m 1
 254 -70 l 1
 344 -70 l 1
 427 -170 l 1
 337 -170 l 1
234 -70 m 5
 324 -70 l 1
 207 -170 l 1
 117 -170 l 5
 234 -70 l 5
EndSplineSet
EndChar

StartChar: uni1E14
Encoding: 7700 7700 370
Width: 670
VWidth: 0
Flags: HM
LayerCount: 2
Fore
SplineSet
148 418 m 5
 628 418 l 1
 609 298 l 1
 129 298 l 5
 148 418 l 5
194 700 m 5
 724 700 l 1
 704 580 l 1
 174 580 l 5
 194 700 l 5
100 120 m 5
 630 120 l 1
 610 0 l 1
 80 0 l 5
 100 120 l 5
194 700 m 5
 324 700 l 5
 210 0 l 5
 80 0 l 5
 194 700 l 5
341 850 m 1
 645 850 l 5
 632 770 l 5
 328 770 l 1
 341 850 l 1
453 910 m 5
 356 1050 l 5
 496 1050 l 1
 553 910 l 1
 453 910 l 5
EndSplineSet
EndChar

StartChar: uni1E15
Encoding: 7701 7701 371
Width: 615
VWidth: 0
Flags: HMW
LayerCount: 2
Fore
SplineSet
617 260 m 1
 612 230 l 1
 487 230 l 1
 492 260 l 1
 617 260 l 1
487 230 m 1
 161 230 l 1
 176 317 l 1
 502 317 l 1
 487 230 l 1
492 260 m 1
 508 359 485 415 388 415 c 4
 291 415 228 359 212 260 c 1
 87 260 l 1
 113 419 257 530 406 530 c 4
 555 530 643 419 617 260 c 1
 492 260 l 1
87 260 m 1
 212 260 l 1
 196 161 240 105 329 105 c 0
 393 105 450 118 495 167 c 1
 563 92 l 1
 506 28 415 -10 318 -10 c 4
 159 -10 61 101 87 260 c 1
262 670 m 1
 566 670 l 5
 553 590 l 5
 249 590 l 1
 262 670 l 1
374 730 m 5
 277 870 l 5
 417 870 l 1
 474 730 l 1
 374 730 l 5
EndSplineSet
EndChar

StartChar: uni1E16
Encoding: 7702 7702 372
Width: 670
VWidth: 0
Flags: HM
LayerCount: 2
Fore
SplineSet
148 418 m 5
 628 418 l 1
 609 298 l 1
 129 298 l 5
 148 418 l 5
194 700 m 5
 724 700 l 1
 704 580 l 1
 174 580 l 5
 194 700 l 5
100 120 m 5
 630 120 l 1
 610 0 l 1
 80 0 l 5
 100 120 l 5
194 700 m 5
 324 700 l 5
 210 0 l 5
 80 0 l 5
 194 700 l 5
341 850 m 1
 645 850 l 5
 632 770 l 5
 328 770 l 1
 341 850 l 1
543 910 m 1
 463 910 l 5
 566 1050 l 5
 686 1050 l 1
 543 910 l 1
EndSplineSet
EndChar

StartChar: uni1E17
Encoding: 7703 7703 373
Width: 615
VWidth: 0
Flags: HMW
LayerCount: 2
Fore
SplineSet
617 260 m 1
 612 230 l 1
 487 230 l 1
 492 260 l 1
 617 260 l 1
487 230 m 1
 161 230 l 1
 176 317 l 1
 502 317 l 1
 487 230 l 1
492 260 m 1
 508 359 485 415 388 415 c 4
 291 415 228 359 212 260 c 1
 87 260 l 1
 113 419 257 530 406 530 c 4
 555 530 643 419 617 260 c 1
 492 260 l 1
87 260 m 1
 212 260 l 1
 196 161 240 105 329 105 c 0
 393 105 450 118 495 167 c 1
 563 92 l 1
 506 28 415 -10 318 -10 c 4
 159 -10 61 101 87 260 c 1
262 670 m 1
 566 670 l 5
 553 590 l 5
 249 590 l 1
 262 670 l 1
464 730 m 1
 384 730 l 5
 487 870 l 5
 607 870 l 1
 464 730 l 1
EndSplineSet
EndChar

StartChar: uni1E18
Encoding: 7704 7704 374
Width: 670
VWidth: 0
Flags: HM
LayerCount: 2
Fore
SplineSet
148 418 m 5
 628 418 l 1
 609 298 l 1
 129 298 l 5
 148 418 l 5
194 700 m 5
 724 700 l 1
 704 580 l 1
 174 580 l 5
 194 700 l 5
100 120 m 5
 630 120 l 1
 610 0 l 1
 80 0 l 5
 100 120 l 5
194 700 m 5
 324 700 l 5
 210 0 l 5
 80 0 l 5
 194 700 l 5
394 -160 m 1
 310 -60 l 1
 400 -60 l 1
 484 -160 l 1
 394 -160 l 1
290 -60 m 5
 380 -60 l 1
 264 -160 l 1
 174 -160 l 5
 290 -60 l 5
EndSplineSet
EndChar

StartChar: uni1E19
Encoding: 7705 7705 375
Width: 615
VWidth: 0
Flags: HMW
LayerCount: 2
Fore
SplineSet
617 260 m 1
 612 230 l 1
 487 230 l 1
 492 260 l 1
 617 260 l 1
487 230 m 1
 161 230 l 1
 176 317 l 1
 502 317 l 1
 487 230 l 1
492 260 m 1
 508 359 485 415 388 415 c 4
 291 415 228 359 212 260 c 1
 87 260 l 1
 113 419 257 530 406 530 c 4
 555 530 643 419 617 260 c 1
 492 260 l 1
87 260 m 1
 212 260 l 1
 196 161 240 105 329 105 c 0
 393 105 450 118 495 167 c 1
 563 92 l 1
 506 28 415 -10 318 -10 c 4
 159 -10 61 101 87 260 c 1
352 -170 m 1
 269 -70 l 1
 359 -70 l 1
 442 -170 l 1
 352 -170 l 1
249 -70 m 5
 339 -70 l 1
 222 -170 l 1
 132 -170 l 5
 249 -70 l 5
EndSplineSet
EndChar

StartChar: uni1E1A
Encoding: 7706 7706 376
Width: 670
VWidth: 0
Flags: HM
LayerCount: 2
Fore
SplineSet
148 418 m 5
 628 418 l 1
 609 298 l 1
 129 298 l 5
 148 418 l 5
194 700 m 5
 724 700 l 1
 704 580 l 1
 174 580 l 5
 194 700 l 5
100 120 m 5
 630 120 l 1
 610 0 l 1
 80 0 l 5
 100 120 l 5
194 700 m 5
 324 700 l 5
 210 0 l 5
 80 0 l 5
 194 700 l 5
212 -200 m 5
 125 -180 l 1
 142 -102 209 -53 260 -53 c 0
 324 -53 352 -97 396 -97 c 0
 431 -97 461 -87 465 -60 c 1
 552 -80 l 1
 533 -168 460 -207 410 -207 c 0
 348 -207 324 -163 281 -163 c 4
 247 -163 216 -173 212 -200 c 5
EndSplineSet
EndChar

StartChar: uni1E1B
Encoding: 7707 7707 377
Width: 615
VWidth: 0
Flags: HMW
LayerCount: 2
Fore
SplineSet
617 260 m 1
 612 230 l 1
 487 230 l 1
 492 260 l 1
 617 260 l 1
487 230 m 1
 161 230 l 1
 176 317 l 1
 502 317 l 1
 487 230 l 1
492 260 m 1
 508 359 485 415 388 415 c 4
 291 415 228 359 212 260 c 1
 87 260 l 1
 113 419 257 530 406 530 c 4
 555 530 643 419 617 260 c 1
 492 260 l 1
87 260 m 1
 212 260 l 1
 196 161 240 105 329 105 c 0
 393 105 450 118 495 167 c 1
 563 92 l 1
 506 28 415 -10 318 -10 c 4
 159 -10 61 101 87 260 c 1
171 -210 m 5
 83 -190 l 1
 100 -112 167 -63 218 -63 c 0
 282 -63 310 -107 354 -107 c 0
 389 -107 420 -97 424 -70 c 1
 510 -90 l 1
 491 -178 419 -217 369 -217 c 0
 307 -217 282 -173 239 -173 c 4
 205 -173 175 -183 171 -210 c 5
EndSplineSet
EndChar

StartChar: uni1E1C
Encoding: 7708 7708 378
Width: 670
VWidth: 0
Flags: HM
LayerCount: 2
Fore
SplineSet
148 418 m 5
 628 418 l 1
 609 298 l 1
 129 298 l 5
 148 418 l 5
194 700 m 5
 724 700 l 1
 704 580 l 1
 174 580 l 5
 194 700 l 5
100 120 m 5
 630 120 l 1
 610 0 l 1
 80 0 l 5
 100 120 l 5
194 700 m 5
 324 700 l 5
 210 0 l 5
 80 0 l 5
 194 700 l 5
336 7 m 1
 376 7 l 1
 420 -27 489 -67 478 -135 c 0
 469 -192 441 -227 364 -227 c 4
 317 -227 293 -203 274 -188 c 1
 308 -118 l 1
 322 -131 341 -143 361 -143 c 0
 387 -143 398 -132 401 -112 c 0
 405 -87 377 -32 336 7 c 1
497 870 m 1
 457 870 434 884 442 932 c 1
 326 926 l 1
 310 827 368 750 477 750 c 1
 497 870 l 1
497 870 m 5
 477 750 l 1
 586 750 670 827 686 926 c 1
 572 932 l 5
 564 884 539 870 497 870 c 5
EndSplineSet
EndChar

StartChar: uni1E1D
Encoding: 7709 7709 379
Width: 615
VWidth: 0
Flags: HMW
LayerCount: 2
Fore
SplineSet
617 260 m 1
 612 230 l 1
 487 230 l 1
 492 260 l 1
 617 260 l 1
487 230 m 1
 161 230 l 1
 176 317 l 1
 502 317 l 1
 487 230 l 1
492 260 m 1
 508 359 485 415 388 415 c 4
 291 415 228 359 212 260 c 1
 87 260 l 1
 113 419 257 530 406 530 c 4
 555 530 643 419 617 260 c 1
 492 260 l 1
87 260 m 1
 212 260 l 1
 196 161 240 105 329 105 c 0
 393 105 450 118 495 167 c 1
 563 92 l 1
 506 28 415 -10 318 -10 c 4
 159 -10 61 101 87 260 c 1
295 -3 m 1
 335 -3 l 1
 379 -37 447 -77 436 -145 c 0
 427 -202 399 -237 322 -237 c 4
 275 -237 252 -213 233 -198 c 1
 266 -128 l 1
 280 -141 299 -153 319 -153 c 0
 345 -153 356 -142 359 -122 c 0
 363 -97 336 -42 295 -3 c 1
417 690 m 1
 377 690 354 704 362 752 c 1
 246 746 l 1
 230 647 289 570 398 570 c 1
 417 690 l 1
417 690 m 5
 398 570 l 1
 507 570 590 647 606 746 c 1
 492 752 l 5
 484 704 459 690 417 690 c 5
EndSplineSet
EndChar

